<?xml version="1.0" encoding="UTF-8"?>
<svg version="1.1"
    xmlns="http://www.w3.org/2000/svg" width="903" height="841">
    <path d="M0 0 C1.32 0 2.64 0 4 0 C4 0.66 4 1.32 4 2 C4.99 2.33 5.98 2.66 7 3 C7 3.66 7 4.32 7 5 C8.2065625 5.4021875 8.2065625 5.4021875 9.4375 5.8125 C10.283125 6.204375 11.12875 6.59625 12 7 C12.33 7.99 12.66 8.98 13 10 C14.32796291 10.35412344 15.66216607 10.68521554 17 11 C18.75 12.4375 18.75 12.4375 20 14 C20 14.66 20 15.32 20 16 C21.32 16.33 22.64 16.66 24 17 C24 17.66 24 18.32 24 19 C24.55042969 19.25007812 25.10085938 19.50015625 25.66796875 19.7578125 C28.42977926 21.22892765 30.80891502 22.99819655 33.3125 24.875 C37.42354135 27.90592861 41.49686837 30.5983298 46 33 C46 33.66 46 34.32 46 35 C47.65 35.33 49.3 35.66 51 36 C51 36.66 51 37.32 51 38 C53.97 38.495 53.97 38.495 57 39 C57 39.66 57 40.32 57 41 C58.65 41.33 60.3 41.66 62 42 C62 42.66 62 43.32 62 44 C63.11375 44.185625 63.11375 44.185625 64.25 44.375 C66.80141485 44.95486701 68.7267573 45.73708739 71 47 C71 47.66 71 48.32 71 49 C73.64 49.33 76.28 49.66 79 50 C79 50.66 79 51.32 79 52 C79.83789062 52.11214844 80.67578125 52.22429688 81.5390625 52.33984375 C85.33656234 53.06419756 88.74846508 54.22820885 92.375 55.5625 C93.01566406 55.79646484 93.65632812 56.03042969 94.31640625 56.27148438 C95.8793161 56.84299619 97.43990727 57.42084229 99 58 C99 58.66 99 59.32 99 60 C102.3 60.33 105.6 60.66 109 61 C109 61.66 109 62.32 109 63 C109.71285156 63.04898438 110.42570313 63.09796875 111.16015625 63.1484375 C116.70890762 63.58158364 121.66083875 64.35718115 127 66 C129.33257494 66.33859959 131.66574212 66.6732039 134 67 C134.33 67.33 134.66 67.66 135 68 C162.84466331 73.94591805 197.80644448 74.09156598 225.35546875 66.90625 C229.50377969 65.87473002 232.76604748 65.84878741 237 66 C237 65.34 237 64.68 237 64 C240.63 63.67 244.26 63.34 248 63 C248 62.34 248 61.68 248 61 C249.27875 60.7525 250.5575 60.505 251.875 60.25 C257.89515307 58.91534342 263.44189438 56.60929586 269.046875 54.07421875 C272.38015997 52.57139155 274.244504 52 278 52 C278 51.34 278 50.68 278 50 C281.465 49.505 281.465 49.505 285 49 C285 48.34 285 47.68 285 47 C291.625 44 291.625 44 295 44 C295 43.34 295 42.68 295 42 C296.26691507 41.32591692 297.53870749 40.66099503 298.8125 40 C299.52019531 39.62875 300.22789062 39.2575 300.95703125 38.875 C303 38 303 38 306 38 C306.33 37.01 306.66 36.02 307 35 C307.99 35 308.98 35 310 35 C310 34.34 310 33.68 310 33 C311.010625 32.443125 312.02125 31.88625 313.0625 31.3125 C315.77772654 29.77276788 318.30070625 28.10218405 320.8125 26.25 C324 24 324 24 326 24 C326 23.34 326 22.68 326 22 C327.65071396 20.97388051 329.31970006 19.97691857 331 19 C331.53625 18.443125 332.0725 17.88625 332.625 17.3125 C334 16 334 16 337 16 C337.33 15.01 337.66 14.02 338 13 C338.66 13 339.32 13 340 13 C340 12.34 340 11.68 340 11 C341.71484375 9.5625 341.71484375 9.5625 343.9375 8 C346.98632637 5.95183196 346.98632637 5.95183196 349 3 C353.5076467 3.53031138 356.41954788 5.25221116 360 8 C360 8.66 360 9.32 360 10 C361.65 10.33 363.3 10.66 365 11 C365 11.66 365 12.32 365 13 C365.70125 13.2475 366.4025 13.495 367.125 13.75 C372.28001822 15.99131227 376.06526161 19.06526161 380 23 C380.66 23.33 381.32 23.66 382 24 C384.50942933 25.25471467 386.05681014 26.9941266 388 29 C388.99 29.66 389.98 30.32 391 31 C391 31.66 391 32.32 391 33 C391.66 33 392.32 33 393 33 C393 33.66 393 34.32 393 35 C393.99 35.33 394.98 35.66 396 36 C396 36.66 396 37.32 396 38 C396.8353125 38.0928125 396.8353125 38.0928125 397.6875 38.1875 C400.98120783 39.3447487 402.59504754 41.48318929 405 44 C406.17815932 45.01098806 407.36609803 46.01066761 408.5625 47 C411.43926514 49.42023502 413.69932791 52.0176473 416 55 C416.66 55.33 417.32 55.66 418 56 C418 56.66 418 57.32 418 58 C418.66 58 419.32 58 420 58 C421.37073786 59.63604196 422.70055256 61.30678061 424 63 C424.86625 63.8353125 424.86625 63.8353125 425.75 64.6875 C427 66 427 66 427 68 C427.99 68.33 428.98 68.66 430 69 C430.66666667 70.66666667 431.33333333 72.33333333 432 74 C432.99 74.33 433.98 74.66 435 75 C435 75.66 435 76.32 435 77 C435.99 77.33 436.98 77.66 438 78 C441 82.33333333 441 82.33333333 441 85 C441.9590625 85.37125 441.9590625 85.37125 442.9375 85.75 C445 87 445 87 445.5625 89.0625 C445.706875 89.701875 445.85125 90.34125 446 91 C446.99 91.33 447.98 91.66 449 92 C452 96.33333333 452 96.33333333 452 99 C452.66 99 453.32 99 454 99 C455.5078125 100.8984375 455.5078125 100.8984375 457.125 103.375 C457.93324219 104.59316406 457.93324219 104.59316406 458.7578125 105.8359375 C460 108 460 108 460 110 C460.66 110 461.32 110 462 110 C466 116.75 466 116.75 466 119 C466.66 119 467.32 119 468 119 C468 119.99 468 120.98 468 122 C468.66 122 469.32 122 470 122 C470.33 123.65 470.66 125.3 471 127 C471.66 127 472.32 127 473 127 C473.33 128.98 473.66 130.96 474 133 C474.66 133 475.32 133 476 133 C476.33 134.65 476.66 136.3 477 138 C477.66 138 478.32 138 479 138 C480.00732399 139.93370231 481.00563288 141.87210306 482 143.8125 C482.8353125 145.43091797 482.8353125 145.43091797 483.6875 147.08203125 C485 150 485 150 485 153 C485.66 153 486.32 153 487 153 C487.33 155.31 487.66 157.62 488 160 C488.66 160 489.32 160 490 160 C490.33 161.98 490.66 163.96 491 166 C491.66 166 492.32 166 493 166 C493 166.99 493 167.98 493 169 C493.66 169 494.32 169 495 169 C495.67260351 170.76858691 496.33788395 172.53996016 497 174.3125 C497.37125 175.29863281 497.7425 176.28476562 498.125 177.30078125 C499 180 499 180 499 183 C499.66 183 500.32 183 501 183 C501.33 185.64 501.66 188.28 502 191 C502.66 191 503.32 191 504 191 C504.2475 191.94875 504.495 192.8975 504.75 193.875 C505.8862284 197.92590125 507.5102151 201.72041844 509.1953125 205.5703125 C510.06177881 208.18653602 510.14611313 210.26281395 510 213 C510.66 213 511.32 213 512 213 C512.33 216.63 512.66 220.26 513 224 C513.66 224 514.32 224 515 224 C515.33 227.63 515.66 231.26 516 235 C516.66 235 517.32 235 518 235 C519.90420731 241.80074041 521.40850553 247.91923749 521 255 C521.66 255 522.32 255 523 255 C523.13277344 256.14339844 523.26554688 257.28679687 523.40234375 258.46484375 C523.5805031 259.9557562 523.75890082 261.44664018 523.9375 262.9375 C524.06801758 264.06961914 524.06801758 264.06961914 524.20117188 265.22460938 C524.34324099 268.92187458 524.34324099 268.92187458 526 272 C527.03581937 279.02055353 527.10792492 285.91293037 527 293 C527.66 293 528.32 293 529 293 C529.8937457 304.68821891 530.12535693 316.28252015 530.0625 328 C530.05746627 329.66145696 530.05290673 331.32291542 530.04882812 332.984375 C530.03799087 336.98962171 530.02083374 340.99479334 530 345 C479.49966507 345.01711067 428.99932994 345.03303228 378.49899292 345.04234314 C377.37866575 345.04255023 377.37866575 345.04255023 376.2357057 345.04276149 C360.0056463 345.04575409 343.77558688 345.04852431 327.54552741 345.05106533 C319.58682946 345.05231272 311.62813153 345.05360926 303.66943359 345.05493164 C302.87742848 345.0550624 302.08542338 345.05519316 301.26941811 345.05532788 C275.5774375 345.05959265 249.88545907 345.06710651 224.19347979 345.07629722 C197.80155226 345.08572122 171.40962595 345.09188345 145.01769677 345.09391499 C141.29387055 345.09420316 137.57004433 345.0945288 133.84621811 345.09487724 C133.1132832 345.09494467 132.38034829 345.09501209 131.62520323 345.09508156 C119.8055577 345.09626534 107.98591591 345.10090897 96.16627191 345.10683203 C84.29651819 345.11270689 72.42676853 345.11488988 60.55701341 345.11350138 C54.12046438 345.1128579 47.68392639 345.11387664 41.2473793 345.11920547 C35.36415757 345.12404093 29.48095437 345.12433767 23.59773181 345.12089889 C21.4604287 345.12047335 19.32312446 345.12176785 17.18582357 345.12488318 C14.29829318 345.12884999 11.41083124 345.12676156 8.52330208 345.12304783 C7.67825302 345.12567484 6.83320397 345.12830186 5.96254736 345.13100848 C0.2282916 345.1141458 0.2282916 345.1141458 -2 344 C-2 343.34 -2 342.68 -2 342 C-2.99 341.67 -3.98 341.34 -5 341 C-5 340.34 -5 339.68 -5 339 C-5.99 338.67 -6.98 338.34 -8 338 C-8 337.34 -8 336.68 -8 336 C-8.99 335.67 -9.98 335.34 -11 335 C-11 334.34 -11 333.68 -11 333 C-11.66 333 -12.32 333 -13 333 C-13 332.34 -13 331.68 -13 331 C-13.99 330.67 -14.98 330.34 -16 330 C-16 329.34 -16 328.68 -16 328 C-16.99 327.67 -17.98 327.34 -19 327 C-19 326.34 -19 325.68 -19 325 C-19.99 324.67 -20.98 324.34 -22 324 C-22 323.34 -22 322.68 -22 322 C-22.66 322 -23.32 322 -24 322 C-24 321.34 -24 320.68 -24 320 C-24.61875 319.690625 -25.2375 319.38125 -25.875 319.0625 C-27.25 318.375 -28.625 317.6875 -30 317 C-30 316.34 -30 315.68 -30 315 C-30.99 314.67 -31.98 314.34 -33 314 C-33 313.34 -33 312.68 -33 312 C-33.99 311.67 -34.98 311.34 -36 311 C-36 310.34 -36 309.68 -36 309 C-36.99 308.67 -37.98 308.34 -39 308 C-39 307.34 -39 306.68 -39 306 C-39.639375 305.731875 -40.27875 305.46375 -40.9375 305.1875 C-43 304 -43 304 -44 301 C-44.99 300.67 -45.98 300.34 -47 300 C-48.03013277 298.35178756 -49.03114628 296.68496298 -50 295 C-50.66 294.67 -51.32 294.34 -52 294 C-52 293.34 -52 292.68 -52 292 C-52.99 291.67 -53.98 291.34 -55 291 C-55 290.34 -55 289.68 -55 289 C-55.99 288.67 -56.98 288.34 -58 288 C-58 287.34 -58 286.68 -58 286 C-58.66 286 -59.32 286 -60 286 C-60.33 284.68 -60.66 283.36 -61 282 C-61.66 282 -62.32 282 -63 282 C-64.35373964 280.49096123 -65.63443401 278.91587302 -66.875 277.3125 C-67.89207031 276.00732422 -67.89207031 276.00732422 -68.9296875 274.67578125 C-69.95449219 273.35126953 -69.95449219 273.35126953 -71 272 C-72.11761719 270.69095703 -72.11761719 270.69095703 -73.2578125 269.35546875 C-75 267 -75 267 -75 264 C-75.9590625 263.62875 -75.9590625 263.62875 -76.9375 263.25 C-79 262 -79 262 -79.75 259.875 C-79.8325 259.25625 -79.915 258.6375 -80 258 C-80.66 258 -81.32 258 -82 258 C-82.33 256.35 -82.66 254.7 -83 253 C-83.99 252.67 -84.98 252.34 -86 252 C-87.38671875 250.22265625 -87.38671875 250.22265625 -88.6875 248.0625 C-89.34298828 246.99708984 -89.34298828 246.99708984 -90.01171875 245.91015625 C-91 244 -91 244 -91 242 C-91.66 242 -92.32 242 -93 242 C-93.33 240.35 -93.66 238.7 -94 237 C-94.66 237 -95.32 237 -96 237 C-96.33 235.02 -96.66 233.04 -97 231 C-97.66 231 -98.32 231 -99 231 C-99.33 229.35 -99.66 227.7 -100 226 C-100.66 226 -101.32 226 -102 226 C-105 220.375 -105 220.375 -105 217 C-105.66 217 -106.32 217 -107 217 C-107.33 215.02 -107.66 213.04 -108 211 C-108.66 211 -109.32 211 -110 211 C-110.33 208.36 -110.66 205.72 -111 203 C-111.66 203 -112.32 203 -113 203 C-114.00816056 200.41958904 -115.0067111 197.83613056 -116 195.25 C-116.28617187 194.52039063 -116.57234375 193.79078125 -116.8671875 193.0390625 C-117.27324219 191.97558594 -117.27324219 191.97558594 -117.6875 190.890625 C-117.93886719 190.24125977 -118.19023437 189.59189453 -118.44921875 188.92285156 C-119 187 -119 187 -119 183 C-119.66 183 -120.32 183 -121 183 C-121.13277344 182.21753906 -121.26554688 181.43507813 -121.40234375 180.62890625 C-121.57894531 179.61699219 -121.75554687 178.60507812 -121.9375 177.5625 C-122.11152344 176.55316406 -122.28554687 175.54382813 -122.46484375 174.50390625 C-122.74751097 172.0712562 -122.74751097 172.0712562 -124 171 C-124 168.36 -124 165.72 -124 163 C-79.12 163 -34.24 163 12 163 C12 162.34 12 161.68 12 161 C11.34 161 10.68 161 10 161 C8.66104368 159.33784732 7.32869858 157.67036393 6 156 C4.35704805 154.63755204 2.69175663 153.30135125 1 152 C-0.8125 150.375 -0.8125 150.375 -2 149 C-2 148.34 -2 147.68 -2 147 C-2.66 147 -3.32 147 -4 147 C-5.33895632 145.33784732 -6.67130142 143.67036393 -8 142 C-8.9075 141.278125 -9.815 140.55625 -10.75 139.8125 C-11.4925 139.214375 -12.235 138.61625 -13 138 C-13 137.34 -13 136.68 -13 136 C-13.99 135.67 -14.98 135.34 -16 135 C-16 134.34 -16 133.68 -16 133 C-16.66 133 -17.32 133 -18 133 C-18 132.34 -18 131.68 -18 131 C-18.556875 130.7525 -19.11375 130.505 -19.6875 130.25 C-23.55701002 128.15837296 -27.11809266 125.33694534 -30 122 C-30 121.34 -30 120.68 -30 120 C-31.485 119.505 -31.485 119.505 -33 119 C-33 118.34 -33 117.68 -33 117 C-34.485 116.505 -34.485 116.505 -36 116 C-36 115.34 -36 114.68 -36 114 C-37.485 113.505 -37.485 113.505 -39 113 C-39 112.34 -39 111.68 -39 111 C-39.66 111 -40.32 111 -41 111 C-41 110.34 -41 109.68 -41 109 C-42.485 108.505 -42.485 108.505 -44 108 C-44 107.34 -44 106.68 -44 106 C-45.485 105.505 -45.485 105.505 -47 105 C-47 104.34 -47 103.68 -47 103 C-48.485 102.505 -48.485 102.505 -50 102 C-50 101.34 -50 100.68 -50 100 C-50.639375 99.731875 -51.27875 99.46375 -51.9375 99.1875 C-54 98 -54 98 -55 95 C-56.485 94.505 -56.485 94.505 -58 94 C-58 93.34 -58 92.68 -58 92 C-59.485 91.505 -59.485 91.505 -61 91 C-61 90.34 -61 89.68 -61 89 C-61.86625 88.62875 -61.86625 88.62875 -62.75 88.25 C-65.32939979 86.81700012 -67.06121592 85.21575324 -69 83 C-69 82.34 -69 81.68 -69 81 C-69.99 80.67 -70.98 80.34 -72 80 C-72 79.34 -72 78.68 -72 78 C-72.99 77.67 -73.98 77.34 -75 77 C-75 76.34 -75 75.68 -75 75 C-75.9590625 74.5359375 -75.9590625 74.5359375 -76.9375 74.0625 C-79 73 -79 73 -80 72 C-80.04063832 70.33382885 -80.042721 68.66611905 -80 67 C-79.01 66.67 -78.02 66.34 -77 66 C-77 65.34 -77 64.68 -77 64 C-75.625 62.375 -75.625 62.375 -74 61 C-73.34 61 -72.68 61 -72 61 C-71.773125 60.44828125 -71.54625 59.8965625 -71.3125 59.328125 C-69.61274074 56.31307583 -67.45195184 54.18769631 -65 51.75 C-64.113125 50.85796875 -63.22625 49.9659375 -62.3125 49.046875 C-60 47 -60 47 -58 47 C-57.67 46.01 -57.34 45.02 -57 44 C-56.34 44 -55.68 44 -55 44 C-54.67 43.01 -54.34 42.02 -54 41 C-53.34 41 -52.68 41 -52 41 C-52 40.34 -52 39.68 -52 39 C-50.36871556 37.62360375 -48.69044656 36.30305256 -47 35 C-45.68228822 33.83922309 -44.37014203 32.67210907 -43.0625 31.5 C-40.68918799 29.40432072 -38.34627661 27.46960676 -35.6875 25.75 C-33.05561725 24.18026924 -33.05561725 24.18026924 -31.4375 22.375 C-30 21 -30 21 -27.375 20 C-26.59125 19.67 -25.8075 19.34 -25 19 C-24.505 17.515 -24.505 17.515 -24 16 C-23.01 16 -22.02 16 -21 16 C-21 15.34 -21 14.68 -21 14 C-18.525 13.505 -18.525 13.505 -16 13 C-15.67 12.01 -15.34 11.02 -15 10 C-13.22265625 8.61328125 -13.22265625 8.61328125 -11.0625 7.3125 C-10.35222656 6.87550781 -9.64195312 6.43851562 -8.91015625 5.98828125 C-7 5 -7 5 -5 5 C-5 4.34 -5 3.68 -5 3 C-2.525 2.505 -2.525 2.505 0 2 C0 1.34 0 0.68 0 0 Z " fill="#3eab95" transform="translate(373,496)"/>
    <path d="M0 0 C1.6390757 -0.00143509 1.6390757 -0.00143509 3.31126404 -0.00289917 C5.60456399 -0.00357502 7.89786591 -0.00176262 10.19116211 0.00244141 C13.67761575 0.00780331 17.1639409 0.00247335 20.65039062 -0.00390625 C22.89192736 -0.00324546 25.13346402 -0.00196429 27.375 0 C28.40444229 -0.00202423 29.43388458 -0.00404846 30.49452209 -0.00613403 C48.03830166 0.05002041 48.03830166 0.05002041 50.12109375 2.1328125 C53.574915 2.67718962 57.03875635 3.09923473 60.5078125 3.53515625 C63.91447688 4.09863695 66.87607427 4.97854382 70.12109375 6.1328125 C72.07535646 6.68898648 74.03363224 7.23129844 75.99609375 7.7578125 C77.44628906 8.14839844 77.44628906 8.14839844 78.92578125 8.546875 C79.65023438 8.74023438 80.3746875 8.93359375 81.12109375 9.1328125 C81.12109375 9.7928125 81.12109375 10.4528125 81.12109375 11.1328125 C82.19359375 11.1946875 83.26609375 11.2565625 84.37109375 11.3203125 C90.37440814 12.05606506 95.64823542 14.68462553 101.12109375 17.1328125 C102.53668506 17.73949449 103.95313304 18.3441892 105.37109375 18.9453125 C106.27859375 19.3371875 107.18609375 19.7290625 108.12109375 20.1328125 C108.12109375 20.7928125 108.12109375 21.4528125 108.12109375 22.1328125 C110.10109375 22.4628125 112.08109375 22.7928125 114.12109375 23.1328125 C114.12109375 23.7928125 114.12109375 24.4528125 114.12109375 25.1328125 C114.82234375 25.2359375 115.52359375 25.3390625 116.24609375 25.4453125 C119.51247022 26.22640253 122.16827895 27.55339993 125.12109375 29.1328125 C125.12109375 29.7928125 125.12109375 30.4528125 125.12109375 31.1328125 C125.82234375 31.3803125 126.52359375 31.6278125 127.24609375 31.8828125 C130.51623923 33.30461488 133.26221575 35.00527538 136.12109375 37.1328125 C136.12109375 37.7928125 136.12109375 38.4528125 136.12109375 39.1328125 C137.32765625 39.3184375 137.32765625 39.3184375 138.55859375 39.5078125 C139.40421875 39.7140625 140.24984375 39.9203125 141.12109375 40.1328125 C141.45109375 40.7928125 141.78109375 41.4528125 142.12109375 42.1328125 C143.11109375 42.4628125 144.10109375 42.7928125 145.12109375 43.1328125 C145.12109375 43.7928125 145.12109375 44.4528125 145.12109375 45.1328125 C145.78109375 45.1328125 146.44109375 45.1328125 147.12109375 45.1328125 C148.74609375 46.5078125 148.74609375 46.5078125 150.12109375 48.1328125 C150.12109375 48.7928125 150.12109375 49.4528125 150.12109375 50.1328125 C150.70503906 50.23980469 151.28898437 50.34679687 151.890625 50.45703125 C154.41811088 51.22280193 155.81095383 52.23366875 157.80859375 53.9453125 C158.41058594 54.44675781 159.01257813 54.94820312 159.6328125 55.46484375 C161.30884997 57.34323745 161.72132885 58.67559094 162.12109375 61.1328125 C162.683125 61.18566406 163.24515625 61.23851562 163.82421875 61.29296875 C167.21098351 62.53132661 168.64737192 64.77612609 170.87109375 67.5703125 C171.6703125 68.55902344 172.46953125 69.54773438 173.29296875 70.56640625 C175.12109375 73.1328125 175.12109375 73.1328125 175.12109375 75.1328125 C176.11109375 75.4628125 177.10109375 75.7928125 178.12109375 76.1328125 C178.12109375 76.7928125 178.12109375 77.4528125 178.12109375 78.1328125 C178.78109375 78.1328125 179.44109375 78.1328125 180.12109375 78.1328125 C180.45109375 79.4528125 180.78109375 80.7728125 181.12109375 82.1328125 C181.78109375 82.1328125 182.44109375 82.1328125 183.12109375 82.1328125 C183.45109375 83.4528125 183.78109375 84.7728125 184.12109375 86.1328125 C184.78109375 86.1328125 185.44109375 86.1328125 186.12109375 86.1328125 C186.45109375 87.1228125 186.78109375 88.1128125 187.12109375 89.1328125 C187.78109375 89.4628125 188.44109375 89.7928125 189.12109375 90.1328125 C191.13065055 93.06985706 192.12109375 94.52503735 192.12109375 98.1328125 C192.78109375 98.1328125 193.44109375 98.1328125 194.12109375 98.1328125 C194.45109375 99.7828125 194.78109375 101.4328125 195.12109375 103.1328125 C195.78109375 103.1328125 196.44109375 103.1328125 197.12109375 103.1328125 C198.33021688 105.55105875 199.53855305 107.96963946 200.7421875 110.390625 C201.59245749 112.08153019 202.45677098 113.76555872 203.34375 115.4375 C205.22157141 119.00468763 206.12109375 121.02203147 206.12109375 125.1328125 C206.78109375 125.1328125 207.44109375 125.1328125 208.12109375 125.1328125 C208.45109375 127.4428125 208.78109375 129.7528125 209.12109375 132.1328125 C209.78109375 132.1328125 210.44109375 132.1328125 211.12109375 132.1328125 C211.45109375 134.7728125 211.78109375 137.4128125 212.12109375 140.1328125 C212.78109375 140.1328125 213.44109375 140.1328125 214.12109375 140.1328125 C214.12109375 141.7828125 214.12109375 143.4328125 214.12109375 145.1328125 C214.78109375 145.1328125 215.44109375 145.1328125 216.12109375 145.1328125 C216.24226563 145.77347656 216.3634375 146.41414062 216.48828125 147.07421875 C217.25778565 151.04604529 218.06257548 154.92971968 219.18359375 158.8203125 C220.15383193 162.24848742 220.62786291 165.60973508 221.12109375 169.1328125 C221.45109375 169.4628125 221.78109375 169.7928125 222.12109375 170.1328125 C222.33657359 171.82522711 222.49209333 173.52536948 222.62109375 175.2265625 C222.70359375 176.25652344 222.78609375 177.28648437 222.87109375 178.34765625 C223.03776042 180.53776042 223.20442708 182.72786458 223.37109375 184.91796875 C223.45359375 185.94792969 223.53609375 186.97789062 223.62109375 188.0390625 C223.69328125 188.99103516 223.76546875 189.94300781 223.83984375 190.92382812 C223.88843038 193.10419435 223.88843038 193.10419435 225.12109375 194.1328125 C225.20953168 196.58111676 225.23638127 199.00101849 225.21875 201.44921875 C225.21662758 202.54580055 225.21662758 202.54580055 225.21446228 203.66453552 C225.20884783 206.00816882 225.19629297 208.35170789 225.18359375 210.6953125 C225.17858061 212.28059758 225.17401738 213.86588416 225.16992188 215.45117188 C225.15887372 219.3450886 225.14159947 223.23893455 225.12109375 227.1328125 C224.46109375 227.1328125 223.80109375 227.1328125 223.12109375 227.1328125 C223.13269531 228.11121094 223.14429688 229.08960938 223.15625 230.09765625 C223.20505285 237.1880138 223.1085194 244.09740472 222.12109375 251.1328125 C221.46109375 251.1328125 220.80109375 251.1328125 220.12109375 251.1328125 C219.79109375 255.7528125 219.46109375 260.3728125 219.12109375 265.1328125 C218.46109375 265.1328125 217.80109375 265.1328125 217.12109375 265.1328125 C217.07210938 265.71289062 217.023125 266.29296875 216.97265625 266.890625 C216.5245997 271.57204342 215.82307275 275.70766709 214.12109375 280.1328125 C213.46109375 280.1328125 212.80109375 280.1328125 212.12109375 280.1328125 C211.79109375 283.1028125 211.46109375 286.0728125 211.12109375 289.1328125 C210.46109375 289.1328125 209.80109375 289.1328125 209.12109375 289.1328125 C208.79109375 291.4428125 208.46109375 293.7528125 208.12109375 296.1328125 C207.46109375 296.1328125 206.80109375 296.1328125 206.12109375 296.1328125 C205.79109375 298.4428125 205.46109375 300.7528125 205.12109375 303.1328125 C204.46109375 303.1328125 203.80109375 303.1328125 203.12109375 303.1328125 C202.99734375 303.6896875 202.87359375 304.2465625 202.74609375 304.8203125 C202.0613252 307.35395614 201.12975612 309.71202282 200.12109375 312.1328125 C199.46109375 312.1328125 198.80109375 312.1328125 198.12109375 312.1328125 C197.79109375 313.7828125 197.46109375 315.4328125 197.12109375 317.1328125 C196.46109375 317.1328125 195.80109375 317.1328125 195.12109375 317.1328125 C195.05921875 317.8134375 194.99734375 318.4940625 194.93359375 319.1953125 C193.8570799 323.08732412 191.86444343 326.16726004 189.12109375 329.1328125 C188.46109375 329.1328125 187.80109375 329.1328125 187.12109375 329.1328125 C186.79109375 330.7828125 186.46109375 332.4328125 186.12109375 334.1328125 C185.46109375 334.1328125 184.80109375 334.1328125 184.12109375 334.1328125 C183.83234375 334.8959375 183.54359375 335.6590625 183.24609375 336.4453125 C182.12109375 339.1328125 182.12109375 339.1328125 180.12109375 342.1328125 C179.46109375 342.1328125 178.80109375 342.1328125 178.12109375 342.1328125 C178.12109375 343.1228125 178.12109375 344.1128125 178.12109375 345.1328125 C176.74609375 346.8203125 176.74609375 346.8203125 175.12109375 348.1328125 C174.46109375 348.1328125 173.80109375 348.1328125 173.12109375 348.1328125 C172.79109375 349.1228125 172.46109375 350.1128125 172.12109375 351.1328125 C171.46109375 351.1328125 170.80109375 351.1328125 170.12109375 351.1328125 C169.79109375 352.1228125 169.46109375 353.1128125 169.12109375 354.1328125 C168.46109375 354.1328125 167.80109375 354.1328125 167.12109375 354.1328125 C166.74984375 354.9990625 166.74984375 354.9990625 166.37109375 355.8828125 C164.93809387 358.46221229 163.33684699 360.19402842 161.12109375 362.1328125 C160.46109375 362.1328125 159.80109375 362.1328125 159.12109375 362.1328125 C158.79109375 363.1228125 158.46109375 364.1128125 158.12109375 365.1328125 C157.46109375 365.1328125 156.80109375 365.1328125 156.12109375 365.1328125 C155.79109375 366.1228125 155.46109375 367.1128125 155.12109375 368.1328125 C154.46109375 368.1328125 153.80109375 368.1328125 153.12109375 368.1328125 C152.79109375 369.1228125 152.46109375 370.1128125 152.12109375 371.1328125 C151.46109375 371.1328125 150.80109375 371.1328125 150.12109375 371.1328125 C150.12109375 371.7928125 150.12109375 372.4528125 150.12109375 373.1328125 C148.47037979 374.15893199 146.80139369 375.15589393 145.12109375 376.1328125 C144.31671875 376.968125 144.31671875 376.968125 143.49609375 377.8203125 C142.12109375 379.1328125 142.12109375 379.1328125 139.12109375 379.1328125 C139.12109375 379.7928125 139.12109375 380.4528125 139.12109375 381.1328125 C135.65955529 384.1328125 135.65955529 384.1328125 133.12109375 384.1328125 C133.12109375 384.7928125 133.12109375 385.4528125 133.12109375 386.1328125 C131.47109375 386.4628125 129.82109375 386.7928125 128.12109375 387.1328125 C128.12109375 387.7928125 128.12109375 388.4528125 128.12109375 389.1328125 C126.47109375 389.4628125 124.82109375 389.7928125 123.12109375 390.1328125 C123.12109375 390.7928125 123.12109375 391.4528125 123.12109375 392.1328125 C122.57839844 392.39835937 122.03570313 392.66390625 121.4765625 392.9375 C120.76113281 393.29070312 120.04570313 393.64390625 119.30859375 394.0078125 C118.60089844 394.35585938 117.89320313 394.70390625 117.1640625 395.0625 C114.90862957 396.1984611 114.90862957 396.1984611 112.12109375 398.1328125 C111.13109375 398.1328125 110.14109375 398.1328125 109.12109375 398.1328125 C109.12109375 398.7928125 109.12109375 399.4528125 109.12109375 400.1328125 C107.35250684 400.80541601 105.58113359 401.47069645 103.80859375 402.1328125 C102.82246094 402.5040625 101.83632813 402.8753125 100.8203125 403.2578125 C98.12109375 404.1328125 98.12109375 404.1328125 95.12109375 404.1328125 C95.12109375 404.7928125 95.12109375 405.4528125 95.12109375 406.1328125 C92.48109375 406.4628125 89.84109375 406.7928125 87.12109375 407.1328125 C87.12109375 407.7928125 87.12109375 408.4528125 87.12109375 409.1328125 C77.71107097 412.57700384 77.71107097 412.57700384 73.12109375 412.1328125 C73.12109375 412.7928125 73.12109375 413.4528125 73.12109375 414.1328125 C69.16109375 414.4628125 65.20109375 414.7928125 61.12109375 415.1328125 C61.12109375 415.7928125 61.12109375 416.4528125 61.12109375 417.1328125 C55.40069364 417.9648707 49.89869259 418.25317914 44.12109375 418.1328125 C44.12109375 418.7928125 44.12109375 419.4528125 44.12109375 420.1328125 C43.00089844 420.19339844 41.88070312 420.25398438 40.7265625 420.31640625 C39.25389391 420.40082674 37.78123831 420.48547399 36.30859375 420.5703125 C35.20161133 420.62928711 35.20161133 420.62928711 34.07226562 420.68945312 C30.89038033 420.87662285 28.15946997 421.12002043 25.12109375 422.1328125 C23.38346178 422.22632844 21.64248904 422.26351171 19.90234375 422.265625 C18.88785156 422.26691406 17.87335938 422.26820313 16.828125 422.26953125 C15.76980469 422.26566406 14.71148438 422.26179688 13.62109375 422.2578125 C12.56277344 422.26167969 11.50445313 422.26554687 10.4140625 422.26953125 C9.39957031 422.26824219 8.38507813 422.26695312 7.33984375 422.265625 C6.41107422 422.26449707 5.48230469 422.26336914 4.52539062 422.26220703 C2.12109375 422.1328125 2.12109375 422.1328125 -0.87890625 421.1328125 C-3.61179918 420.90483688 -6.32932829 420.71613063 -9.06640625 420.5703125 C-9.81599609 420.52712891 -10.56558594 420.48394531 -11.33789062 420.43945312 C-13.18469 420.33358565 -15.03177459 420.2327149 -16.87890625 420.1328125 C-16.87890625 419.4728125 -16.87890625 418.8128125 -16.87890625 418.1328125 C-17.43578125 418.14441406 -17.99265625 418.15601563 -18.56640625 418.16796875 C-23.77668968 418.22957683 -28.72270135 417.88280594 -33.87890625 417.1328125 C-33.87890625 416.4728125 -33.87890625 415.8128125 -33.87890625 415.1328125 C-35.36583984 415.1946875 -35.36583984 415.1946875 -36.8828125 415.2578125 C-41.17232709 415.12363414 -44.72680012 414.32076482 -48.81640625 413.1328125 C-49.50025391 412.94203125 -50.18410156 412.75125 -50.88867188 412.5546875 C-52.55435151 412.08876313 -54.216973 411.61192839 -55.87890625 411.1328125 C-55.87890625 410.4728125 -55.87890625 409.8128125 -55.87890625 409.1328125 C-57.52890625 409.1328125 -59.17890625 409.1328125 -60.87890625 409.1328125 C-60.87890625 408.4728125 -60.87890625 407.8128125 -60.87890625 407.1328125 C-63.51890625 406.8028125 -66.15890625 406.4728125 -68.87890625 406.1328125 C-68.87890625 405.4728125 -68.87890625 404.8128125 -68.87890625 404.1328125 C-71.18890625 403.8028125 -73.49890625 403.4728125 -75.87890625 403.1328125 C-75.87890625 402.4728125 -75.87890625 401.8128125 -75.87890625 401.1328125 C-77.08546875 401.04 -77.08546875 401.04 -78.31640625 400.9453125 C-83.04245135 399.86744257 -86.75404052 397.61689831 -90.87890625 395.1328125 C-90.87890625 394.4728125 -90.87890625 393.8128125 -90.87890625 393.1328125 C-92.85890625 392.8028125 -94.83890625 392.4728125 -96.87890625 392.1328125 C-96.87890625 391.4728125 -96.87890625 390.8128125 -96.87890625 390.1328125 C-98.19890625 389.8028125 -99.51890625 389.4728125 -100.87890625 389.1328125 C-100.87890625 388.4728125 -100.87890625 387.8128125 -100.87890625 387.1328125 C-102.52890625 386.8028125 -104.17890625 386.4728125 -105.87890625 386.1328125 C-105.87890625 385.4728125 -105.87890625 384.8128125 -105.87890625 384.1328125 C-106.86890625 384.1328125 -107.85890625 384.1328125 -108.87890625 384.1328125 C-108.87890625 383.4728125 -108.87890625 382.8128125 -108.87890625 382.1328125 C-109.45640625 381.8440625 -110.03390625 381.5553125 -110.62890625 381.2578125 C-112.71223958 380.21614583 -114.79557292 379.17447917 -116.87890625 378.1328125 C-116.87890625 377.4728125 -116.87890625 376.8128125 -116.87890625 376.1328125 C-118.08546875 375.730625 -118.08546875 375.730625 -119.31640625 375.3203125 C-120.16203125 374.9284375 -121.00765625 374.5365625 -121.87890625 374.1328125 C-122.37390625 372.6478125 -122.37390625 372.6478125 -122.87890625 371.1328125 C-123.86890625 370.8028125 -124.85890625 370.4728125 -125.87890625 370.1328125 C-125.87890625 369.4728125 -125.87890625 368.8128125 -125.87890625 368.1328125 C-126.47703125 368.0296875 -127.07515625 367.9265625 -127.69140625 367.8203125 C-130.19148911 367.03457217 -131.25425707 366.16362397 -132.87890625 364.1328125 C-132.87890625 363.4728125 -132.87890625 362.8128125 -132.87890625 362.1328125 C-133.71421875 361.8234375 -133.71421875 361.8234375 -134.56640625 361.5078125 C-137.1843174 359.95121668 -138.71373921 358.02653949 -140.578125 355.6484375 C-141.99273801 353.8968101 -141.99273801 353.8968101 -144.62890625 352.0078125 C-147.10764921 349.94219336 -147.25471114 349.14975555 -147.87890625 346.1328125 C-148.86890625 345.8028125 -149.85890625 345.4728125 -150.87890625 345.1328125 C-150.87890625 344.1428125 -150.87890625 343.1528125 -150.87890625 342.1328125 C-151.53890625 342.1328125 -152.19890625 342.1328125 -152.87890625 342.1328125 C-152.87890625 341.4728125 -152.87890625 340.8128125 -152.87890625 340.1328125 C-153.86890625 339.8028125 -154.85890625 339.4728125 -155.87890625 339.1328125 C-158.87890625 334.79947917 -158.87890625 334.79947917 -158.87890625 332.1328125 C-159.53890625 332.1328125 -160.19890625 332.1328125 -160.87890625 332.1328125 C-161.37390625 330.6478125 -161.37390625 330.6478125 -161.87890625 329.1328125 C-162.53890625 328.8028125 -163.19890625 328.4728125 -163.87890625 328.1328125 C-164.50390625 325.5703125 -164.50390625 325.5703125 -164.87890625 323.1328125 C-165.53890625 323.1328125 -166.19890625 323.1328125 -166.87890625 323.1328125 C-166.87890625 322.1428125 -166.87890625 321.1528125 -166.87890625 320.1328125 C-167.53890625 320.1328125 -168.19890625 320.1328125 -168.87890625 320.1328125 C-169.20890625 318.4828125 -169.53890625 316.8328125 -169.87890625 315.1328125 C-170.53890625 315.1328125 -171.19890625 315.1328125 -171.87890625 315.1328125 C-172.20890625 313.1528125 -172.53890625 311.1728125 -172.87890625 309.1328125 C-173.53890625 309.1328125 -174.19890625 309.1328125 -174.87890625 309.1328125 C-175.20890625 307.1528125 -175.53890625 305.1728125 -175.87890625 303.1328125 C-176.53890625 303.1328125 -177.19890625 303.1328125 -177.87890625 303.1328125 C-187.36169068 281.2825131 -187.36169068 281.2825131 -186.87890625 276.1328125 C-187.53890625 276.1328125 -188.19890625 276.1328125 -188.87890625 276.1328125 C-189.20890625 272.5028125 -189.53890625 268.8728125 -189.87890625 265.1328125 C-190.53890625 265.1328125 -191.19890625 265.1328125 -191.87890625 265.1328125 C-193.73830504 257.35211399 -195.29357967 250.14983196 -194.87890625 242.1328125 C-195.53890625 242.1328125 -196.19890625 242.1328125 -196.87890625 242.1328125 C-197.75324033 232.22236521 -198.03643 222.40689302 -198.00927734 212.46484375 C-198.0039121 210.13535051 -198.00926295 207.80604999 -198.015625 205.4765625 C-198.01925655 196.31344508 -197.68468142 187.26615475 -196.87890625 178.1328125 C-196.21890625 178.1328125 -195.55890625 178.1328125 -194.87890625 178.1328125 C-194.89050781 177.56433594 -194.90210938 176.99585938 -194.9140625 176.41015625 C-194.97113819 171.52610766 -194.69847397 166.94777285 -193.87890625 162.1328125 C-193.21890625 162.1328125 -192.55890625 162.1328125 -191.87890625 162.1328125 C-191.92015625 161.0809375 -191.96140625 160.0290625 -192.00390625 158.9453125 C-191.88120337 155.20287478 -191.27609525 153.50935259 -189.87890625 150.1328125 C-189.14633308 147.70248764 -188.43916442 145.26439998 -187.75390625 142.8203125 C-187.40070313 141.56605469 -187.0475 140.31179687 -186.68359375 139.01953125 C-186.41804688 138.06691406 -186.1525 137.11429688 -185.87890625 136.1328125 C-185.21890625 136.1328125 -184.55890625 136.1328125 -183.87890625 136.1328125 C-183.38390625 132.1728125 -183.38390625 132.1728125 -182.87890625 128.1328125 C-182.21890625 128.1328125 -181.55890625 128.1328125 -180.87890625 128.1328125 C-180.75515625 127.2459375 -180.63140625 126.3590625 -180.50390625 125.4453125 C-179.93477889 122.42893748 -179.11276189 119.92955196 -177.87890625 117.1328125 C-177.21890625 117.1328125 -176.55890625 117.1328125 -175.87890625 117.1328125 C-175.54890625 115.1528125 -175.21890625 113.1728125 -174.87890625 111.1328125 C-174.21890625 111.1328125 -173.55890625 111.1328125 -172.87890625 111.1328125 C-172.54890625 109.4828125 -172.21890625 107.8328125 -171.87890625 106.1328125 C-171.21890625 106.1328125 -170.55890625 106.1328125 -169.87890625 106.1328125 C-169.54890625 104.1528125 -169.21890625 102.1728125 -168.87890625 100.1328125 C-168.21890625 100.1328125 -167.55890625 100.1328125 -166.87890625 100.1328125 C-166.87890625 99.4728125 -166.87890625 98.8128125 -166.87890625 98.1328125 C-166.21890625 98.1328125 -165.55890625 98.1328125 -164.87890625 98.1328125 C-164.54890625 96.4828125 -164.21890625 94.8328125 -163.87890625 93.1328125 C-163.21890625 93.1328125 -162.55890625 93.1328125 -161.87890625 93.1328125 C-161.38390625 91.1528125 -161.38390625 91.1528125 -160.87890625 89.1328125 C-160.21890625 89.1328125 -159.55890625 89.1328125 -158.87890625 89.1328125 C-158.54890625 87.4828125 -158.21890625 85.8328125 -157.87890625 84.1328125 C-157.21890625 84.1328125 -156.55890625 84.1328125 -155.87890625 84.1328125 C-155.61078125 83.3284375 -155.34265625 82.5240625 -155.06640625 81.6953125 C-154.67453125 80.8496875 -154.28265625 80.0040625 -153.87890625 79.1328125 C-152.88890625 78.8028125 -151.89890625 78.4728125 -150.87890625 78.1328125 C-149.7537454 76.29996807 -149.7537454 76.29996807 -148.87890625 74.1328125 C-148.21223958 72.79947917 -147.54557292 71.46614583 -146.87890625 70.1328125 C-146.21890625 70.1328125 -145.55890625 70.1328125 -144.87890625 70.1328125 C-144.38390625 68.6478125 -144.38390625 68.6478125 -143.87890625 67.1328125 C-143.21890625 67.1328125 -142.55890625 67.1328125 -141.87890625 67.1328125 C-141.87890625 66.4728125 -141.87890625 65.8128125 -141.87890625 65.1328125 C-140.22887797 63.77894314 -138.56146755 62.44603108 -136.87890625 61.1328125 C-136.38390625 60.1428125 -136.38390625 60.1428125 -135.87890625 59.1328125 C-135.21890625 59.1328125 -134.55890625 59.1328125 -133.87890625 59.1328125 C-133.54890625 58.1428125 -133.21890625 57.1528125 -132.87890625 56.1328125 C-132.21890625 56.1328125 -131.55890625 56.1328125 -130.87890625 56.1328125 C-130.54890625 55.1428125 -130.21890625 54.1528125 -129.87890625 53.1328125 C-129.21890625 53.1328125 -128.55890625 53.1328125 -127.87890625 53.1328125 C-127.87890625 52.4728125 -127.87890625 51.8128125 -127.87890625 51.1328125 C-122.46714154 47.1328125 -122.46714154 47.1328125 -119.87890625 47.1328125 C-119.50765625 46.17375 -119.50765625 46.17375 -119.12890625 45.1953125 C-117.87890625 43.1328125 -117.87890625 43.1328125 -115.75390625 42.3828125 C-115.13515625 42.3003125 -114.51640625 42.2178125 -113.87890625 42.1328125 C-113.87890625 41.4728125 -113.87890625 40.8128125 -113.87890625 40.1328125 C-108.46714154 36.1328125 -108.46714154 36.1328125 -105.87890625 36.1328125 C-105.87890625 35.4728125 -105.87890625 34.8128125 -105.87890625 34.1328125 C-104.88890625 34.1328125 -103.89890625 34.1328125 -102.87890625 34.1328125 C-102.87890625 33.4728125 -102.87890625 32.8128125 -102.87890625 32.1328125 C-101.22890625 31.8028125 -99.57890625 31.4728125 -97.87890625 31.1328125 C-97.87890625 30.4728125 -97.87890625 29.8128125 -97.87890625 29.1328125 C-96.61199118 28.45872942 -95.34019876 27.79380753 -94.06640625 27.1328125 C-93.35871094 26.7615625 -92.65101563 26.3903125 -91.921875 26.0078125 C-89.87890625 25.1328125 -89.87890625 25.1328125 -86.87890625 25.1328125 C-86.87890625 24.4728125 -86.87890625 23.8128125 -86.87890625 23.1328125 C-84.89890625 22.8028125 -82.91890625 22.4728125 -80.87890625 22.1328125 C-80.87890625 21.4728125 -80.87890625 20.8128125 -80.87890625 20.1328125 C-79.88890625 20.1328125 -78.89890625 20.1328125 -77.87890625 20.1328125 C-77.87890625 19.4728125 -77.87890625 18.8128125 -77.87890625 18.1328125 C-76.92628906 17.79507813 -75.97367187 17.45734375 -74.9921875 17.109375 C-73.72524215 16.65890554 -72.45831609 16.20838183 -71.19140625 15.7578125 C-69.32935547 15.09652344 -69.32935547 15.09652344 -67.4296875 14.421875 C-65.32368694 13.65732034 -63.23013063 12.85382962 -61.171875 11.96875 C-58.87890625 11.1328125 -58.87890625 11.1328125 -54.87890625 11.1328125 C-54.87890625 10.4728125 -54.87890625 9.8128125 -54.87890625 9.1328125 C-52.00496127 8.31641932 -49.12985495 7.50459109 -46.25390625 6.6953125 C-45.44566406 6.46521484 -44.63742187 6.23511719 -43.8046875 5.99804688 C-36.69830559 4.00479341 -30.25755158 3.00559448 -22.87890625 3.1328125 C-22.87890625 2.4728125 -22.87890625 1.8128125 -22.87890625 1.1328125 C-15.23193176 0.30959818 -7.68840996 -0.01514779 0 0 Z " fill="#3eab95" transform="translate(537.87890625,108.8671875)"/>
    <path d="M0 0 C2.39569206 -0.00217439 4.79091306 -0.02036026 7.18652344 -0.03930664 C15.02419068 -0.06840963 22.74723696 0.17407585 30.53808594 1.07202148 C31.5569841 1.1886187 31.5569841 1.1886187 32.59646606 1.30757141 C36.97629911 1.86940923 41.0798782 2.88871371 45.29589844 4.18530273 C46.15054688 4.43151367 47.00519531 4.67772461 47.88574219 4.93139648 C53.11944055 6.47276855 58.21072774 8.20773635 63.29589844 10.18530273 C63.29589844 10.84530273 63.29589844 11.50530273 63.29589844 12.18530273 C65.60589844 12.51530273 67.91589844 12.84530273 70.29589844 13.18530273 C70.29589844 13.84530273 70.29589844 14.50530273 70.29589844 15.18530273 C72.27589844 15.51530273 74.25589844 15.84530273 76.29589844 16.18530273 C76.29589844 16.84530273 76.29589844 17.50530273 76.29589844 18.18530273 C77.28589844 18.18530273 78.27589844 18.18530273 79.29589844 18.18530273 C79.29589844 18.84530273 79.29589844 19.50530273 79.29589844 20.18530273 C80.94589844 20.51530273 82.59589844 20.84530273 84.29589844 21.18530273 C84.29589844 21.84530273 84.29589844 22.50530273 84.29589844 23.18530273 C85.03839844 23.28842773 85.78089844 23.39155273 86.54589844 23.49780273 C89.49325034 24.23464071 91.07972917 25.13329416 93.29589844 27.18530273 C93.29589844 27.84530273 93.29589844 28.50530273 93.29589844 29.18530273 C94.28589844 29.18530273 95.27589844 29.18530273 96.29589844 29.18530273 C96.29589844 29.84530273 96.29589844 30.50530273 96.29589844 31.18530273 C97.61589844 31.51530273 98.93589844 31.84530273 100.29589844 32.18530273 C100.29589844 32.84530273 100.29589844 33.50530273 100.29589844 34.18530273 C101.61589844 34.51530273 102.93589844 34.84530273 104.29589844 35.18530273 C104.29589844 35.84530273 104.29589844 36.50530273 104.29589844 37.18530273 C105.28589844 37.51530273 106.27589844 37.84530273 107.29589844 38.18530273 C107.29589844 38.84530273 107.29589844 39.50530273 107.29589844 40.18530273 C108.28589844 40.51530273 109.27589844 40.84530273 110.29589844 41.18530273 C110.29589844 41.84530273 110.29589844 42.50530273 110.29589844 43.18530273 C110.95589844 43.18530273 111.61589844 43.18530273 112.29589844 43.18530273 C112.29589844 43.84530273 112.29589844 44.50530273 112.29589844 45.18530273 C113.28589844 45.51530273 114.27589844 45.84530273 115.29589844 46.18530273 C115.29589844 46.84530273 115.29589844 47.50530273 115.29589844 48.18530273 C116.28589844 48.51530273 117.27589844 48.84530273 118.29589844 49.18530273 C118.29589844 49.84530273 118.29589844 50.50530273 118.29589844 51.18530273 C119.28589844 51.51530273 120.27589844 51.84530273 121.29589844 52.18530273 C121.29589844 52.84530273 121.29589844 53.50530273 121.29589844 54.18530273 C121.95589844 54.18530273 122.61589844 54.18530273 123.29589844 54.18530273 C124.80371094 55.82983398 124.80371094 55.82983398 126.42089844 57.99780273 C126.95972656 58.70549805 127.49855469 59.41319336 128.05371094 60.14233398 C129.29589844 62.18530273 129.29589844 62.18530273 129.29589844 65.18530273 C129.95589844 65.18530273 130.61589844 65.18530273 131.29589844 65.18530273 C131.62589844 66.83530273 131.95589844 68.48530273 132.29589844 70.18530273 C133.28589844 70.51530273 134.27589844 70.84530273 135.29589844 71.18530273 C135.29589844 72.17530273 135.29589844 73.16530273 135.29589844 74.18530273 C135.95589844 74.18530273 136.61589844 74.18530273 137.29589844 74.18530273 C139.62923177 78.8519694 141.9625651 83.51863607 144.29589844 88.18530273 C144.70066406 88.91233398 145.10542969 89.63936523 145.52246094 90.38842773 C146.29589844 92.18530273 146.29589844 92.18530273 146.29589844 96.18530273 C146.95589844 96.18530273 147.61589844 96.18530273 148.29589844 96.18530273 C152.19317675 105.84377508 152.19317675 105.84377508 152.29589844 111.18530273 C148.95223615 115.22556134 144.49650586 117.88329116 140.16113281 120.74194336 C136.45258394 123.23883099 133.43204418 126.01614493 130.29589844 129.18530273 C128.96483222 129.52757691 127.63189765 129.86282017 126.29589844 130.18530273 C125.59652312 131.50177392 124.9286071 132.83552425 124.29589844 134.18530273 C123.30589844 134.51530273 122.31589844 134.84530273 121.29589844 135.18530273 C120.96589844 136.17530273 120.63589844 137.16530273 120.29589844 138.18530273 C119.63589844 138.18530273 118.97589844 138.18530273 118.29589844 138.18530273 C117.96589844 139.17530273 117.63589844 140.16530273 117.29589844 141.18530273 C116.63589844 141.18530273 115.97589844 141.18530273 115.29589844 141.18530273 C115.29589844 141.84530273 115.29589844 142.50530273 115.29589844 143.18530273 C113.92089844 144.81030273 113.92089844 144.81030273 112.29589844 146.18530273 C111.63589844 146.18530273 110.97589844 146.18530273 110.29589844 146.18530273 C109.96589844 147.17530273 109.63589844 148.16530273 109.29589844 149.18530273 C108.63589844 149.18530273 107.97589844 149.18530273 107.29589844 149.18530273 C106.96589844 150.17530273 106.63589844 151.16530273 106.29589844 152.18530273 C105.63589844 152.18530273 104.97589844 152.18530273 104.29589844 152.18530273 C103.96589844 153.17530273 103.63589844 154.16530273 103.29589844 155.18530273 C102.63589844 155.18530273 101.97589844 155.18530273 101.29589844 155.18530273 C100.92464844 155.98967773 100.92464844 155.98967773 100.54589844 156.81030273 C96.43875558 164.61387416 96.43875558 164.61387416 93.29589844 166.18530273 C92.96589844 167.17530273 92.63589844 168.16530273 92.29589844 169.18530273 C91.63589844 169.18530273 90.97589844 169.18530273 90.29589844 169.18530273 C89.08961836 171.51744421 88.13042464 173.68172412 87.29589844 176.18530273 C86.63589844 176.51530273 85.97589844 176.84530273 85.29589844 177.18530273 C84.96589844 178.17530273 84.63589844 179.16530273 84.29589844 180.18530273 C83.63589844 180.18530273 82.97589844 180.18530273 82.29589844 180.18530273 C81.95558594 181.14436523 81.95558594 181.14436523 81.60839844 182.12280273 C79.81024018 186.31850534 77.55685823 190.22430829 75.29589844 194.18530273 C74.63589844 194.18530273 73.97589844 194.18530273 73.29589844 194.18530273 C73.19792969 194.70995117 73.09996094 195.23459961 72.99902344 195.77514648 C72.06120266 198.98978769 70.57633757 201.77010051 69.04589844 204.74780273 C63.63511046 215.23536841 63.63511046 215.23536841 59.29589844 226.18530273 C58.63589844 226.18530273 57.97589844 226.18530273 57.29589844 226.18530273 C56.96589844 228.82530273 56.63589844 231.46530273 56.29589844 234.18530273 C55.63589844 234.18530273 54.97589844 234.18530273 54.29589844 234.18530273 C53.96589844 237.15530273 53.63589844 240.12530273 53.29589844 243.18530273 C52.63589844 243.18530273 51.97589844 243.18530273 51.29589844 243.18530273 C51.25851562 243.8259668 51.22113281 244.46663086 51.18261719 245.12670898 C50.81492144 249.96443143 50.23294204 253.65252573 48.06152344 258.04858398 C46.22813165 263.16524371 45.92947624 268.81107221 45.29589844 274.18530273 C44.63589844 274.18530273 43.97589844 274.18530273 43.29589844 274.18530273 C42.96589844 281.44530273 42.63589844 288.70530273 42.29589844 296.18530273 C41.63589844 296.18530273 40.97589844 296.18530273 40.29589844 296.18530273 C40.31330078 297.1250293 40.31330078 297.1250293 40.33105469 298.08374023 C40.34007812 298.90100586 40.34910156 299.71827148 40.35839844 300.56030273 C40.37 301.37241211 40.38160156 302.18452148 40.39355469 303.02124023 C40.29589844 305.18530273 40.29589844 305.18530273 39.29589844 307.18530273 C37.48339844 307.56420898 37.48339844 307.56420898 35.29589844 307.74780273 C32.50657785 307.81195682 32.50657785 307.81195682 30.29589844 309.18530273 C22.06309893 310.72353633 13.48066731 310.33843668 5.13720703 310.31567383 C2.80071525 310.31031378 0.46441565 310.31564702 -1.87207031 310.32202148 C-18.57510018 310.33045826 -18.57510018 310.33045826 -24.70410156 309.18530273 C-25.03410156 308.85530273 -25.36410156 308.52530273 -25.70410156 308.18530273 C-26.75597656 308.04092773 -27.80785156 307.89655273 -28.89160156 307.74780273 C-32.41915652 307.22734381 -35.35635453 306.37096314 -38.70410156 305.18530273 C-41.03421065 304.50745282 -43.3676998 303.84113481 -45.70410156 303.18530273 C-47.01679489 302.81098003 -48.32930143 302.43600156 -49.64160156 302.06030273 C-50.65222656 301.77155273 -51.66285156 301.48280273 -52.70410156 301.18530273 C-52.70410156 300.52530273 -52.70410156 299.86530273 -52.70410156 299.18530273 C-55.34410156 298.85530273 -57.98410156 298.52530273 -60.70410156 298.18530273 C-60.70410156 297.52530273 -60.70410156 296.86530273 -60.70410156 296.18530273 C-61.48785156 296.12342773 -62.27160156 296.06155273 -63.07910156 295.99780273 C-68.05698949 294.88206923 -72.2286385 292.58224046 -76.70410156 290.18530273 C-76.70410156 289.52530273 -76.70410156 288.86530273 -76.70410156 288.18530273 C-77.26097656 288.08217773 -77.81785156 287.97905273 -78.39160156 287.87280273 C-81.18101167 287.04351865 -83.31800796 285.84231218 -85.70410156 284.18530273 C-85.70410156 283.52530273 -85.70410156 282.86530273 -85.70410156 282.18530273 C-86.69410156 282.18530273 -87.68410156 282.18530273 -88.70410156 282.18530273 C-88.70410156 281.52530273 -88.70410156 280.86530273 -88.70410156 280.18530273 C-89.28160156 279.89655273 -89.85910156 279.60780273 -90.45410156 279.31030273 C-92.5374349 278.26863607 -94.62076823 277.2269694 -96.70410156 276.18530273 C-96.70410156 275.52530273 -96.70410156 274.86530273 -96.70410156 274.18530273 C-97.69410156 273.85530273 -98.68410156 273.52530273 -99.70410156 273.18530273 C-99.70410156 272.52530273 -99.70410156 271.86530273 -99.70410156 271.18530273 C-100.69410156 270.85530273 -101.68410156 270.52530273 -102.70410156 270.18530273 C-102.70410156 269.52530273 -102.70410156 268.86530273 -102.70410156 268.18530273 C-103.69410156 268.18530273 -104.68410156 268.18530273 -105.70410156 268.18530273 C-105.70410156 267.52530273 -105.70410156 266.86530273 -105.70410156 266.18530273 C-106.36410156 266.18530273 -107.02410156 266.18530273 -107.70410156 266.18530273 C-110.70410156 262.72376427 -110.70410156 262.72376427 -110.70410156 260.18530273 C-111.69410156 259.85530273 -112.68410156 259.52530273 -113.70410156 259.18530273 C-113.70410156 258.52530273 -113.70410156 257.86530273 -113.70410156 257.18530273 C-114.36410156 257.18530273 -115.02410156 257.18530273 -115.70410156 257.18530273 C-117.10644531 255.54077148 -117.10644531 255.54077148 -118.64160156 253.37280273 C-120.14015399 251.26869715 -121.50254136 249.37289803 -123.39550781 247.61108398 C-124.70410156 246.18530273 -124.70410156 246.18530273 -124.70410156 243.18530273 C-125.36410156 243.18530273 -126.02410156 243.18530273 -126.70410156 243.18530273 C-127.03410156 241.53530273 -127.36410156 239.88530273 -127.70410156 238.18530273 C-128.36410156 238.18530273 -129.02410156 238.18530273 -129.70410156 238.18530273 C-132.44785827 235.23048782 -132.70410156 234.41058366 -132.70410156 230.18530273 C-133.36410156 230.18530273 -134.02410156 230.18530273 -134.70410156 230.18530273 C-135.03410156 228.20530273 -135.36410156 226.22530273 -135.70410156 224.18530273 C-136.36410156 224.18530273 -137.02410156 224.18530273 -137.70410156 224.18530273 C-138.03410156 222.20530273 -138.36410156 220.22530273 -138.70410156 218.18530273 C-139.36410156 218.18530273 -140.02410156 218.18530273 -140.70410156 218.18530273 C-141.71660931 215.64800653 -142.7141973 213.10640785 -143.70410156 210.56030273 C-143.99027344 209.84745117 -144.27644531 209.13459961 -144.57128906 208.40014648 C-146.20309213 204.16522901 -147.05367142 200.80253799 -146.70410156 196.18530273 C-147.36410156 196.18530273 -148.02410156 196.18530273 -148.70410156 196.18530273 C-148.836875 195.2584668 -148.96964844 194.33163086 -149.10644531 193.37670898 C-149.28304687 192.17916992 -149.45964844 190.98163086 -149.64160156 189.74780273 C-149.815625 188.5528418 -149.98964844 187.35788086 -150.16894531 186.12670898 C-150.39395369 183.30574598 -150.39395369 183.30574598 -151.70410156 182.18530273 C-153.05725186 173.84193472 -152.85919069 165.2894454 -152.83447266 156.8605957 C-152.82911023 154.68881248 -152.83445146 152.51723599 -152.84082031 150.34545898 C-152.84413769 142.58013099 -152.61047843 134.90705553 -151.70410156 127.18530273 C-151.04410156 127.18530273 -150.38410156 127.18530273 -149.70410156 127.18530273 C-149.65511719 126.31647461 -149.60613281 125.44764648 -149.55566406 124.55249023 C-149.48089844 123.40006836 -149.40613281 122.24764648 -149.32910156 121.06030273 C-149.25949219 119.92334961 -149.18988281 118.78639648 -149.11816406 117.61499023 C-148.70237194 114.17097625 -147.91628764 111.42871955 -146.70410156 108.18530273 C-146.46481934 107.53577637 -146.22553711 106.88625 -145.97900391 106.21704102 C-145.18833818 104.07785371 -144.38537632 101.94365175 -143.57910156 99.81030273 C-143.30195313 99.07424805 -143.02480469 98.33819336 -142.73925781 97.57983398 C-142.06187934 95.78127734 -141.38313123 93.98323663 -140.70410156 92.18530273 C-140.04410156 92.18530273 -139.38410156 92.18530273 -138.70410156 92.18530273 C-138.37410156 89.87530273 -138.04410156 87.56530273 -137.70410156 85.18530273 C-137.04410156 85.18530273 -136.38410156 85.18530273 -135.70410156 85.18530273 C-135.37410156 83.20530273 -135.04410156 81.22530273 -134.70410156 79.18530273 C-134.04410156 79.18530273 -133.38410156 79.18530273 -132.70410156 79.18530273 C-132.37410156 77.53530273 -132.04410156 75.88530273 -131.70410156 74.18530273 C-131.04410156 74.18530273 -130.38410156 74.18530273 -129.70410156 74.18530273 C-129.70410156 73.19530273 -129.70410156 72.20530273 -129.70410156 71.18530273 C-129.04410156 71.18530273 -128.38410156 71.18530273 -127.70410156 71.18530273 C-127.60097656 70.62842773 -127.49785156 70.07155273 -127.39160156 69.49780273 C-126.56231748 66.70839263 -125.36111101 64.57139633 -123.70410156 62.18530273 C-123.04410156 62.18530273 -122.38410156 62.18530273 -121.70410156 62.18530273 C-121.43597656 61.38092773 -121.16785156 60.57655273 -120.89160156 59.74780273 C-120.49972656 58.90217773 -120.10785156 58.05655273 -119.70410156 57.18530273 C-118.71410156 56.85530273 -117.72410156 56.52530273 -116.70410156 56.18530273 C-116.51847656 55.28811523 -116.51847656 55.28811523 -116.32910156 54.37280273 C-115.41777038 51.18314361 -113.29820426 50.17612573 -110.70410156 48.18530273 C-109.98222656 47.27780273 -109.26035156 46.37030273 -108.51660156 45.43530273 C-107.91847656 44.69280273 -107.32035156 43.95030273 -106.70410156 43.18530273 C-106.04410156 43.18530273 -105.38410156 43.18530273 -104.70410156 43.18530273 C-104.70410156 42.52530273 -104.70410156 41.86530273 -104.70410156 41.18530273 C-103.06805961 39.81456488 -101.39732095 38.48475017 -99.70410156 37.18530273 C-99.16785156 36.60780273 -98.63160156 36.03030273 -98.07910156 35.43530273 C-96.70410156 34.18530273 -96.70410156 34.18530273 -93.70410156 34.18530273 C-93.37410156 33.19530273 -93.04410156 32.20530273 -92.70410156 31.18530273 C-92.04410156 31.18530273 -91.38410156 31.18530273 -90.70410156 31.18530273 C-90.70410156 30.52530273 -90.70410156 29.86530273 -90.70410156 29.18530273 C-88.87597656 27.67749023 -88.87597656 27.67749023 -86.45410156 26.06030273 C-85.27074219 25.25206055 -85.27074219 25.25206055 -84.06347656 24.42749023 C-81.70410156 23.18530273 -81.70410156 23.18530273 -77.70410156 23.18530273 C-77.20910156 21.70030273 -77.20910156 21.70030273 -76.70410156 20.18530273 C-75.71410156 20.18530273 -74.72410156 20.18530273 -73.70410156 20.18530273 C-73.70410156 19.52530273 -73.70410156 18.86530273 -73.70410156 18.18530273 C-67.07910156 15.18530273 -67.07910156 15.18530273 -63.70410156 15.18530273 C-63.70410156 14.52530273 -63.70410156 13.86530273 -63.70410156 13.18530273 C-60.73410156 12.69030273 -60.73410156 12.69030273 -57.70410156 12.18530273 C-57.70410156 11.52530273 -57.70410156 10.86530273 -57.70410156 10.18530273 C-55.06410156 9.85530273 -52.42410156 9.52530273 -49.70410156 9.18530273 C-49.70410156 8.52530273 -49.70410156 7.86530273 -49.70410156 7.18530273 C-48.6303125 6.91975586 -47.55652344 6.65420898 -46.45019531 6.38061523 C-45.01398147 6.02390853 -43.57778445 5.66713408 -42.14160156 5.31030273 C-41.43712891 5.1362793 -40.73265625 4.96225586 -40.00683594 4.78295898 C-39.30751953 4.60893555 -38.60820312 4.43491211 -37.88769531 4.25561523 C-37.1785498 4.07933594 -36.4694043 3.90305664 -35.73876953 3.72143555 C-33.93066603 3.24500223 -32.1448776 2.6856216 -30.36425781 2.11499023 C-20.49061051 -0.39293726 -10.12482209 -0.00102354 0 0 Z " fill="#3eab95" transform="translate(261.7041015625,-0.185302734375)"/>
    <path d="M0 0 C4.62 0 9.24 0 14 0 C14 0.66 14 1.32 14 2 C14.99 2.33 15.98 2.66 17 3 C17 3.66 17 4.32 17 5 C17.99 5 18.98 5 20 5 C20 5.66 20 6.32 20 7 C20.598125 7.103125 21.19625 7.20625 21.8125 7.3125 C24.31258286 8.09824033 25.37535082 8.96918853 27 11 C27 11.66 27 12.32 27 13 C27.556875 13.0825 28.11375 13.165 28.6875 13.25 C31.69256318 14.22461509 33.57254822 16.00824469 36 18 C36.99 18.33 37.98 18.66 39 19 C39 19.66 39 20.32 39 21 C40.65 21.33 42.3 21.66 44 22 C44 22.66 44 23.32 44 24 C45.65 24.33 47.3 24.66 49 25 C49 25.66 49 26.32 49 27 C49.556875 27.12375 50.11375 27.2475 50.6875 27.375 C53.22114364 28.05976855 55.57921032 28.99133763 58 30 C58 30.66 58 31.32 58 32 C60.97 32.495 60.97 32.495 64 33 C64 33.66 64 34.32 64 35 C66.64 35.33 69.28 35.66 72 36 C72 36.66 72 37.32 72 38 C73.19625 38.12375 74.3925 38.2475 75.625 38.375 C79.27596813 38.82325054 82.54524899 39.70446837 86 41 C86 41.66 86 42.32 86 43 C89.96 43.33 93.92 43.66 98 44 C98 44.66 98 45.32 98 46 C103.94 46.33 109.88 46.66 116 47 C116 47.66 116 48.32 116 49 C129.86 49 143.72 49 158 49 C158 48.34 158 47.68 158 47 C160.97 47 163.94 47 167 47 C167 47.66 167 48.32 167 49 C168.65 49.33 170.3 49.66 172 50 C172 50.66 172 51.32 172 52 C172.99 52.33 173.98 52.66 175 53 C175 53.66 175 54.32 175 55 C175.66 55 176.32 55 177 55 C177.33 61.93 177.66 68.86 178 76 C178.66 76 179.32 76 180 76 C180.10957031 76.92941406 180.21914063 77.85882813 180.33203125 78.81640625 C181.12288492 86.5006335 181.12288492 86.5006335 183.5625 93.75 C185.48857422 98.10460259 185.724923 102.28574938 186 107 C186.66 107 187.32 107 188 107 C188.33 109.97 188.66 112.94 189 116 C189.66 116 190.32 116 191 116 C191.33 118.64 191.66 121.28 192 124 C192.66 124 193.32 124 194 124 C194.50615298 125.26839526 195.00469099 126.53983102 195.5 127.8125 C195.91765625 128.87404297 195.91765625 128.87404297 196.34375 129.95703125 C197 132 197 132 197 135 C197.66 135 198.32 135 199 135 C199.33 136.98 199.66 138.96 200 141 C200.66 141 201.32 141 202 141 C202.33 142.98 202.66 144.96 203 147 C203.66 147 204.32 147 205 147 C205.33 148.98 205.66 150.96 206 153 C206.66 153 207.32 153 208 153 C210.04169485 155.90548882 211 157.40142046 211 161 C211.66 161 212.32 161 213 161 C213.33 162.65 213.66 164.3 214 166 C214.66 166 215.32 166 216 166 C216.33 167.65 216.66 169.3 217 171 C217.66 171 218.32 171 219 171 C217.515 177.93 217.515 177.93 216 185 C214.35 185.33 212.7 185.66 211 186 C210.67 186.99 210.34 187.98 210 189 C205.66666667 192 205.66666667 192 203 192 C203 192.66 203 193.32 203 194 C202.01 194 201.02 194 200 194 C199.67 194.99 199.34 195.98 199 197 C194.66666667 200 194.66666667 200 192 200 C191.67 200.99 191.34 201.98 191 203 C189.33333333 203.66666667 187.66666667 204.33333333 186 205 C185.67 205.99 185.34 206.98 185 208 C182.41927097 210.32265612 181.54823932 211 178 211 C177.67 211.99 177.34 212.98 177 214 C176.34 214 175.68 214 175 214 C174.67 214.99 174.34 215.98 174 217 C173.34 217 172.68 217 172 217 C172 217.66 172 218.32 172 219 C168.53846154 222 168.53846154 222 166 222 C166 222.66 166 223.32 166 224 C164.34997172 225.35386936 162.6825613 226.68678142 161 228 C160.67 228.66 160.34 229.32 160 230 C159.34 230 158.68 230 158 230 C158 230.66 158 231.32 158 232 C156.33784732 233.33895632 154.67036393 234.67130142 153 236 C152.360625 236.804375 151.72125 237.60875 151.0625 238.4375 C146.11879886 244.57967414 146.11879886 244.57967414 143 246 C138.63409683 246.41629589 134.37129412 246.29185198 130 246 C130 245.34 130 244.68 130 244 C129.34 244 128.68 244 128 244 C126.66104368 242.33784732 125.32869858 240.67036393 124 239 C123.0925 238.278125 122.185 237.55625 121.25 236.8125 C120.5075 236.214375 119.765 235.61625 119 235 C119 234.34 119 233.68 119 233 C118.01 232.67 117.02 232.34 116 232 C116 231.34 116 230.68 116 230 C115.34 230 114.68 230 114 230 C112.66104368 228.33784732 111.32869858 226.67036393 110 225 C109.0925 224.278125 108.185 223.55625 107.25 222.8125 C106.5075 222.214375 105.765 221.61625 105 221 C105 220.34 105 219.68 105 219 C104.34 219 103.68 219 103 219 C101.66104368 217.33784732 100.32869858 215.67036393 99 214 C98.0925 213.278125 97.185 212.55625 96.25 211.8125 C95.5075 211.214375 94.765 210.61625 94 210 C94 209.34 94 208.68 94 208 C93.01 207.67 92.02 207.34 91 207 C91 206.34 91 205.68 91 205 C90.34 205 89.68 205 89 205 C87.81853044 203.85228671 86.6432713 202.69715787 85.5078125 201.50390625 C83.2694785 199.27137104 80.8126482 197.31768373 78.35546875 195.33203125 C77.90816406 194.89246094 77.46085938 194.45289063 77 194 C77 193.34 77 192.68 77 192 C76.01 191.67 75.02 191.34 74 191 C74 190.34 74 189.68 74 189 C73.01 188.67 72.02 188.34 71 188 C71 187.34 71 186.68 71 186 C70.01 185.67 69.02 185.34 68 185 C68 184.34 68 183.68 68 183 C67.34 183 66.68 183 66 183 C66 182.34 66 181.68 66 181 C65.01 180.67 64.02 180.34 63 180 C63 179.34 63 178.68 63 178 C62.01 177.67 61.02 177.34 60 177 C60 176.34 60 175.68 60 175 C59.01 174.67 58.02 174.34 57 174 C57 173.34 57 172.68 57 172 C56.360625 171.731875 55.72125 171.46375 55.0625 171.1875 C53 170 53 170 52 167 C51.01 166.67 50.02 166.34 49 166 C49 165.34 49 164.68 49 164 C48.01 163.67 47.02 163.34 46 163 C46 162.34 46 161.68 46 161 C45.4225 160.7525 44.845 160.505 44.25 160.25 C41.67060021 158.81700012 39.93878408 157.21575324 38 155 C38 154.34 38 153.68 38 153 C37.01 152.67 36.02 152.34 35 152 C35 151.34 35 150.68 35 150 C34.01 149.67 33.02 149.34 32 149 C32 148.34 32 147.68 32 147 C31.4225 146.7525 30.845 146.505 30.25 146.25 C27.67060021 144.81700012 25.93878408 143.21575324 24 141 C24 140.34 24 139.68 24 139 C20.37 139 16.74 139 13 139 C13 139.66 13 140.32 13 141 C12.34 141 11.68 141 11 141 C10.67 141.99 10.34 142.98 10 144 C9.34 144 8.68 144 8 144 C7.67 144.99 7.34 145.98 7 147 C6.34 147 5.68 147 5 147 C5 147.66 5 148.32 5 149 C3.34997172 150.35386936 1.6825613 151.68678142 0 153 C-0.33 153.66 -0.66 154.32 -1 155 C-1.66 155 -2.32 155 -3 155 C-3.33 155.99 -3.66 156.98 -4 158 C-4.66 158 -5.32 158 -6 158 C-6 158.66 -6 159.32 -6 160 C-7.66215268 161.33895632 -9.32963607 162.67130142 -11 164 C-11.721875 164.9075 -12.44375 165.815 -13.1875 166.75 C-13.785625 167.4925 -14.38375 168.235 -15 169 C-15.66 169 -16.32 169 -17 169 C-17 169.66 -17 170.32 -17 171 C-18.66215268 172.33895632 -20.32963607 173.67130142 -22 175 C-22.61875 175.78375 -23.2375 176.5675 -23.875 177.375 C-26.12431827 180.15356963 -28.54383775 182.25433277 -31.27734375 184.53515625 C-34.31127171 187.11502697 -37.03694949 189.99708466 -39.79296875 192.8671875 C-40.41816406 193.50914062 -41.04335937 194.15109375 -41.6875 194.8125 C-42.26886719 195.41707031 -42.85023437 196.02164063 -43.44921875 196.64453125 C-45 198 -45 198 -47 198 C-47.33 198.99 -47.66 199.98 -48 201 C-48.66 201 -49.32 201 -50 201 C-50 201.66 -50 202.32 -50 203 C-55.47619048 208 -55.47619048 208 -58 208 C-58.33 208.99 -58.66 209.98 -59 211 C-59.66 211 -60.32 211 -61 211 C-61.33 211.99 -61.66 212.98 -62 214 C-62.66 214 -63.32 214 -64 214 C-64.2475 214.5775 -64.495 215.155 -64.75 215.75 C-66.18299988 218.32939979 -67.78424676 220.06121592 -70 222 C-70.66 222 -71.32 222 -72 222 C-72.33 222.99 -72.66 223.98 -73 225 C-73.66 225 -74.32 225 -75 225 C-75.33 225.99 -75.66 226.98 -76 228 C-76.66 228 -77.32 228 -78 228 C-78.268125 228.639375 -78.53625 229.27875 -78.8125 229.9375 C-80 232 -80 232 -83 233 C-83.33 233.99 -83.66 234.98 -84 236 C-84.66 236 -85.32 236 -86 236 C-86.33 236.99 -86.66 237.98 -87 239 C-87.66 239 -88.32 239 -89 239 C-89.33 239.99 -89.66 240.98 -90 242 C-90.66 242 -91.32 242 -92 242 C-92.268125 242.639375 -92.53625 243.27875 -92.8125 243.9375 C-94 246 -94 246 -97 247 C-97.33 247.99 -97.66 248.98 -98 250 C-99.65 250 -101.3 250 -103 250 C-103 250.66 -103 251.32 -103 252 C-110.92 252 -118.84 252 -127 252 C-127.20613867 233.20702484 -127.11424632 214.7073045 -125 196 C-124.34 196 -123.68 196 -123 196 C-123.061875 194.80375 -123.12375 193.6075 -123.1875 192.375 C-123.2193315 185.74343695 -121.53318555 179.41565142 -120 173 C-119.34 173 -118.68 173 -118 173 C-117.95101562 172.26394531 -117.90203125 171.52789062 -117.8515625 170.76953125 C-117.73941406 169.30580078 -117.73941406 169.30580078 -117.625 167.8125 C-117.55539063 166.84957031 -117.48578125 165.88664063 -117.4140625 164.89453125 C-116.99144825 161.94021846 -116.15571888 159.74070476 -115 157 C-114.26742683 154.56967514 -113.56025817 152.13158748 -112.875 149.6875 C-112.52179688 148.43324219 -112.16859375 147.17898438 -111.8046875 145.88671875 C-111.53914063 144.93410156 -111.27359375 143.98148438 -111 143 C-110.34 143 -109.68 143 -109 143 C-109 141.35 -109 139.7 -109 138 C-108.34 138 -107.68 138 -107 138 C-106.67 135.36 -106.34 132.72 -106 130 C-105.34 130 -104.68 130 -104 130 C-103.896875 128.989375 -103.79375 127.97875 -103.6875 126.9375 C-102.96295233 122.78781792 -101.77730734 119.78643737 -100 116 C-99.34 116 -98.68 116 -98 116 C-97.814375 114.88625 -97.814375 114.88625 -97.625 113.75 C-97.04513299 111.19858515 -96.26291261 109.2732427 -95 107 C-94.34 107 -93.68 107 -93 107 C-92.896875 106.113125 -92.79375 105.22625 -92.6875 104.3125 C-91.98284093 100.9173245 -91.0445434 98.78057902 -89 96 C-88.34 96 -87.68 96 -87 96 C-86.67 94.02 -86.34 92.04 -86 90 C-85.34 90 -84.68 90 -84 90 C-84 89.01 -84 88.02 -84 87 C-83.34 87 -82.68 87 -82 87 C-81.74089844 86.2884375 -81.48179688 85.576875 -81.21484375 84.84375 C-79.92374206 81.82149266 -78.35852143 79.25003711 -76.5625 76.5 C-74.7709294 73.74492814 -73.0123672 71.02201302 -71.40234375 68.15625 C-70.93957031 67.4446875 -70.47679687 66.733125 -70 66 C-69.34 66 -68.68 66 -68 66 C-67.505 64.515 -67.505 64.515 -67 63 C-66.34 63 -65.68 63 -65 63 C-64.896875 62.236875 -64.79375 61.47375 -64.6875 60.6875 C-63.95288806 57.81583516 -63.3283935 56.76957906 -61 55 C-60.34 55 -59.68 55 -59 55 C-59 54.34 -59 53.68 -59 53 C-58.34 53 -57.68 53 -57 53 C-56.67 51.68 -56.34 50.36 -56 49 C-55.34 49 -54.68 49 -54 49 C-53.67 48.01 -53.34 47.02 -53 46 C-52.34 46 -51.68 46 -51 46 C-50.67 45.01 -50.34 44.02 -50 43 C-49.34 43 -48.68 43 -48 43 C-47.731875 42.360625 -47.46375 41.72125 -47.1875 41.0625 C-46 39 -46 39 -43 38 C-42.67 37.01 -42.34 36.02 -42 35 C-41.34 35 -40.68 35 -40 35 C-39.67 34.01 -39.34 33.02 -39 32 C-38.34 32 -37.68 32 -37 32 C-36.731875 31.360625 -36.46375 30.72125 -36.1875 30.0625 C-35 28 -35 28 -32 27 C-31.505 25.515 -31.505 25.515 -31 24 C-30.34 24 -29.68 24 -29 24 C-28.505 22.515 -28.505 22.515 -28 21 C-26.22265625 19.39453125 -26.22265625 19.39453125 -24.0625 17.8125 C-23.35222656 17.28269531 -22.64195313 16.75289063 -21.91015625 16.20703125 C-20 15 -20 15 -18 15 C-18 14.34 -18 13.68 -18 13 C-17.01 13 -16.02 13 -15 13 C-14.67 12.01 -14.34 11.02 -14 10 C-9.66666667 7 -9.66666667 7 -7 7 C-7 6.34 -7 5.68 -7 5 C-6.01 5 -5.02 5 -4 5 C-3.67 4.01 -3.34 3.02 -3 2 C-2.01 2 -1.02 2 0 2 C0 1.34 0 0.68 0 0 Z " fill="#3eab95" transform="translate(127,288)"/>
    <path d="M0 0 C1.65 0.33 3.3 0.66 5 1 C5.33 1.99 5.66 2.98 6 4 C6.99 4 7.98 4 9 4 C9 4.66 9 5.32 9 6 C9.58910156 6.26039063 10.17820313 6.52078125 10.78515625 6.7890625 C13.13575944 8.07422474 14.60327056 9.43486817 16.4375 11.375 C18.46591756 13.47276517 20.39002449 15.30839146 22.6875 17.125 C25.21213384 19.17200041 27.00124547 21.44986491 29 24 C29.66 24.33 30.32 24.66 31 25 C31 25.66 31 26.32 31 27 C31.66 27 32.32 27 33 27 C34.33895632 28.66215268 35.67130142 30.32963607 37 32 C37.9075 32.721875 38.815 33.44375 39.75 34.1875 C40.86375 35.0846875 40.86375 35.0846875 42 36 C42 36.66 42 37.32 42 38 C42.66 38 43.32 38 44 38 C45.33895632 39.66215268 46.67130142 41.32963607 48 43 C48.9075 43.721875 49.815 44.44375 50.75 45.1875 C51.86375 46.0846875 51.86375 46.0846875 53 47 C53 47.66 53 48.32 53 49 C53.99 49.33 54.98 49.66 56 50 C56 50.66 56 51.32 56 52 C56.66 52 57.32 52 58 52 C59.33895632 53.66215268 60.67130142 55.32963607 62 57 C62.9075 57.721875 63.815 58.44375 64.75 59.1875 C65.86375 60.0846875 65.86375 60.0846875 67 61 C67 61.66 67 62.32 67 63 C67.99 63.33 68.98 63.66 70 64 C70 64.66 70 65.32 70 66 C70.66 66 71.32 66 72 66 C72.804375 67.051875 72.804375 67.051875 73.625 68.125 C76.24541321 71.29707915 79.0280965 73.34242441 82.390625 75.66796875 C82.92171875 76.10753906 83.4528125 76.54710937 84 77 C84 77.66 84 78.32 84 79 C84.99 79.33 85.98 79.66 87 80 C87 80.66 87 81.32 87 82 C87.99 82.33 88.98 82.66 90 83 C90 83.66 90 84.32 90 85 C90.639375 85.268125 91.27875 85.53625 91.9375 85.8125 C94 87 94 87 95 90 C95.99 90.33 96.98 90.66 98 91 C98 91.66 98 92.32 98 93 C98.99 93.33 99.98 93.66 101 94 C101 94.66 101 95.32 101 96 C101.5775 96.2475 102.155 96.495 102.75 96.75 C105.32939979 98.18299988 107.06121592 99.78424676 109 102 C109 102.66 109 103.32 109 104 C109.99 104.33 110.98 104.66 112 105 C112 105.66 112 106.32 112 107 C112.99 107.33 113.98 107.66 115 108 C115 108.66 115 109.32 115 110 C115.639375 110.268125 116.27875 110.53625 116.9375 110.8125 C119 112 119 112 120 115 C120.99 115.33 121.98 115.66 123 116 C123 116.66 123 117.32 123 118 C123.99 118.33 124.98 118.66 126 119 C126 119.66 126 120.32 126 121 C126.86625 121.37125 126.86625 121.37125 127.75 121.75 C130.32939979 123.18299988 132.06121592 124.78424676 134 127 C134 127.66 134 128.32 134 129 C134.99 129.33 135.98 129.66 137 130 C137 130.66 137 131.32 137 132 C137.99 132.33 138.98 132.66 140 133 C140 133.66 140 134.32 140 135 C140.639375 135.268125 141.27875 135.53625 141.9375 135.8125 C144 137 144 137 145 140 C145.99 140.33 146.98 140.66 148 141 C148 141.99 148 142.98 148 144 C147.00441574 144.00586624 146.00883148 144.01173248 144.983078 144.01777649 C135.60966905 144.07494046 126.23649351 144.14766865 116.86332226 144.23571491 C112.04423373 144.2804803 107.22523095 144.31972268 102.40600586 144.34643555 C97.75689066 144.37240717 93.10810437 144.41276559 88.45919228 144.46318626 C86.68379107 144.47989667 84.90833292 144.49138489 83.132864 144.49761391 C80.64966565 144.50720987 78.1673167 144.53521373 75.68432617 144.56762695 C74.94705292 144.56619186 74.20977966 144.56475677 73.45016479 144.5632782 C70.54195332 144.61711835 68.49056197 144.66891347 66.04101562 146.32214355 C64.31000821 149.11209395 64.63516316 152.11597827 64.70703125 155.29296875 C64.71127609 155.99899734 64.71552094 156.70502594 64.71989441 157.43244934 C64.73666966 159.68452303 64.77431757 161.93569742 64.8125 164.1875 C64.82754843 165.71548185 64.84123656 167.24347776 64.85351562 168.77148438 C64.88656911 172.51466872 64.93834168 176.25718196 65 180 C65.66 180 66.32 180 67 180 C67.22786458 182.05078125 67.45572917 184.1015625 67.68359375 186.15234375 C67.81886614 188.01140229 67.81886614 188.01140229 69 189 C69.23481693 191.18292774 69.41363323 193.37203174 69.5625 195.5625 C69.64628906 196.76003906 69.73007813 197.95757813 69.81640625 199.19140625 C69.87699219 200.11824219 69.93757812 201.04507813 70 202 C70.66 202 71.32 202 72 202 C72.33 205.3 72.66 208.6 73 212 C73.66 212 74.32 212 75 212 C75.33 214.97 75.66 217.94 76 221 C76.66 221 77.32 221 78 221 C78 222.65 78 224.3 78 226 C78.66 226 79.32 226 80 226 C80.67467562 227.74692795 81.33944156 229.49768525 82 231.25 C82.37125 232.22453125 82.7425 233.1990625 83.125 234.203125 C84 237 84 237 84 241 C84.66 241 85.32 241 86 241 C86.33 242.98 86.66 244.96 87 247 C87.66 247 88.32 247 89 247 C89.33 249.31 89.66 251.62 90 254 C90.66 254 91.32 254 92 254 C92 254.99 92 255.98 92 257 C92.66 257 93.32 257 94 257 C94.33 258.98 94.66 260.96 95 263 C95.66 263 96.32 263 97 263 C97.33 264.65 97.66 266.3 98 268 C98.66 268 99.32 268 100 268 C100.33 269.98 100.66 271.96 101 274 C101.66 274 102.32 274 103 274 C105.04169485 276.90548882 106 278.40142046 106 282 C106.99 282.33 107.98 282.66 109 283 C109 283.99 109 284.98 109 286 C109.66 286 110.32 286 111 286 C111.33 287.65 111.66 289.3 112 291 C112.66 291 113.32 291 114 291 C115.3726682 292.97321053 116.70427617 294.97543152 118 297 C118.66 297.66 119.32 298.32 120 299 C120 299.99 120 300.98 120 302 C120.66 302 121.32 302 122 302 C126 307.41176471 126 307.41176471 126 310 C126.99 310.33 127.98 310.66 129 311 C129.28875 311.598125 129.5775 312.19625 129.875 312.8125 C130.9178554 315.22888545 130.9178554 315.22888545 133.5625 316.9375 C136 319 136 319 136.8125 321.75 C136.9053125 322.86375 136.9053125 322.86375 137 324 C137.99 324.33 138.98 324.66 140 325 C140 325.66 140 326.32 140 327 C140.66 327 141.32 327 142 327 C142 327.66 142 328.32 142 329 C142.99 329.33 143.98 329.66 145 330 C145 330.66 145 331.32 145 332 C145.66 332 146.32 332 147 332 C147.33 333.32 147.66 334.64 148 336 C148.66 336 149.32 336 150 336 C150.0825 336.61875 150.165 337.2375 150.25 337.875 C150.77876656 340.12099931 150.77876656 340.12099931 152.6875 340.9375 C153.450625 341.288125 154.21375 341.63875 155 342 C158.90985287 345.01384492 162.13862269 347.92803998 165 352 C165 352.66 165 353.32 165 354 C165.598125 354.268125 166.19625 354.53625 166.8125 354.8125 C169.04237457 356.02300334 170.45490692 356.991379 172 359 C172 360.32 172 361.64 172 363 C169.36 363 166.72 363 164 363 C164 362.34 164 361.68 164 361 C163.2265625 361.01160156 162.453125 361.02320313 161.65625 361.03515625 C155.66063636 361.08709845 149.92697017 360.91184156 144 360 C144 359.34 144 358.68 144 358 C142.989375 358.0825 141.97875 358.165 140.9375 358.25 C131.52315109 358.25 121.67527872 354.58683326 113.1484375 350.83203125 C110.78813942 349.91795217 108.48974185 349.43242885 106 349 C106 348.34 106 347.68 106 347 C103.36 346.67 100.72 346.34 98 346 C98 345.34 98 344.68 98 344 C97.175 343.9175 96.35 343.835 95.5 343.75 C91.83868694 342.96543292 89.103977 341.6928634 85.83203125 339.9375 C83.85621068 338.86837089 83.85621068 338.86837089 81 338 C81 337.34 81 336.68 81 336 C79.02 335.67 77.04 335.34 75 335 C75 334.34 75 333.68 75 333 C73.35 332.67 71.7 332.34 70 332 C70 331.34 70 330.68 70 330 C69.4225 329.87625 68.845 329.7525 68.25 329.625 C65.97664233 328.99351176 64.0746471 328.11141809 62 327 C62 326.34 62 325.68 62 325 C60.68 324.67 59.36 324.34 58 324 C58 323.34 58 322.68 58 322 C56.35 321.67 54.7 321.34 53 321 C53 320.34 53 319.68 53 319 C52.443125 318.9175 51.88625 318.835 51.3125 318.75 C47.61922591 317.55218138 45.03801647 315.07794018 42.375 312.3125 C40.91931103 310.73627162 40.91931103 310.73627162 38 310 C38 309.34 38 308.68 38 308 C37.13375 307.9071875 37.13375 307.9071875 36.25 307.8125 C33.12024972 306.6823124 32.03486099 304.58982308 30 302 C28.34338239 300.98343919 26.67888441 299.97934924 25 299 C25 298.34 25 297.68 25 297 C24.01 296.67 23.02 296.34 22 296 C22 295.34 22 294.68 22 294 C21.01 293.67 20.02 293.34 19 293 C19 292.34 19 291.68 19 291 C18.34 291 17.68 291 17 291 C15.375 289.625 15.375 289.625 14 288 C14 287.34 14 286.68 14 286 C13.01 285.67 12.02 285.34 11 285 C11 284.34 11 283.68 11 283 C10.34 283 9.68 283 9 283 C8.67 281.68 8.34 280.36 8 279 C7.34 279 6.68 279 6 279 C5.896875 278.360625 5.79375 277.72125 5.6875 277.0625 C5.3471875 276.0415625 5.3471875 276.0415625 5 275 C4.01 274.67 3.02 274.34 2 274 C2 273.34 2 272.68 2 272 C1.34 272 0.68 272 0 272 C0 271.01 0 270.02 0 269 C-0.99 268.67 -1.98 268.34 -3 268 C-3 267.34 -3 266.68 -3 266 C-3.66 266 -4.32 266 -5 266 C-5.33 264.35 -5.66 262.7 -6 261 C-6.99 260.67 -7.98 260.34 -9 260 C-9 259.01 -9 258.02 -9 257 C-9.66 257 -10.32 257 -11 257 C-11 256.34 -11 255.68 -11 255 C-11.66 255 -12.32 255 -13 255 C-13.33 253.35 -13.66 251.7 -14 250 C-14.66 250 -15.32 250 -16 250 C-16.33 248.68 -16.66 247.36 -17 246 C-17.66 246 -18.32 246 -19 246 C-19.495 243.525 -19.495 243.525 -20 241 C-20.66 241 -21.32 241 -22 241 C-22.39832031 240.18595703 -22.39832031 240.18595703 -22.8046875 239.35546875 C-23.15789062 238.64003906 -23.51109375 237.92460938 -23.875 237.1875 C-24.22304687 236.47980469 -24.57109375 235.77210938 -24.9296875 235.04296875 C-26.0656486 232.78753582 -26.0656486 232.78753582 -28 230 C-28 229.01 -28 228.02 -28 227 C-28.66 227 -29.32 227 -30 227 C-30.33 225.02 -30.66 223.04 -31 221 C-31.66 221 -32.32 221 -33 221 C-33.495 217.535 -33.495 217.535 -34 214 C-34.66 214 -35.32 214 -36 214 C-36 213.01 -36 212.02 -36 211 C-36.66 211 -37.32 211 -38 211 C-38.67260351 209.23141309 -39.33788395 207.46003984 -40 205.6875 C-40.37125 204.70136719 -40.7425 203.71523438 -41.125 202.69921875 C-42 200 -42 200 -42 197 C-42.66 197 -43.32 197 -44 197 C-44.33 194.36 -44.66 191.72 -45 189 C-45.66 189 -46.32 189 -47 189 C-47.26554687 188.19175781 -47.53109375 187.38351562 -47.8046875 186.55078125 C-48.15789062 185.48214844 -48.51109375 184.41351562 -48.875 183.3125 C-49.22304687 182.25675781 -49.57109375 181.20101562 -49.9296875 180.11328125 C-50.60500466 178.1489463 -51.33078758 176.20059668 -52.125 174.28125 C-53.10965891 171.71410355 -53.15578482 169.72623432 -53 167 C-53.66 167 -54.32 167 -55 167 C-55.18175781 166.03900391 -55.18175781 166.03900391 -55.3671875 165.05859375 C-56.15109862 161.01240634 -56.93838848 157.01222121 -58.125 153.0625 C-59 150 -59 150 -59 147 C-63.26573707 144.92135488 -67.16159095 144.69511333 -71.81958008 144.68115234 C-72.97647339 144.66608391 -72.97647339 144.66608391 -74.15673828 144.65071106 C-76.69432868 144.61993394 -79.23181383 144.60285929 -81.76953125 144.5859375 C-83.53359377 144.56722144 -85.29764738 144.5476477 -87.06169128 144.5272522 C-91.69598126 144.47597127 -96.33030025 144.43632394 -100.96472168 144.39910889 C-105.69725701 144.35904391 -110.42967208 144.30796294 -115.16210938 144.2578125 C-124.44132171 144.16110104 -133.72060203 144.07668095 -143 144 C-143 142.68 -143 141.36 -143 140 C-142.34 140 -141.68 140 -141 140 C-141 139.34 -141 138.68 -141 138 C-140.34 138 -139.68 138 -139 138 C-138.67 137.01 -138.34 136.02 -138 135 C-137.34 135 -136.68 135 -136 135 C-136 134.34 -136 133.68 -136 133 C-134.34997172 131.64613064 -132.6825613 130.31321858 -131 129 C-130.505 128.01 -130.505 128.01 -130 127 C-129.34 127 -128.68 127 -128 127 C-127.67 126.01 -127.34 125.02 -127 124 C-126.34 124 -125.68 124 -125 124 C-125 123.34 -125 122.68 -125 122 C-123.33784732 120.66104368 -121.67036393 119.32869858 -120 118 C-118.9171875 116.63875 -118.9171875 116.63875 -117.8125 115.25 C-117.214375 114.5075 -116.61625 113.765 -116 113 C-115.34 113 -114.68 113 -114 113 C-113.505 111.515 -113.505 111.515 -113 110 C-112.34 110 -111.68 110 -111 110 C-111 109.34 -111 108.68 -111 108 C-109.34997172 106.64613064 -107.6825613 105.31321858 -106 104 C-105.67 103.34 -105.34 102.68 -105 102 C-104.34 102 -103.68 102 -103 102 C-102.505 100.515 -102.505 100.515 -102 99 C-101.34 99 -100.68 99 -100 99 C-100 98.34 -100 97.68 -100 97 C-98.33784732 95.66104368 -96.67036393 94.32869858 -95 93 C-94.401875 92.236875 -93.80375 91.47375 -93.1875 90.6875 C-90.75687667 87.70130562 -88.07932734 85.39173327 -85.15234375 82.90625 C-82.24656708 80.33271277 -79.60406071 77.53571979 -76.95703125 74.69921875 C-75 73 -75 73 -72.32421875 71.95703125 C-71.55722656 71.64121094 -70.79023437 71.32539062 -70 71 C-69.505 69.515 -69.505 69.515 -69 68 C-68.34 68 -67.68 68 -67 68 C-66.62875 67.13375 -66.62875 67.13375 -66.25 66.25 C-64.81700012 63.67060021 -63.21575324 61.93878408 -61 60 C-60.34 60 -59.68 60 -59 60 C-58.67 59.01 -58.34 58.02 -58 57 C-57.34 57 -56.68 57 -56 57 C-55.67 56.01 -55.34 55.02 -55 54 C-54.34 54 -53.68 54 -53 54 C-52.731875 53.360625 -52.46375 52.72125 -52.1875 52.0625 C-51 50 -51 50 -48 49 C-47.67 48.01 -47.34 47.02 -47 46 C-46.34 46 -45.68 46 -45 46 C-44.67 45.01 -44.34 44.02 -44 43 C-43.34 43 -42.68 43 -42 43 C-41.67 42.01 -41.34 41.02 -41 40 C-40.34 40 -39.68 40 -39 40 C-38.731875 39.360625 -38.46375 38.72125 -38.1875 38.0625 C-37 36 -37 36 -34 35 C-33.67 34.01 -33.34 33.02 -33 32 C-32.34 32 -31.68 32 -31 32 C-30.505 30.515 -30.505 30.515 -30 29 C-29.34 29 -28.68 29 -28 29 C-27.731875 28.360625 -27.46375 27.72125 -27.1875 27.0625 C-26 25 -26 25 -23 24 C-22.505 22.515 -22.505 22.515 -22 21 C-21.34 21 -20.68 21 -20 21 C-19.505 19.515 -19.505 19.515 -19 18 C-18.34 18 -17.68 18 -17 18 C-16.505 16.515 -16.505 16.515 -16 15 C-15.34 15 -14.68 15 -14 15 C-14 14.34 -14 13.68 -14 13 C-12.390625 11.4140625 -12.390625 11.4140625 -10.25 9.625 C-7.93096298 7.66242273 -5.74780716 5.7411705 -3.625 3.5625 C-2 2 -2 2 0 2 C0 1.34 0 0.68 0 0 Z " fill="#3eab95" transform="translate(143,477)"/>
</svg>
