<?xml version="1.0" encoding="UTF-8"?>
<svg version="1.1"
    xmlns="http://www.w3.org/2000/svg" width="725" height="841">
    <path d="M0 0 C3.01420194 0.0107267 6.02780812 0.0000393 9.04199219 -0.01269531 C37.02295442 -0.03334886 37.02295442 -0.03334886 49.04589844 4.53027344 C52.2980423 5.73453265 55.64671854 6.46376273 59.01855469 7.26074219 C59.01855469 7.92074219 59.01855469 8.58074219 59.01855469 9.26074219 C61.65855469 9.59074219 64.29855469 9.92074219 67.01855469 10.26074219 C67.01855469 10.92074219 67.01855469 11.58074219 67.01855469 12.26074219 C67.78167969 12.32261719 68.54480469 12.38449219 69.33105469 12.44824219 C74.58376983 13.6056201 79.19070498 15.93272213 84.01855469 18.26074219 C84.01855469 18.92074219 84.01855469 19.58074219 84.01855469 20.26074219 C85.66855469 20.59074219 87.31855469 20.92074219 89.01855469 21.26074219 C89.01855469 21.92074219 89.01855469 22.58074219 89.01855469 23.26074219 C90.33855469 23.59074219 91.65855469 23.92074219 93.01855469 24.26074219 C93.01855469 24.92074219 93.01855469 25.58074219 93.01855469 26.26074219 C94.66855469 26.59074219 96.31855469 26.92074219 98.01855469 27.26074219 C98.01855469 27.92074219 98.01855469 28.58074219 98.01855469 29.26074219 C99.00855469 29.26074219 99.99855469 29.26074219 101.01855469 29.26074219 C101.01855469 29.92074219 101.01855469 30.58074219 101.01855469 31.26074219 C102.00855469 31.59074219 102.99855469 31.92074219 104.01855469 32.26074219 C104.01855469 32.92074219 104.01855469 33.58074219 104.01855469 34.26074219 C105.66855469 34.59074219 107.31855469 34.92074219 109.01855469 35.26074219 C109.01855469 35.92074219 109.01855469 36.58074219 109.01855469 37.26074219 C110.00855469 37.59074219 110.99855469 37.92074219 112.01855469 38.26074219 C112.01855469 38.92074219 112.01855469 39.58074219 112.01855469 40.26074219 C112.82292969 40.52886719 113.62730469 40.79699219 114.45605469 41.07324219 C115.30167969 41.46511719 116.14730469 41.85699219 117.01855469 42.26074219 C117.34855469 43.25074219 117.67855469 44.24074219 118.01855469 45.26074219 C119.34263137 45.94560944 120.67764709 46.60944421 122.01855469 47.26074219 C124.26855469 49.26074219 124.26855469 49.26074219 126.01855469 51.26074219 C126.01855469 51.92074219 126.01855469 52.58074219 126.01855469 53.26074219 C126.67855469 53.26074219 127.33855469 53.26074219 128.01855469 53.26074219 C128.34855469 54.58074219 128.67855469 55.90074219 129.01855469 57.26074219 C129.67855469 57.26074219 130.33855469 57.26074219 131.01855469 57.26074219 C132.627172 58.97098695 134.15793811 60.75513047 135.64355469 62.57324219 C136.46082031 63.559375 137.27808594 64.54550781 138.12011719 65.56152344 C140.01855469 68.26074219 140.01855469 68.26074219 140.01855469 71.26074219 C140.67855469 71.26074219 141.33855469 71.26074219 142.01855469 71.26074219 C142.34855469 72.91074219 142.67855469 74.56074219 143.01855469 76.26074219 C143.67855469 76.26074219 144.33855469 76.26074219 145.01855469 76.26074219 C147.06024954 79.16623101 148.01855469 80.66216264 148.01855469 84.26074219 C149.00855469 84.59074219 149.99855469 84.92074219 151.01855469 85.26074219 C153.23606868 88.95659884 154.01855469 90.89082592 154.01855469 95.26074219 C154.67855469 95.26074219 155.33855469 95.26074219 156.01855469 95.26074219 C157.02940904 97.6524958 158.02734672 100.04835803 159.01855469 102.44824219 C159.30472656 103.12177734 159.59089844 103.7953125 159.88574219 104.48925781 C161.41061767 108.21068013 162.39465901 111.22545626 162.01855469 115.26074219 C162.67855469 115.26074219 163.33855469 115.26074219 164.01855469 115.26074219 C164.34855469 118.89074219 164.67855469 122.52074219 165.01855469 126.26074219 C165.67855469 126.26074219 166.33855469 126.26074219 167.01855469 126.26074219 C167.85061289 131.9811423 168.13892133 137.48314335 168.01855469 143.26074219 C168.67855469 143.26074219 169.33855469 143.26074219 170.01855469 143.26074219 C170.04382471 149.79353005 170.06138761 156.3263054 170.07348633 162.85913086 C170.07852785 165.0834195 170.08536091 167.30770482 170.09399414 169.53198242 C170.10606767 172.72152527 170.11178464 175.91102448 170.11621094 179.10058594 C170.12137222 180.1016185 170.12653351 181.10265106 170.1318512 182.13401794 C170.13196449 183.51533653 170.13196449 183.51533653 170.13208008 184.92456055 C170.13430069 185.73952499 170.1365213 186.55448944 170.1388092 187.39414978 C170.01855469 189.26074219 170.01855469 189.26074219 169.01855469 190.26074219 C168.56851331 193.50557834 168.20136195 196.7496232 167.85644531 200.00683594 C167.33231322 204.6004489 166.38389018 208.82477265 165.01855469 213.26074219 C164.66483971 214.92320259 164.32260147 216.5884849 164.01855469 218.26074219 C163.35855469 218.26074219 162.69855469 218.26074219 162.01855469 218.26074219 C161.92574219 219.86949219 161.92574219 219.86949219 161.83105469 221.51074219 C161.12025819 227.49866422 158.47873847 232.81384083 156.01855469 238.26074219 C155.35855469 238.26074219 154.69855469 238.26074219 154.01855469 238.26074219 C153.68855469 240.24074219 153.35855469 242.22074219 153.01855469 244.26074219 C152.35855469 244.26074219 151.69855469 244.26074219 151.01855469 244.26074219 C150.90374756 244.99897217 150.78894043 245.73720215 150.6706543 246.49780273 C150.00877124 249.30219456 149.13773188 251.06248972 147.58496094 253.46777344 C147.10091797 254.21865234 146.616875 254.96953125 146.11816406 255.74316406 C145.61091797 256.51208984 145.10367187 257.28101563 144.58105469 258.07324219 C144.07767578 258.86150391 143.57429688 259.64976562 143.05566406 260.46191406 C140.24568906 264.77203508 140.24568906 264.77203508 139.01855469 266.26074219 C138.35855469 266.26074219 137.69855469 266.26074219 137.01855469 266.26074219 C136.92574219 266.83566406 136.83292969 267.41058594 136.73730469 268.00292969 C135.84990064 270.79053589 134.50106271 272.24885854 132.51855469 274.38574219 C129.96393583 277.11311458 129.96393583 277.11311458 128.01855469 280.26074219 C127.35855469 280.26074219 126.69855469 280.26074219 126.01855469 280.26074219 C125.68855469 281.25074219 125.35855469 282.24074219 125.01855469 283.26074219 C124.35855469 283.26074219 123.69855469 283.26074219 123.01855469 283.26074219 C122.68855469 284.25074219 122.35855469 285.24074219 122.01855469 286.26074219 C121.35855469 286.26074219 120.69855469 286.26074219 120.01855469 286.26074219 C120.01855469 286.92074219 120.01855469 287.58074219 120.01855469 288.26074219 C119.35855469 288.26074219 118.69855469 288.26074219 118.01855469 288.26074219 C117.68855469 289.25074219 117.35855469 290.24074219 117.01855469 291.26074219 C116.35855469 291.26074219 115.69855469 291.26074219 115.01855469 291.26074219 C115.01855469 291.92074219 115.01855469 292.58074219 115.01855469 293.26074219 C113.69855469 293.59074219 112.37855469 293.92074219 111.01855469 294.26074219 C111.01855469 294.92074219 111.01855469 295.58074219 111.01855469 296.26074219 C109.33886719 297.76855469 109.33886719 297.76855469 107.14355469 299.38574219 C106.42425781 299.92457031 105.70496094 300.46339844 104.96386719 301.01855469 C103.01855469 302.26074219 103.01855469 302.26074219 101.01855469 302.26074219 C101.01855469 302.92074219 101.01855469 303.58074219 101.01855469 304.26074219 C99.69855469 304.59074219 98.37855469 304.92074219 97.01855469 305.26074219 C97.01855469 305.92074219 97.01855469 306.58074219 97.01855469 307.26074219 C95.36855469 307.59074219 93.71855469 307.92074219 92.01855469 308.26074219 C92.01855469 308.92074219 92.01855469 309.58074219 92.01855469 310.26074219 C90.36855469 310.59074219 88.71855469 310.92074219 87.01855469 311.26074219 C87.01855469 311.92074219 87.01855469 312.58074219 87.01855469 313.26074219 C86.02855469 313.26074219 85.03855469 313.26074219 84.01855469 313.26074219 C84.01855469 313.92074219 84.01855469 314.58074219 84.01855469 315.26074219 C82.03855469 315.59074219 80.05855469 315.92074219 78.01855469 316.26074219 C78.01855469 316.92074219 78.01855469 317.58074219 78.01855469 318.26074219 C76.43887662 318.93602442 74.85463566 319.60063913 73.26855469 320.26074219 C72.38683594 320.63199219 71.50511719 321.00324219 70.59667969 321.38574219 C68.01855469 322.26074219 68.01855469 322.26074219 64.01855469 322.26074219 C64.01855469 322.92074219 64.01855469 323.58074219 64.01855469 324.26074219 C59.35188802 325.59407552 54.68522135 326.92740885 50.01855469 328.26074219 C48.78105469 328.63199219 47.54355469 329.00324219 46.26855469 329.38574219 C43.02920336 330.25787524 40.35461773 330.42347697 37.01855469 330.26074219 C37.01855469 330.92074219 37.01855469 331.58074219 37.01855469 332.26074219 C28.67522925 333.45264582 20.42532446 333.35357768 12.01855469 333.26074219 C12.01855469 333.92074219 12.01855469 334.58074219 12.01855469 335.26074219 C9.06016113 335.28763667 6.10201042 335.3075296 3.14355469 335.32324219 C2.30179688 335.33162109 1.46003906 335.34 0.59277344 335.34863281 C-0.61572266 335.3534668 -0.61572266 335.3534668 -1.84863281 335.35839844 C-2.96407471 335.36625366 -2.96407471 335.36625366 -4.10205078 335.37426758 C-5.98144531 335.26074219 -5.98144531 335.26074219 -7.98144531 334.26074219 C-9.71877337 334.03999378 -11.46262938 333.86943581 -13.20800781 333.72558594 C-14.23925781 333.63857422 -15.27050781 333.5515625 -16.33300781 333.46191406 C-17.41324219 333.37490234 -18.49347656 333.28789062 -19.60644531 333.19824219 C-21.23839844 333.06192383 -21.23839844 333.06192383 -22.90332031 332.92285156 C-25.59574688 332.69848268 -28.2884324 332.47794105 -30.98144531 332.26074219 C-30.98144531 331.60074219 -30.98144531 330.94074219 -30.98144531 330.26074219 C-32.19832031 330.28136719 -33.41519531 330.30199219 -34.66894531 330.32324219 C-37.90121854 330.32898335 -40.83079272 330.04840534 -43.98144531 329.26074219 C-43.98144531 328.60074219 -43.98144531 327.94074219 -43.98144531 327.26074219 C-44.573125 327.21175781 -45.16480469 327.16277344 -45.77441406 327.11230469 C-50.17249003 326.69617352 -53.95073428 326.21108623 -57.98144531 324.26074219 C-57.98144531 323.60074219 -57.98144531 322.94074219 -57.98144531 322.26074219 C-60.62144531 321.93074219 -63.26144531 321.60074219 -65.98144531 321.26074219 C-65.98144531 320.60074219 -65.98144531 319.94074219 -65.98144531 319.26074219 C-67.96144531 318.93074219 -69.94144531 318.60074219 -71.98144531 318.26074219 C-71.98144531 317.60074219 -71.98144531 316.94074219 -71.98144531 316.26074219 C-73.96144531 315.93074219 -75.94144531 315.60074219 -77.98144531 315.26074219 C-77.98144531 314.60074219 -77.98144531 313.94074219 -77.98144531 313.26074219 C-78.97144531 313.26074219 -79.96144531 313.26074219 -80.98144531 313.26074219 C-80.98144531 312.60074219 -80.98144531 311.94074219 -80.98144531 311.26074219 C-82.63144531 310.93074219 -84.28144531 310.60074219 -85.98144531 310.26074219 C-85.98144531 309.60074219 -85.98144531 308.94074219 -85.98144531 308.26074219 C-86.72394531 308.15761719 -87.46644531 308.05449219 -88.23144531 307.94824219 C-91.17879721 307.21140421 -92.76527605 306.31275076 -94.98144531 304.26074219 C-94.98144531 303.60074219 -94.98144531 302.94074219 -94.98144531 302.26074219 C-95.57957031 302.13699219 -96.17769531 302.01324219 -96.79394531 301.88574219 C-98.98144531 301.26074219 -98.98144531 301.26074219 -101.98144531 299.26074219 C-101.98144531 298.60074219 -101.98144531 297.94074219 -101.98144531 297.26074219 C-103.30144531 296.93074219 -104.62144531 296.60074219 -105.98144531 296.26074219 C-105.98144531 295.60074219 -105.98144531 294.94074219 -105.98144531 294.26074219 C-106.97144531 293.93074219 -107.96144531 293.60074219 -108.98144531 293.26074219 C-108.98144531 292.60074219 -108.98144531 291.94074219 -108.98144531 291.26074219 C-109.62082031 290.99261719 -110.26019531 290.72449219 -110.91894531 290.44824219 C-112.98144531 289.26074219 -112.98144531 289.26074219 -113.98144531 286.26074219 C-114.97144531 285.93074219 -115.96144531 285.60074219 -116.98144531 285.26074219 C-116.98144531 284.60074219 -116.98144531 283.94074219 -116.98144531 283.26074219 C-117.97144531 282.93074219 -118.96144531 282.60074219 -119.98144531 282.26074219 C-119.98144531 281.60074219 -119.98144531 280.94074219 -119.98144531 280.26074219 C-120.62082031 279.99261719 -121.26019531 279.72449219 -121.91894531 279.44824219 C-123.98144531 278.26074219 -123.98144531 278.26074219 -124.98144531 275.26074219 C-125.64144531 275.26074219 -126.30144531 275.26074219 -126.98144531 275.26074219 C-127.31144531 273.94074219 -127.64144531 272.62074219 -127.98144531 271.26074219 C-128.64144531 271.26074219 -129.30144531 271.26074219 -129.98144531 271.26074219 C-130.31144531 269.94074219 -130.64144531 268.62074219 -130.98144531 267.26074219 C-131.64144531 267.26074219 -132.30144531 267.26074219 -132.98144531 267.26074219 C-133.31144531 265.94074219 -133.64144531 264.62074219 -133.98144531 263.26074219 C-134.64144531 263.26074219 -135.30144531 263.26074219 -135.98144531 263.26074219 C-138.02314016 260.35525337 -138.98144531 258.85932173 -138.98144531 255.26074219 C-139.64144531 255.26074219 -140.30144531 255.26074219 -140.98144531 255.26074219 C-141.70460938 253.90529297 -141.70460938 253.90529297 -142.44238281 252.52246094 C-143.08032397 251.33101202 -143.71834921 250.13960813 -144.35644531 248.94824219 C-144.67355469 248.35333984 -144.99066406 247.7584375 -145.31738281 247.14550781 C-146.7753088 244.42708331 -148.26856234 241.83006664 -149.98144531 239.26074219 C-149.98144531 237.94074219 -149.98144531 236.62074219 -149.98144531 235.26074219 C-150.64144531 235.26074219 -151.30144531 235.26074219 -151.98144531 235.26074219 C-152.65824189 233.53551519 -153.32246532 231.8053528 -153.98144531 230.07324219 C-154.35269531 229.1103125 -154.72394531 228.14738281 -155.10644531 227.15527344 C-155.95781303 224.33891861 -156.15217178 222.1790978 -155.98144531 219.26074219 C-156.64144531 219.26074219 -157.30144531 219.26074219 -157.98144531 219.26074219 C-158.31144531 215.63074219 -158.64144531 212.00074219 -158.98144531 208.26074219 C-159.64144531 208.26074219 -160.30144531 208.26074219 -160.98144531 208.26074219 C-163.03535126 199.15380071 -164.36513396 190.43590333 -164.77050781 181.11230469 C-164.66185525 178.36266023 -164.66185525 178.36266023 -165.98144531 177.26074219 C-166.08044055 175.7111866 -166.11224055 174.15720546 -166.11425781 172.60449219 C-166.11554688 171.66476563 -166.11683594 170.72503906 -166.11816406 169.75683594 C-166.11429687 168.768125 -166.11042969 167.77941406 -166.10644531 166.76074219 C-166.1103125 165.77203125 -166.11417969 164.78332031 -166.11816406 163.76464844 C-166.116875 162.82492188 -166.11558594 161.88519531 -166.11425781 160.91699219 C-166.11312988 160.04880859 -166.11200195 159.180625 -166.11083984 158.28613281 C-165.98144531 156.26074219 -165.98144531 156.26074219 -164.98144531 155.26074219 C-164.76596547 153.56832757 -164.61044573 151.8681852 -164.48144531 150.16699219 C-164.39894531 149.13703125 -164.31644531 148.10707031 -164.23144531 147.04589844 C-164.10769531 145.41974609 -164.10769531 145.41974609 -163.98144531 143.76074219 C-163.81891609 141.62500663 -163.65246488 139.48956465 -163.48144531 137.35449219 C-163.40925781 136.40251953 -163.33707031 135.45054687 -163.26269531 134.46972656 C-162.98144531 132.26074219 -162.98144531 132.26074219 -161.98144531 131.26074219 C-161.613838 128.93256255 -161.2790295 126.59890369 -160.98144531 124.26074219 C-160.32144531 124.26074219 -159.66144531 124.26074219 -158.98144531 124.26074219 C-158.95566406 123.64328125 -158.92988281 123.02582031 -158.90332031 122.38964844 C-158.52577305 116.75218133 -157.44884931 112.44435508 -154.96972656 107.37792969 C-153.58459856 104.41058036 -152.79024012 101.42852184 -151.98144531 98.26074219 C-151.32144531 98.26074219 -150.66144531 98.26074219 -149.98144531 98.26074219 C-149.85769531 97.35324219 -149.73394531 96.44574219 -149.60644531 95.51074219 C-149.06034854 92.67103896 -148.40880729 90.73483628 -146.98144531 88.26074219 C-146.32144531 88.26074219 -145.66144531 88.26074219 -144.98144531 88.26074219 C-144.65144531 86.28074219 -144.32144531 84.30074219 -143.98144531 82.26074219 C-143.32144531 82.26074219 -142.66144531 82.26074219 -141.98144531 82.26074219 C-141.65144531 80.61074219 -141.32144531 78.96074219 -140.98144531 77.26074219 C-140.32144531 77.26074219 -139.66144531 77.26074219 -138.98144531 77.26074219 C-138.65144531 75.94074219 -138.32144531 74.62074219 -137.98144531 73.26074219 C-137.32144531 73.26074219 -136.66144531 73.26074219 -135.98144531 73.26074219 C-135.98144531 72.27074219 -135.98144531 71.28074219 -135.98144531 70.26074219 C-135.32144531 70.26074219 -134.66144531 70.26074219 -133.98144531 70.26074219 C-133.48644531 68.28074219 -133.48644531 68.28074219 -132.98144531 66.26074219 C-132.32144531 66.26074219 -131.66144531 66.26074219 -130.98144531 66.26074219 C-130.48644531 64.28074219 -130.48644531 64.28074219 -129.98144531 62.26074219 C-129.32144531 62.26074219 -128.66144531 62.26074219 -127.98144531 62.26074219 C-127.67207031 61.64199219 -127.36269531 61.02324219 -127.04394531 60.38574219 C-126.35644531 59.01074219 -125.66894531 57.63574219 -124.98144531 56.26074219 C-124.32144531 56.26074219 -123.66144531 56.26074219 -122.98144531 56.26074219 C-122.75457031 55.72449219 -122.52769531 55.18824219 -122.29394531 54.63574219 C-118.8875226 48.47173918 -113.59266446 43.44747965 -107.98144531 39.26074219 C-107.32144531 39.26074219 -106.66144531 39.26074219 -105.98144531 39.26074219 C-105.98144531 38.60074219 -105.98144531 37.94074219 -105.98144531 37.26074219 C-104.99144531 37.26074219 -104.00144531 37.26074219 -102.98144531 37.26074219 C-102.65144531 36.27074219 -102.32144531 35.28074219 -101.98144531 34.26074219 C-101.32144531 34.26074219 -100.66144531 34.26074219 -99.98144531 34.26074219 C-99.98144531 33.60074219 -99.98144531 32.94074219 -99.98144531 32.26074219 C-98.3482022 31.20703695 -96.66900664 30.22506295 -94.98144531 29.26074219 C-92.66735769 27.67613928 -90.3635547 26.07822846 -88.06738281 24.46777344 C-85.98144531 23.26074219 -85.98144531 23.26074219 -82.98144531 23.26074219 C-82.98144531 22.60074219 -82.98144531 21.94074219 -82.98144531 21.26074219 C-81.33144531 20.93074219 -79.68144531 20.60074219 -77.98144531 20.26074219 C-77.98144531 19.60074219 -77.98144531 18.94074219 -77.98144531 18.26074219 C-72.35644531 15.26074219 -72.35644531 15.26074219 -68.98144531 15.26074219 C-68.98144531 14.60074219 -68.98144531 13.94074219 -68.98144531 13.26074219 C-66.34144531 12.93074219 -63.70144531 12.60074219 -60.98144531 12.26074219 C-60.98144531 11.60074219 -60.98144531 10.94074219 -60.98144531 10.26074219 C-58.34144531 9.93074219 -55.70144531 9.60074219 -52.98144531 9.26074219 C-52.98144531 8.60074219 -52.98144531 7.94074219 -52.98144531 7.26074219 C-50.48604801 6.45159108 -47.98652529 5.66393457 -45.48144531 4.88574219 C-44.46630859 4.55316406 -44.46630859 4.55316406 -43.43066406 4.21386719 C-29.31419419 -0.11009656 -14.61879871 -0.06176288 0 0 Z M59.01855469 110.26074219 C59.01855469 110.92074219 59.01855469 111.58074219 59.01855469 112.26074219 C57.90480469 112.35355469 57.90480469 112.35355469 56.76855469 112.44824219 C53.12895838 113.52357746 52.22773903 115.22311371 50.01855469 118.26074219 C47.60303689 120.8001327 45.2195608 123.10385936 42.45605469 125.26074219 C39.95430012 127.16818592 39.95430012 127.16818592 38.14355469 129.63574219 C36.34252632 131.86054193 34.698813 133.45159167 32.51855469 135.26074219 C29.59928862 137.68932311 27.33998852 140.2428782 25.01855469 143.26074219 C22.60303689 145.8001327 20.2195608 148.10385936 17.45605469 150.26074219 C14.95430012 152.16818592 14.95430012 152.16818592 13.14355469 154.63574219 C10.88356496 157.42749421 8.43429705 159.50087086 5.68261719 161.78417969 C3.49953702 163.72127899 1.82379719 165.97410168 0.01855469 168.26074219 C-0.76519531 168.87949219 -1.54894531 169.49824219 -2.35644531 170.13574219 C-5.14683916 172.39463245 -7.21938269 174.84195717 -9.50097656 177.59277344 C-11.43986378 179.77721893 -13.68728622 181.46261749 -15.98144531 183.26074219 C-17.74468036 185.38677403 -17.74468036 185.38677403 -18.98144531 187.26074219 C-20.66894531 187.13574219 -20.66894531 187.13574219 -22.98144531 186.26074219 C-24.20105977 184.84335242 -25.41402404 183.4183258 -26.55957031 181.94042969 C-28.08809946 180.13474966 -29.72017565 178.70246247 -31.54394531 177.19824219 C-34.44540372 174.79811569 -36.64453711 172.22082591 -38.98144531 169.26074219 C-40.15707031 168.33261719 -40.15707031 168.33261719 -41.35644531 167.38574219 C-44.14386004 165.1292636 -46.27961952 162.70160647 -48.55175781 159.94433594 C-49.02355469 159.38875 -49.49535156 158.83316406 -49.98144531 158.26074219 C-50.41972656 157.72191406 -50.85800781 157.18308594 -51.30957031 156.62792969 C-55.4880332 153.21096237 -62.43108402 153.11780158 -67.62988281 153.40917969 C-71.59263656 154.10694031 -73.50053073 154.76717195 -76.35644531 157.69824219 C-77.16082031 158.96667969 -77.16082031 158.96667969 -77.98144531 160.26074219 C-78.51769531 160.75574219 -79.05394531 161.25074219 -79.60644531 161.76074219 C-82.86312566 165.31348438 -83.4313592 169.42129066 -83.29785156 174.14746094 C-81.97736845 182.96698392 -75.1457655 189.40789328 -68.59863281 194.83105469 C-66.98144531 196.26074219 -66.98144531 196.26074219 -65.04394531 198.69824219 C-63.17726616 201.01744962 -61.36433993 202.71930611 -59.10644531 204.63574219 C-55.86848975 207.39488731 -53.17841646 210.28922692 -50.48535156 213.56933594 C-48.3858712 215.93056969 -45.9977857 217.85757951 -43.56347656 219.86230469 C-41.98144531 221.26074219 -41.98144531 221.26074219 -40.04394531 223.76074219 C-36.34049312 228.24977515 -32.17125538 231.71328967 -26.48144531 233.13574219 C-25.65644531 233.17699219 -24.83144531 233.21824219 -23.98144531 233.26074219 C-23.98144531 233.92074219 -23.98144531 234.58074219 -23.98144531 235.26074219 C-16.48241168 235.88566166 -11.8164152 233.35861991 -5.85644531 228.94824219 C-3.12553584 226.39543551 -0.7893654 223.74906022 1.58886719 220.87792969 C3.01855469 219.26074219 3.01855469 219.26074219 5.45605469 217.32324219 C7.77526212 215.45656304 9.47711861 213.64363681 11.39355469 211.38574219 C13.62797809 208.76440565 15.85647397 206.44531964 18.51855469 204.26074219 C21.83411237 201.53724838 24.49484635 198.46766455 27.26464844 195.20214844 C29.43571075 192.79899038 31.82916753 190.81556341 34.32714844 188.76464844 C36.68882423 186.66477505 38.61579209 184.27490587 40.62402344 181.84277344 C42.01855469 180.26074219 42.01855469 180.26074219 44.45605469 178.32324219 C46.77526212 176.45656304 48.47711861 174.64363681 50.39355469 172.38574219 C53.15269981 169.14778663 56.04703942 166.45771333 59.32714844 163.76464844 C61.68882423 161.66477505 63.61579209 159.27490587 65.62402344 156.84277344 C67.01855469 155.26074219 67.01855469 155.26074219 69.45605469 153.32324219 C72.47602045 150.89253803 74.80057457 148.13734182 77.27246094 145.16308594 C79.01855469 143.26074219 79.01855469 143.26074219 81.18652344 141.71386719 C83.35687674 140.30095793 83.35687674 140.30095793 83.76855469 137.07324219 C83.85105469 136.14511719 83.93355469 135.21699219 84.01855469 134.26074219 C84.67855469 134.26074219 85.33855469 134.26074219 86.01855469 134.26074219 C86.01855469 130.30074219 86.01855469 126.34074219 86.01855469 122.26074219 C85.35855469 122.26074219 84.69855469 122.26074219 84.01855469 122.26074219 C83.95667969 121.35324219 83.89480469 120.44574219 83.83105469 119.51074219 C82.82373278 115.48145457 81.49849517 114.41499106 78.01855469 112.26074219 C77.02855469 112.26074219 76.03855469 112.26074219 75.01855469 112.26074219 C75.01855469 111.60074219 75.01855469 110.94074219 75.01855469 110.26074219 C73.29041308 110.06401854 71.56096272 109.8787742 69.83105469 109.69824219 C68.868125 109.59382813 67.90519531 109.48941406 66.91308594 109.38183594 C64.07622092 109.26315467 61.76431798 109.5830858 59.01855469 110.26074219 Z " fill="#3eab95" transform="translate(534.9814453125,-0.2607421875)"/>
    <path d="M0 0 C0.639375 0.515625 1.27875 1.03125 1.9375 1.5625 C1.9375 2.2225 1.9375 2.8825 1.9375 3.5625 C3.5875 3.8925 5.2375 4.2225 6.9375 4.5625 C6.9375 5.2225 6.9375 5.8825 6.9375 6.5625 C7.494375 6.68625 8.05125 6.81 8.625 6.9375 C11.15864364 7.62226855 13.51671032 8.55383763 15.9375 9.5625 C15.9375 10.2225 15.9375 10.8825 15.9375 11.5625 C16.7625 11.665625 17.5875 11.76875 18.4375 11.875 C22.53039012 12.67896056 26.06290225 14.02602158 29.9375 15.5625 C29.9375 16.2225 29.9375 16.8825 29.9375 17.5625 C31.13375 17.68625 32.33 17.81 33.5625 17.9375 C37.21346813 18.38575054 40.48274899 19.26696837 43.9375 20.5625 C43.9375 21.2225 43.9375 21.8825 43.9375 22.5625 C49.2175 22.8925 54.4975 23.2225 59.9375 23.5625 C59.9375 24.2225 59.9375 24.8825 59.9375 25.5625 C74.4575 25.5625 88.9775 25.5625 103.9375 25.5625 C103.9375 24.9025 103.9375 24.2425 103.9375 23.5625 C104.86691406 23.45292969 105.79632812 23.34335937 106.75390625 23.23046875 C114.46401713 22.42701938 114.46401713 22.42701938 121.75 20 C125.79093293 18.17761848 129.55235855 17.85086531 133.9375 17.5625 C133.9375 16.9025 133.9375 16.2425 133.9375 15.5625 C136.2475 15.2325 138.5575 14.9025 140.9375 14.5625 C140.9375 13.9025 140.9375 13.2425 140.9375 12.5625 C144.4025 12.0675 144.4025 12.0675 147.9375 11.5625 C147.9375 10.9025 147.9375 10.2425 147.9375 9.5625 C153.5625 6.5625 153.5625 6.5625 156.9375 6.5625 C156.9375 5.9025 156.9375 5.2425 156.9375 4.5625 C158.5875 4.2325 160.2375 3.9025 161.9375 3.5625 C161.9375 2.9025 161.9375 2.2425 161.9375 1.5625 C163.4225 1.0675 163.4225 1.0675 164.9375 0.5625 C165.329375 0.046875 165.72125 -0.46875 166.125 -1 C168.52899132 -2.9066138 170.59396875 -2.90368255 173.59765625 -2.80859375 C177.97431122 -2.1144665 181.93221147 -0.2759931 185.9375 1.5625 C185.9375 2.2225 185.9375 2.8825 185.9375 3.5625 C186.824375 3.665625 187.71125 3.76875 188.625 3.875 C192.0201755 4.57965907 194.15692098 5.5179566 196.9375 7.5625 C196.9375 8.2225 196.9375 8.8825 196.9375 9.5625 C197.80375 9.748125 197.80375 9.748125 198.6875 9.9375 C200.96085767 10.56898824 202.8628529 11.45108191 204.9375 12.5625 C204.9375 13.2225 204.9375 13.8825 204.9375 14.5625 C205.700625 14.85125 206.46375 15.14 207.25 15.4375 C209.9375 16.5625 209.9375 16.5625 212.9375 18.5625 C212.9375 19.2225 212.9375 19.8825 212.9375 20.5625 C213.5975 20.5625 214.2575 20.5625 214.9375 20.5625 C215.2675 21.2225 215.5975 21.8825 215.9375 22.5625 C216.9275 22.8925 217.9175 23.2225 218.9375 23.5625 C218.9375 24.2225 218.9375 24.8825 218.9375 25.5625 C219.9275 25.8925 220.9175 26.2225 221.9375 26.5625 C221.9375 27.2225 221.9375 27.8825 221.9375 28.5625 C222.9275 28.8925 223.9175 29.2225 224.9375 29.5625 C224.9375 30.2225 224.9375 30.8825 224.9375 31.5625 C225.5975 31.5625 226.2575 31.5625 226.9375 31.5625 C227.96361949 33.21321396 228.96058143 34.88220006 229.9375 36.5625 C230.7728125 37.3978125 230.7728125 37.3978125 231.625 38.25 C232.058125 38.683125 232.49125 39.11625 232.9375 39.5625 C232.9375 40.2225 232.9375 40.8825 232.9375 41.5625 C233.5975 41.5625 234.2575 41.5625 234.9375 41.5625 C235.2675 42.8825 235.5975 44.2025 235.9375 45.5625 C236.5975 45.5625 237.2575 45.5625 237.9375 45.5625 C237.9375 46.5525 237.9375 47.5425 237.9375 48.5625 C238.5975 48.5625 239.2575 48.5625 239.9375 48.5625 C240.2675 50.2125 240.5975 51.8625 240.9375 53.5625 C241.5975 53.5625 242.2575 53.5625 242.9375 53.5625 C243.2675 55.2125 243.5975 56.8625 243.9375 58.5625 C244.5975 58.5625 245.2575 58.5625 245.9375 58.5625 C246.2675 60.5425 246.5975 62.5225 246.9375 64.5625 C247.5975 64.5625 248.2575 64.5625 248.9375 64.5625 C258.49555085 89.2154661 258.49555085 89.2154661 257.9375 100.5625 C258.5975 100.5625 259.2575 100.5625 259.9375 100.5625 C260.93013429 109.92162329 261.04481538 119.16644198 260.9375 128.5625 C261.5975 128.5625 262.2575 128.5625 262.9375 128.5625 C262.99808594 129.70589844 263.05867188 130.84929687 263.12109375 132.02734375 C263.20548428 133.51824305 263.29013302 135.00912775 263.375 136.5 C263.41431641 137.25474609 263.45363281 138.00949219 263.49414062 138.78710938 C263.37788024 142.48194187 263.37788024 142.48194187 264.9375 145.5625 C265.15487292 147.76641989 265.30933178 149.97659819 265.4375 152.1875 C265.47810547 152.84959473 265.51871094 153.51168945 265.56054688 154.19384766 C265.73477028 157.0370396 265.89809033 159.88083583 266.0625 162.72460938 C266.18377829 164.79581525 266.31049658 166.86663862 266.4375 168.9375 C266.5096875 170.18273437 266.581875 171.42796875 266.65625 172.7109375 C266.6229446 175.45937363 266.6229446 175.45937363 267.9375 176.5625 C268.32166635 179.75540576 268.40850205 182.97618988 268.5625 186.1875 C268.63984375 187.52361328 268.63984375 187.52361328 268.71875 188.88671875 C269.10220296 196.54449987 268.77002425 202.73060895 264.9375 209.5625 C264.2775 209.5625 263.6175 209.5625 262.9375 209.5625 C262.9375 210.5525 262.9375 211.5425 262.9375 212.5625 C261.625 214.25 261.625 214.25 259.9375 215.5625 C258.9475 215.5625 257.9575 215.5625 256.9375 215.5625 C256.9375 216.2225 256.9375 216.8825 256.9375 217.5625 C252.78372392 219.12058637 249.35116334 219.81277809 244.92168427 219.81418228 C243.73256707 219.81939778 242.54344987 219.82461327 241.31829882 219.82998681 C240.02083711 219.82552537 238.72337541 219.82106392 237.38659668 219.81646729 C235.98738553 219.81877255 234.58817559 219.82194951 233.18896818 219.82592177 C229.34894144 219.8342694 225.50901413 219.83014465 221.66898704 219.82394934 C217.52578289 219.81942573 213.38259589 219.82640816 209.23939514 219.83190918 C201.12479301 219.84080579 193.01022786 219.83887997 184.89562428 219.8330839 C178.30113555 219.82856847 171.70665719 219.82795399 165.11216736 219.83013153 C163.70471408 219.83059123 163.70471408 219.83059123 162.26882741 219.83106022 C160.362728 219.83169966 158.45662859 219.83234809 156.55052918 219.8330054 C138.67397866 219.83870948 120.79744864 219.83214958 102.92090148 219.82140467 C87.5795816 219.81246909 72.23829199 219.81402111 56.89697266 219.82324219 C39.08470362 219.83394344 21.27245256 219.83816015 3.46018076 219.83201766 C1.56106472 219.83138056 -0.33805132 219.83075182 -2.23716736 219.83013153 C-3.63879613 219.8296687 -3.63879613 219.8296687 -5.06874064 219.82919653 C-11.65586261 219.82746915 -18.24297318 219.83038561 -24.83009338 219.83509064 C-32.85678684 219.84069785 -40.88344117 219.83918637 -48.91013014 219.82852915 C-53.006026 219.8232703 -57.10185661 219.82121934 -61.197752 219.82782745 C-64.94682909 219.83378459 -68.69578042 219.8305157 -72.44484609 219.81987235 C-74.44433046 219.81657811 -76.44382355 219.82311143 -78.44329882 219.82998681 C-79.63241601 219.82477132 -80.82153321 219.81955582 -82.04668427 219.81418228 C-83.07095504 219.81385758 -84.09522582 219.81353287 -85.15053511 219.81319833 C-88.36924205 219.53609181 -91.0464483 218.6938246 -94.0625 217.5625 C-94.0625 216.9025 -94.0625 216.2425 -94.0625 215.5625 C-94.7225 215.5625 -95.3825 215.5625 -96.0625 215.5625 C-96.0625 214.9025 -96.0625 214.2425 -96.0625 213.5625 C-97.0525 213.2325 -98.0425 212.9025 -99.0625 212.5625 C-99.0625 211.9025 -99.0625 211.2425 -99.0625 210.5625 C-99.7225 210.5625 -100.3825 210.5625 -101.0625 210.5625 C-101.3925 208.5825 -101.7225 206.6025 -102.0625 204.5625 C-102.7225 204.5625 -103.3825 204.5625 -104.0625 204.5625 C-106.58655603 193.6048917 -104.86269404 181.69377064 -104.0625 170.5625 C-103.4025 170.5625 -102.7425 170.5625 -102.0625 170.5625 C-102.07410156 169.65371094 -102.08570313 168.74492188 -102.09765625 167.80859375 C-102.16298592 158.7091046 -102.06722583 149.61743651 -101.0625 140.5625 C-100.7325 140.2325 -100.4025 139.9025 -100.0625 139.5625 C-99.84534087 137.43162599 -99.69076113 135.29431716 -99.5625 133.15625 C-99.48 131.85558594 -99.3975 130.55492187 -99.3125 129.21484375 C-99.22863606 127.83076121 -99.14530939 126.44664603 -99.0625 125.0625 C-98.90106781 122.36418616 -98.73361554 119.66649348 -98.5625 116.96875 C-98.4903125 115.76541016 -98.418125 114.56207031 -98.34375 113.32226562 C-98.0625 110.5625 -98.0625 110.5625 -97.0625 109.5625 C-96.70823726 107.06182182 -96.40126355 104.57194084 -96.125 102.0625 C-95.43310179 96.11984848 -94.51572124 90.37538496 -93.0625 84.5625 C-92.4025 84.5625 -91.7425 84.5625 -91.0625 84.5625 C-90.7325 81.5925 -90.4025 78.6225 -90.0625 75.5625 C-89.4025 75.5625 -88.7425 75.5625 -88.0625 75.5625 C-87.7325 72.9225 -87.4025 70.2825 -87.0625 67.5625 C-86.4025 67.5625 -85.7425 67.5625 -85.0625 67.5625 C-84.7325 65.5825 -84.4025 63.6025 -84.0625 61.5625 C-83.4025 61.5625 -82.7425 61.5625 -82.0625 61.5625 C-82.0625 60.2425 -82.0625 58.9225 -82.0625 57.5625 C-81.4025 57.5625 -80.7425 57.5625 -80.0625 57.5625 C-79.959375 56.840625 -79.85625 56.11875 -79.75 55.375 C-78.99456053 52.28456579 -77.90718685 50.14506159 -76.0625 47.5625 C-75.4025 47.5625 -74.7425 47.5625 -74.0625 47.5625 C-73.77375 46.799375 -73.485 46.03625 -73.1875 45.25 C-72.0625 42.5625 -72.0625 42.5625 -70.0625 39.5625 C-69.4025 39.5625 -68.7425 39.5625 -68.0625 39.5625 C-68.0625 38.9025 -68.0625 38.2425 -68.0625 37.5625 C-67.4025 37.5625 -66.7425 37.5625 -66.0625 37.5625 C-65.7325 36.2425 -65.4025 34.9225 -65.0625 33.5625 C-64.4025 33.5625 -63.7425 33.5625 -63.0625 33.5625 C-62.815 32.985 -62.5675 32.4075 -62.3125 31.8125 C-60.87950012 29.23310021 -59.27825324 27.50128408 -57.0625 25.5625 C-56.4025 25.5625 -55.7425 25.5625 -55.0625 25.5625 C-54.5675 24.0775 -54.5675 24.0775 -54.0625 22.5625 C-53.4025 22.5625 -52.7425 22.5625 -52.0625 22.5625 C-52.0625 21.9025 -52.0625 21.2425 -52.0625 20.5625 C-48.60096154 17.5625 -48.60096154 17.5625 -46.0625 17.5625 C-46.0625 16.9025 -46.0625 16.2425 -46.0625 15.5625 C-44.4125 15.2325 -42.7625 14.9025 -41.0625 14.5625 C-40.5675 13.0775 -40.5675 13.0775 -40.0625 11.5625 C-39.0725 11.5625 -38.0825 11.5625 -37.0625 11.5625 C-37.0625 10.9025 -37.0625 10.2425 -37.0625 9.5625 C-34.15701118 7.52080515 -32.66107954 6.5625 -29.0625 6.5625 C-29.0625 5.9025 -29.0625 5.2425 -29.0625 4.5625 C-26.0925 4.0675 -26.0925 4.0675 -23.0625 3.5625 C-23.0625 2.9025 -23.0625 2.2425 -23.0625 1.5625 C-19.5975 1.0675 -19.5975 1.0675 -16.0625 0.5625 C-16.0625 -0.0975 -16.0625 -0.7575 -16.0625 -1.4375 C-10.54694699 -3.08841383 -5.17783112 -2.43041052 0 0 Z " fill="#3eab95" transform="translate(456.0625,620.4375)"/>
    <path d="M0 0 C0 0.66 0 1.32 0 2 C0.804375 2.12375 1.60875 2.2475 2.4375 2.375 C3.7059375 2.684375 3.7059375 2.684375 5 3 C5.495 3.99 5.495 3.99 6 5 C7.61624466 5.88936214 9.26830891 6.71449831 10.9375 7.5 C15.79019074 9.79019074 15.79019074 9.79019074 18 12 C19.97795822 12.84523215 21.98285918 13.62808701 24 14.375 C28.17749963 15.93521533 32.321869 17.53358768 36.4375 19.25 C39.94362684 20.66846567 43.21275767 21.60134291 47 22 C47 22.66 47 23.32 47 24 C53.93 24.495 53.93 24.495 61 25 C61 25.66 61 26.32 61 27 C65.90722293 27.02500545 70.81440752 27.04300225 75.72167969 27.05493164 C77.38574877 27.05991292 79.04981359 27.06670037 80.71386719 27.07543945 C98.58197359 27.4022986 98.58197359 27.4022986 116 24 C119.04004716 23.24202577 122.08550552 22.50943764 125.1328125 21.78125 C128.00738185 21.0581597 128.00738185 21.0581597 130.69140625 19.9140625 C133.27851661 18.88972439 135.24265455 18.8424374 138 19 C138 18.34 138 17.68 138 17 C140.64 16.67 143.28 16.34 146 16 C146 15.34 146 14.68 146 14 C147.98 13.67 149.96 13.34 152 13 C152 12.34 152 11.68 152 11 C153.7664657 9.9923048 155.53833823 8.99408286 157.3125 8 C158.29863281 7.443125 159.28476562 6.88625 160.30078125 6.3125 C163 5 163 5 166 5 C166.33 4.01 166.66 3.02 167 2 C169.40642677 -0.10562342 171.10337868 -1.0135169 174.33203125 -0.96484375 C176.57321175 -0.71425506 178.78117057 -0.40122624 181 0 C181 0.66 181 1.32 181 2 C184.96 2.495 184.96 2.495 189 3 C189 3.66 189 4.32 189 5 C190.98 5.33 192.96 5.66 195 6 C195 6.66 195 7.32 195 8 C197.65228812 9.07525194 200.28368454 10.09456151 203 11 C203 11.66 203 12.32 203 13 C203.7425 13.0825 204.485 13.165 205.25 13.25 C208.55699631 14.15190808 209.68452365 15.53513808 212 18 C212.639375 18.309375 213.27875 18.61875 213.9375 18.9375 C216.86081477 20.44345003 218.73834495 22.62802031 221 25 C222.2375 26.2375 222.2375 26.2375 223.5 27.5 C224.7375 28.7375 224.7375 28.7375 226 30 C226.928125 30.86625 227.85625 31.7325 228.8125 32.625 C231 35 231 35 231 38 C231.99 38.33 232.98 38.66 234 39 C234 39.66 234 40.32 234 41 C234.639375 41.2475 235.27875 41.495 235.9375 41.75 C238 43 238 43 238.75 45.125 C238.8325 45.74375 238.915 46.3625 239 47 C239.66 47 240.32 47 241 47 C241.33 48.65 241.66 50.3 242 52 C242.66 52 243.32 52 244 52 C245.0076952 53.7664657 246.00591714 55.53833823 247 57.3125 C247.556875 58.29863281 248.11375 59.28476562 248.6875 60.30078125 C250 63 250 63 250 66 C250.66 66 251.32 66 252 66 C252.67467562 67.74692795 253.33944156 69.49768525 254 71.25 C254.37125 72.22453125 254.7425 73.1990625 255.125 74.203125 C256 77 256 77 256 81 C256.66 81 257.32 81 258 81 C258.33 84.63 258.66 88.26 259 92 C259.66 92 260.32 92 261 92 C261.144375 93.134375 261.28875 94.26875 261.4375 95.4375 C261.61171478 98.80777201 261.61171478 98.80777201 263 100 C264.65387501 108.82066671 264.09325702 118.06804968 264 127 C264.66 127 265.32 127 266 127 C266.08302368 128.40076782 266.08302368 128.40076782 266.16772461 129.82983398 C266.37462225 133.2833668 266.58566492 136.7365936 266.79956055 140.18969727 C266.89140407 141.68634025 266.98157769 143.18308667 267.07006836 144.67993164 C267.19730269 146.82727761 267.33047199 148.97418411 267.46484375 151.12109375 C267.58267212 153.06133423 267.58267212 153.06133423 267.70288086 155.04077148 C267.67304523 157.88402122 267.67304523 157.88402122 269 159 C269.24614105 161.36113079 269.42813971 163.69422743 269.5625 166.0625 C269.6049585 166.76826172 269.64741699 167.47402344 269.69116211 168.20117188 C270.10861591 175.80101494 270.09105654 183.39171983 270 191 C270.66 191 271.32 191 272 191 C272.21869649 196.46741218 272.04215704 200.83454395 270 206 C269.65023242 207.32911682 269.30903983 208.66082739 269 210 C268.34 210 267.68 210 267 210 C266.896875 210.598125 266.79375 211.19625 266.6875 211.8125 C265.90175967 214.31258286 265.03081147 215.37535082 263 217 C262.34 217 261.68 217 261 217 C261 217.66 261 218.32 261 219 C259.02 219.33 257.04 219.66 255 220 C255 220.66 255 221.32 255 222 C249.97523025 222.82057711 245.09530604 223.15309879 240.00097656 223.16113281 C239.23424118 223.16609772 238.4675058 223.17106262 237.67753601 223.17617798 C235.16522296 223.19067267 232.65297281 223.19757632 230.140625 223.203125 C228.38661702 223.20888213 226.63260905 223.21463979 224.87860107 223.22039795 C221.21382354 223.23086834 217.54906771 223.23673845 213.88427734 223.24023438 C209.18428343 223.24574421 204.48457554 223.26984141 199.78467178 223.29820633 C196.16791936 223.31679713 192.55123679 223.32203616 188.93444061 223.32357025 C187.20084806 223.32659985 185.46725682 223.33463869 183.73371124 223.34775543 C181.31606334 223.36475939 178.89912829 223.36295114 176.48144531 223.35644531 C175.76452011 223.3656601 175.04759491 223.37487488 174.3089447 223.3843689 C169.47289281 223.34348284 169.47289281 223.34348284 167.13006592 221.64178467 C166.17652377 220.25645763 165.29770175 218.82013894 164.4375 217.375 C163.22087094 214.88809625 163.22087094 214.88809625 161 214 C160.375 211.4375 160.375 211.4375 160 209 C159.01 208.67 158.02 208.34 157 208 C155.8125 205.4375 155.8125 205.4375 155 203 C154.34 203 153.68 203 153 203 C152.67 201.35 152.34 199.7 152 198 C151.01 197.67 150.02 197.34 149 197 C149 196.01 149 195.02 149 194 C148.34 194 147.68 194 147 194 C146.67 192.68 146.34 191.36 146 190 C145.34 190 144.68 190 144 190 C144 189.01 144 188.02 144 187 C143.01 186.67 142.02 186.34 141 186 C139.39453125 184.00390625 139.39453125 184.00390625 137.8125 181.5625 C137.28269531 180.75941406 136.75289062 179.95632813 136.20703125 179.12890625 C135 177 135 177 135 175 C134.34 175 133.68 175 133 175 C131.55473264 173.26451831 130.1912778 171.46024037 128.875 169.625 C128.15054688 168.62726563 127.42609375 167.62953125 126.6796875 166.6015625 C125 164 125 164 125 162 C124.4740625 161.76410156 123.948125 161.52820313 123.40625 161.28515625 C119.6328922 159.26984015 116.23611059 156.6952944 112.77734375 154.18945312 C109.92214959 152.16564381 107.5125617 150.49072553 104 150 C104 149.34 104 148.68 104 148 C100.7 147.67 97.4 147.34 94 147 C94 146.34 94 145.68 94 145 C90.45772899 145.11055553 86.9164564 145.24102309 83.375 145.375 C81.87646484 145.42140625 81.87646484 145.42140625 80.34765625 145.46875 C75.18424326 145.67391873 70.86170935 146.09224063 66 148 C63.125 148.125 63.125 148.125 61 148 C61 148.66 61 149.32 61 150 C59.02 150.33 57.04 150.66 55 151 C55 151.66 55 152.32 55 153 C53.1015625 154.5078125 53.1015625 154.5078125 50.625 156.125 C49.81289062 156.66382813 49.00078125 157.20265625 48.1640625 157.7578125 C46 159 46 159 44 159 C44 159.66 44 160.32 44 161 C42.625 162.625 42.625 162.625 41 164 C40.34 164 39.68 164 39 164 C38.71125 164.763125 38.4225 165.52625 38.125 166.3125 C37 169 37 169 35 172 C34.34 172 33.68 172 33 172 C33 172.99 33 173.98 33 175 C31.68870078 176.35500919 30.35308313 177.68671343 29 179 C27.76487921 181.13309192 27.76487921 181.13309192 27 183 C26.34 183 25.68 183 25 183 C24.67 184.32 24.34 185.64 24 187 C23.34 187 22.68 187 22 187 C21.5359375 188.175625 21.5359375 188.175625 21.0625 189.375 C20 192 20 192 19 194 C18.34 194 17.68 194 17 194 C16.67 195.32 16.34 196.64 16 198 C15.34 198 14.68 198 14 198 C13.71125 198.763125 13.4225 199.52625 13.125 200.3125 C12 203 12 203 10 206 C9.34 206 8.68 206 8 206 C8 206.99 8 207.98 8 209 C7.34 209 6.68 209 6 209 C5.67 210.32 5.34 211.64 5 213 C4.34 213 3.68 213 3 213 C2.67 214.32 2.34 215.64 2 217 C1.34 217 0.68 217 0 217 C-0.185625 218.2065625 -0.185625 218.2065625 -0.375 219.4375 C-0.58125 220.283125 -0.7875 221.12875 -1 222 C-3.93019247 223.46509623 -6.88059755 223.14736572 -10.0925293 223.14526367 C-10.82284866 223.14862228 -11.55316803 223.1519809 -12.30561829 223.15544128 C-14.72850227 223.16496632 -17.15131719 223.16689554 -19.57421875 223.16796875 C-21.25852995 223.17118158 -22.94284088 223.17454567 -24.62715149 223.17805481 C-28.16379442 223.18405089 -31.70041289 223.18589435 -35.23706055 223.18530273 C-39.75850419 223.18520139 -44.27978982 223.19882306 -48.8011961 223.21607494 C-52.28343925 223.22722401 -55.76564465 223.22922101 -59.24790382 223.22869301 C-60.91398472 223.22986992 -62.5800667 223.23427542 -64.24612999 223.24202538 C-66.58436301 223.2518787 -68.92225901 223.24892574 -71.26049805 223.24291992 C-71.94284515 223.24853943 -72.62519226 223.25415894 -73.32821655 223.25994873 C-80.12944184 223.21580248 -86.15839027 221.47714865 -92 218 C-92.33 217.01 -92.66 216.02 -93 215 C-93.99 214.67 -94.98 214.34 -96 214 C-96 213.34 -96 212.68 -96 212 C-96.66 212 -97.32 212 -98 212 C-98 211.01 -98 210.02 -98 209 C-98.66 209 -99.32 209 -100 209 C-102.32121444 200.10180866 -101.99184608 191.76243851 -101.35131836 182.69873047 C-101.18541582 180.34543636 -101.03942771 177.99150928 -100.89648438 175.63671875 C-100.80060957 174.14055213 -100.70364586 172.6444548 -100.60546875 171.1484375 C-100.53817818 170.09237808 -100.53817818 170.09237808 -100.4695282 169.01498413 C-100.11708993 164.11708993 -100.11708993 164.11708993 -99 163 C-98.78296589 160.96568197 -98.62831281 158.92464733 -98.5 156.8828125 C-98.4175 155.63628906 -98.335 154.38976562 -98.25 153.10546875 C-98.1675 151.79191406 -98.085 150.47835937 -98 149.125 C-97.8369384 146.54404054 -97.67043438 143.96329558 -97.5 141.3828125 C-97.4278125 140.23184082 -97.355625 139.08086914 -97.28125 137.89501953 C-97 135 -97 135 -96 132 C-95.77202438 129.26710707 -95.58331813 126.54957796 -95.4375 123.8125 C-95.37272461 122.68811523 -95.37272461 122.68811523 -95.30664062 121.54101562 C-95.20077315 119.69421625 -95.0999024 117.84713166 -95 116 C-94.34 116 -93.68 116 -93 116 C-93.01160156 115.154375 -93.02320312 114.30875 -93.03515625 113.4375 C-93.10679257 104.43179089 -92.61710905 96.66917373 -90 88 C-89.64628502 86.33753959 -89.30404678 84.67225729 -89 83 C-88.34 83 -87.68 83 -87 83 C-86.87625 81.783125 -86.7525 80.56625 -86.625 79.3125 C-86.21108694 75.93520941 -85.45426549 73.10243305 -84 70 C-83.34 70 -82.68 70 -82 70 C-81.67 68.02 -81.34 66.04 -81 64 C-80.34 64 -79.68 64 -79 64 C-78.67 62.02 -78.34 60.04 -78 58 C-77.34 58 -76.68 58 -76 58 C-75.67 56.35 -75.34 54.7 -75 53 C-74.34 53 -73.68 53 -73 53 C-72.91621094 52.45859375 -72.83242187 51.9171875 -72.74609375 51.359375 C-71.74149281 48.18252177 -70.02577067 45.93396497 -68.0625 43.25 C-67.35222656 42.26515625 -66.64195313 41.2803125 -65.91015625 40.265625 C-65.27980469 39.51796875 -64.64945313 38.7703125 -64 38 C-63.34 38 -62.68 38 -62 38 C-61.731875 37.360625 -61.46375 36.72125 -61.1875 36.0625 C-60 34 -60 34 -57 33 C-56.67 32.01 -56.34 31.02 -56 30 C-55.34 30 -54.68 30 -54 30 C-53.505 28.515 -53.505 28.515 -53 27 C-52.34 27 -51.68 27 -51 27 C-50.505 25.515 -50.505 25.515 -50 24 C-49.34 24 -48.68 24 -48 24 C-48 23.34 -48 22.68 -48 22 C-47.34 22 -46.68 22 -46 22 C-46 21.34 -46 20.68 -46 20 C-44.68 19.67 -43.36 19.34 -42 19 C-42 18.34 -42 17.68 -42 17 C-39.53056981 15.27979013 -37.06738806 13.68637253 -34.5 12.125 C-33.45585937 11.47337891 -33.45585937 11.47337891 -32.390625 10.80859375 C-19.28830645 2.72883065 -19.28830645 2.72883065 -12 2 C-12 1.34 -12 0.68 -12 0 C-8.04395608 -1.21724428 -3.79359325 -1.89679663 0 0 Z " fill="#3eab95" transform="translate(102,288)"/>
    <path d="M0 0 C0.97026123 0.03456299 1.94052246 0.06912598 2.94018555 0.10473633 C8.91047922 0.38383646 14.47473087 1.15335795 20.25 2.6875 C22.03664062 3.15929688 22.03664062 3.15929688 23.859375 3.640625 C34.21110752 6.83678205 43.91343448 11.21367156 53.25 16.6875 C53.25 17.3475 53.25 18.0075 53.25 18.6875 C54.9 19.0175 56.55 19.3475 58.25 19.6875 C58.25 20.3475 58.25 21.0075 58.25 21.6875 C58.91 21.873125 59.57 22.05875 60.25 22.25 C66.4353122 25.21379543 71.17224816 30.25049755 75.25 35.6875 C75.8275 36.244375 76.405 36.80125 77 37.375 C78.25 38.6875 78.25 38.6875 78.25 40.6875 C79.24 41.0175 80.23 41.3475 81.25 41.6875 C82.4375 44.25 82.4375 44.25 83.25 46.6875 C83.91 46.6875 84.57 46.6875 85.25 46.6875 C85.51554688 47.25339844 85.78109375 47.81929687 86.0546875 48.40234375 C86.58449219 49.50255859 86.58449219 49.50255859 87.125 50.625 C87.47304688 51.35589844 87.82109375 52.08679688 88.1796875 52.83984375 C89.1184977 54.85082459 89.1184977 54.85082459 91.25 55.6875 C93.3962701 59.40219824 94.25 61.32894712 94.25 65.6875 C94.91 65.6875 95.57 65.6875 96.25 65.6875 C103.96207994 87.76675426 103.96207994 87.76675426 103.25 99.6875 C103.91 99.6875 104.57 99.6875 105.25 99.6875 C105.27886984 103.66665159 105.29675406 107.64577653 105.3125 111.625 C105.32087891 112.76130859 105.32925781 113.89761719 105.33789062 115.06835938 C105.34111328 116.14794922 105.34433594 117.22753906 105.34765625 118.33984375 C105.35289307 119.34007568 105.35812988 120.34030762 105.36352539 121.37084961 C105.25 123.6875 105.25 123.6875 104.25 124.6875 C103.80059951 127.96170355 103.43179277 131.23497604 103.08789062 134.52148438 C102.59998322 138.81744961 101.76027322 142.60551655 100.25 146.6875 C99.90023242 148.01661682 99.55903983 149.34832739 99.25 150.6875 C98.59 150.6875 97.93 150.6875 97.25 150.6875 C96.92 153.3275 96.59 155.9675 96.25 158.6875 C95.59 158.6875 94.93 158.6875 94.25 158.6875 C94.12625 159.43 94.0025 160.1725 93.875 160.9375 C93.29513299 163.48891485 92.51291261 165.4142573 91.25 167.6875 C90.59 167.6875 89.93 167.6875 89.25 167.6875 C88.92 169.3375 88.59 170.9875 88.25 172.6875 C87.59 172.6875 86.93 172.6875 86.25 172.6875 C85.92 174.3375 85.59 175.9875 85.25 177.6875 C84.59 177.6875 83.93 177.6875 83.25 177.6875 C82.92 179.0075 82.59 180.3275 82.25 181.6875 C81.59 181.6875 80.93 181.6875 80.25 181.6875 C80.25 182.3475 80.25 183.0075 80.25 183.6875 C79.59 183.6875 78.93 183.6875 78.25 183.6875 C77.92 184.6775 77.59 185.6675 77.25 186.6875 C76.59 186.6875 75.93 186.6875 75.25 186.6875 C75.16621094 187.27015625 75.08242188 187.8528125 74.99609375 188.453125 C74.03273304 191.33816337 72.62020296 192.48450726 70.3125 194.4375 C69.60222656 195.05109375 68.89195312 195.6646875 68.16015625 196.296875 C66.25 197.6875 66.25 197.6875 64.25 197.6875 C63.92 198.6775 63.59 199.6675 63.25 200.6875 C56.39813708 206.03195308 45.16935538 214.6875 36.25 214.6875 C36.25 215.3475 36.25 216.0075 36.25 216.6875 C33.28 217.0175 30.31 217.3475 27.25 217.6875 C27.25 218.3475 27.25 219.0075 27.25 219.6875 C20.53819354 221.52113785 14.06699794 223.0107633 7.11328125 223.4765625 C5.2367862 223.49302147 5.2367862 223.49302147 4.25 224.6875 C2.62742456 224.7866657 1.00060169 224.81829777 -0.625 224.8203125 C-1.60984375 224.82160156 -2.5946875 224.82289063 -3.609375 224.82421875 C-4.64578125 224.82035156 -5.6821875 224.81648437 -6.75 224.8125 C-7.78640625 224.81636719 -8.8228125 224.82023438 -9.890625 224.82421875 C-10.87546875 224.82292969 -11.8603125 224.82164062 -12.875 224.8203125 C-13.78507812 224.81918457 -14.69515625 224.81805664 -15.6328125 224.81689453 C-17.75 224.6875 -17.75 224.6875 -18.75 223.6875 C-21.99483615 223.23745862 -25.23888101 222.87030726 -28.49609375 222.52539062 C-33.10613659 221.99938388 -37.32046713 221.07681543 -41.75 219.6875 C-41.75 219.0275 -41.75 218.3675 -41.75 217.6875 C-44.72 217.3575 -47.69 217.0275 -50.75 216.6875 C-50.75 216.0275 -50.75 215.3675 -50.75 214.6875 C-52.73 214.3575 -54.71 214.0275 -56.75 213.6875 C-56.75 213.0275 -56.75 212.3675 -56.75 211.6875 C-57.636875 211.605 -58.52375 211.5225 -59.4375 211.4375 C-63.19444156 210.58687172 -64.8737137 209.17509896 -67.75 206.6875 C-68.74 206.3575 -69.73 206.0275 -70.75 205.6875 C-70.75 205.0275 -70.75 204.3675 -70.75 203.6875 C-71.3275 203.39875 -71.905 203.11 -72.5 202.8125 C-74.58333333 201.77083333 -76.66666667 200.72916667 -78.75 199.6875 C-78.75 199.0275 -78.75 198.3675 -78.75 197.6875 C-79.74 197.3575 -80.73 197.0275 -81.75 196.6875 C-81.75 196.0275 -81.75 195.3675 -81.75 194.6875 C-82.41 194.6875 -83.07 194.6875 -83.75 194.6875 C-85.375 193.3125 -85.375 193.3125 -86.75 191.6875 C-86.75 191.0275 -86.75 190.3675 -86.75 189.6875 C-87.74 189.3575 -88.73 189.0275 -89.75 188.6875 C-89.75 188.0275 -89.75 187.3675 -89.75 186.6875 C-90.74 186.3575 -91.73 186.0275 -92.75 185.6875 C-92.75 185.0275 -92.75 184.3675 -92.75 183.6875 C-93.41 183.6875 -94.07 183.6875 -94.75 183.6875 C-95.08 182.0375 -95.41 180.3875 -95.75 178.6875 C-96.74 178.3575 -97.73 178.0275 -98.75 177.6875 C-98.75 177.0275 -98.75 176.3675 -98.75 175.6875 C-99.41 175.6875 -100.07 175.6875 -100.75 175.6875 C-100.75 174.6975 -100.75 173.7075 -100.75 172.6875 C-101.41 172.6875 -102.07 172.6875 -102.75 172.6875 C-103.08 171.0375 -103.41 169.3875 -103.75 167.6875 C-104.41 167.6875 -105.07 167.6875 -105.75 167.6875 C-106.08 165.7075 -106.41 163.7275 -106.75 161.6875 C-107.41 161.6875 -108.07 161.6875 -108.75 161.6875 C-109.08 159.0475 -109.41 156.4075 -109.75 153.6875 C-110.41 153.6875 -111.07 153.6875 -111.75 153.6875 C-113.78993514 148.75765675 -115.15652968 145.10789575 -114.75 139.6875 C-115.41 139.6875 -116.07 139.6875 -116.75 139.6875 C-116.83302368 138.74112671 -116.83302368 138.74112671 -116.91772461 137.77563477 C-117.1696812 134.9333232 -117.42849769 132.09167781 -117.6875 129.25 C-117.77451172 128.25677734 -117.86152344 127.26355469 -117.95117188 126.24023438 C-118.03818359 125.29599609 -118.12519531 124.35175781 -118.21484375 123.37890625 C-118.33267212 122.06708374 -118.33267212 122.06708374 -118.45288086 120.72875977 C-118.54085048 118.69735544 -118.54085048 118.69735544 -119.75 117.6875 C-119.84851171 115.85634117 -119.87972629 114.02130067 -119.875 112.1875 C-119.87757812 111.1871875 -119.88015625 110.186875 -119.8828125 109.15625 C-119.75 106.6875 -119.75 106.6875 -118.75 105.6875 C-118.54706882 104.21153503 -118.402939 102.72737465 -118.28515625 101.2421875 C-118.20716797 100.32953125 -118.12917969 99.416875 -118.04882812 98.4765625 C-117.89318982 96.55745221 -117.73949421 94.63818323 -117.58789062 92.71875 C-116.87337032 84.42334349 -114.7412634 77.43759153 -111.75 69.6875 C-111.09 69.6875 -110.43 69.6875 -109.75 69.6875 C-109.42 67.3775 -109.09 65.0675 -108.75 62.6875 C-108.09 62.6875 -107.43 62.6875 -106.75 62.6875 C-106.646875 61.98625 -106.54375 61.285 -106.4375 60.5625 C-105.65640997 57.29612353 -104.32941257 54.6403148 -102.75 51.6875 C-102.09 51.6875 -101.43 51.6875 -100.75 51.6875 C-100.481875 50.924375 -100.21375 50.16125 -99.9375 49.375 C-98.78396359 46.76436496 -97.76370135 45.61364911 -95.75 43.6875 C-95.42 42.6975 -95.09 41.7075 -94.75 40.6875 C-94.09 40.6875 -93.43 40.6875 -92.75 40.6875 C-92.5025 40.11 -92.255 39.5325 -92 38.9375 C-90.56700012 36.35810021 -88.96575324 34.62628408 -86.75 32.6875 C-86.09 32.6875 -85.43 32.6875 -84.75 32.6875 C-84.42 31.6975 -84.09 30.7075 -83.75 29.6875 C-83.09 29.6875 -82.43 29.6875 -81.75 29.6875 C-81.5025 29.048125 -81.255 28.40875 -81 27.75 C-79.75 25.6875 -79.75 25.6875 -77.625 24.9375 C-76.696875 24.81375 -76.696875 24.81375 -75.75 24.6875 C-75.75 24.0275 -75.75 23.3675 -75.75 22.6875 C-73.98042094 20.3591065 -72.93416484 19.73461194 -70.0625 19 C-69.299375 18.896875 -68.53625 18.79375 -67.75 18.6875 C-67.75 18.0275 -67.75 17.3675 -67.75 16.6875 C-66.574375 16.11 -65.39875 15.5325 -64.1875 14.9375 C-61.44039958 13.5808476 -58.84004456 12.13298421 -56.25 10.5 C-52.16132549 8.3826507 -49.29985813 8.00678829 -44.75 7.6875 C-44.75 7.0275 -44.75 6.3675 -44.75 5.6875 C-41.45 5.3575 -38.15 5.0275 -34.75 4.6875 C-34.75 4.0275 -34.75 3.3675 -34.75 2.6875 C-23.09427487 -0.02252187 -11.9049597 -0.45901148 0 0 Z " fill="#3eab95" transform="translate(193.75,54.3125)"/>
    <path d="M0 0 C1.56113525 0.00410889 1.56113525 0.00410889 3.15380859 0.00830078 C14.0264644 0.15434387 23.9978124 1.79612923 34.3125 5.3125 C35.97338045 5.67356097 37.63868981 6.01712173 39.3125 6.3125 C39.3125 6.9725 39.3125 7.6325 39.3125 8.3125 C40.26125 8.374375 41.21 8.43625 42.1875 8.5 C47.38377249 9.20421763 51.76521375 11.83299381 56.3125 14.3125 C56.3125 14.9725 56.3125 15.6325 56.3125 16.3125 C57.9625 16.6425 59.6125 16.9725 61.3125 17.3125 C61.3125 17.9725 61.3125 18.6325 61.3125 19.3125 C62.6325 19.6425 63.9525 19.9725 65.3125 20.3125 C65.3125 20.9725 65.3125 21.6325 65.3125 22.3125 C66.075625 22.60125 66.83875 22.89 67.625 23.1875 C70.3125 24.3125 70.3125 24.3125 73.3125 26.3125 C73.3125 26.9725 73.3125 27.6325 73.3125 28.3125 C73.9725 28.3125 74.6325 28.3125 75.3125 28.3125 C76.9375 29.6875 76.9375 29.6875 78.3125 31.3125 C78.3125 31.9725 78.3125 32.6325 78.3125 33.3125 C79.3025 33.6425 80.2925 33.9725 81.3125 34.3125 C81.3125 34.9725 81.3125 35.6325 81.3125 36.3125 C82.3025 36.6425 83.2925 36.9725 84.3125 37.3125 C84.3125 37.9725 84.3125 38.6325 84.3125 39.3125 C84.9725 39.3125 85.6325 39.3125 86.3125 39.3125 C90.3125 44.72426471 90.3125 44.72426471 90.3125 47.3125 C90.9725 47.3125 91.6325 47.3125 92.3125 47.3125 C94.35419485 50.21798882 95.3125 51.71392046 95.3125 55.3125 C96.3025 55.6425 97.2925 55.9725 98.3125 56.3125 C100.53001399 60.00835666 101.3125 61.94258373 101.3125 66.3125 C101.9725 66.3125 102.6325 66.3125 103.3125 66.3125 C104.64583333 70.3125 105.97916667 74.3125 107.3125 78.3125 C107.68375 79.34375 108.055 80.375 108.4375 81.4375 C109.60160629 85.26242066 109.44958851 88.3369331 109.3125 92.3125 C109.9725 92.3125 110.6325 92.3125 111.3125 92.3125 C112.43120824 105.81690665 112.43120824 118.80809335 111.3125 132.3125 C110.6525 132.3125 109.9925 132.3125 109.3125 132.3125 C109.395 133.364375 109.4775 134.41625 109.5625 135.5 C109.59062078 143.37381785 106.27385058 151.12255422 103.3125 158.3125 C102.6525 158.3125 101.9925 158.3125 101.3125 158.3125 C100.9825 160.6225 100.6525 162.9325 100.3125 165.3125 C99.6525 165.3125 98.9925 165.3125 98.3125 165.3125 C97.9825 166.9625 97.6525 168.6125 97.3125 170.3125 C96.6525 170.3125 95.9925 170.3125 95.3125 170.3125 C94.9825 171.9625 94.6525 173.6125 94.3125 175.3125 C93.6525 175.3125 92.9925 175.3125 92.3125 175.3125 C92.3125 176.3025 92.3125 177.2925 92.3125 178.3125 C90.9375 180 90.9375 180 89.3125 181.3125 C88.6525 181.3125 87.9925 181.3125 87.3125 181.3125 C87.250625 181.869375 87.18875 182.42625 87.125 183 C85.97098693 186.28449875 83.83849863 187.96692984 81.3125 190.3125 C80.755625 190.910625 80.19875 191.50875 79.625 192.125 C78.3125 193.3125 78.3125 193.3125 76.3125 193.3125 C76.085625 193.89 75.85875 194.4675 75.625 195.0625 C73.96401778 197.90989809 71.99725439 199.43317193 69.3125 201.3125 C68.6525 201.3125 67.9925 201.3125 67.3125 201.3125 C67.3125 201.9725 67.3125 202.6325 67.3125 203.3125 C65.6625 203.6425 64.0125 203.9725 62.3125 204.3125 C61.9825 205.3025 61.6525 206.2925 61.3125 207.3125 C60.3225 207.3125 59.3325 207.3125 58.3125 207.3125 C58.3125 207.9725 58.3125 208.6325 58.3125 209.3125 C56.21165791 210.31946568 54.10670511 211.3178589 52 212.3125 C50.82824219 212.869375 49.65648437 213.42625 48.44921875 214 C45.3125 215.3125 45.3125 215.3125 42.3125 215.3125 C42.3125 215.9725 42.3125 216.6325 42.3125 217.3125 C38.8439245 218.31604853 35.37371257 219.31290809 31.8984375 220.29296875 C29.9811794 220.83807154 28.06546201 221.39020468 26.1640625 221.98828125 C22.90610549 222.95387484 19.69536478 223.42001107 16.30859375 223.6171875 C15.5820459 223.66206299 14.85549805 223.70693848 14.10693359 223.75317383 C12.63240035 223.83365863 11.15743117 223.90655641 9.68212891 223.97143555 C6.20282031 223.82480977 6.20282031 223.82480977 3.3125 225.3125 C1.17628731 225.10672777 -0.95947293 224.89175656 -3.08935547 224.62841797 C-5.610815 224.32182441 -8.13039513 224.07456515 -10.66015625 223.84765625 C-11.49740234 223.76966797 -12.33464844 223.69167969 -13.19726562 223.61132812 C-14.90260829 223.45345019 -16.60834948 223.29982088 -18.31445312 223.15039062 C-23.61854407 222.64738123 -28.55027847 221.73191728 -33.6875 220.3125 C-33.6875 219.6525 -33.6875 218.9925 -33.6875 218.3125 C-36.3275 217.9825 -38.9675 217.6525 -41.6875 217.3125 C-41.6875 216.6525 -41.6875 215.9925 -41.6875 215.3125 C-42.69425781 215.22742188 -43.70101562 215.14234375 -44.73828125 215.0546875 C-49.03011379 214.4389451 -52.21025026 212.6675222 -55.875 210.4375 C-56.47763672 210.08558594 -57.08027344 209.73367188 -57.70117188 209.37109375 C-63.98308241 205.66124977 -63.98308241 205.66124977 -66.6875 203.3125 C-66.6875 202.6525 -66.6875 201.9925 -66.6875 201.3125 C-67.8321875 201.1578125 -67.8321875 201.1578125 -69 201 C-71.87166484 200.26538806 -72.91792094 199.6408935 -74.6875 197.3125 C-74.6875 196.6525 -74.6875 195.9925 -74.6875 195.3125 C-75.3475 195.3125 -76.0075 195.3125 -76.6875 195.3125 C-78.02645632 193.65034732 -79.35880142 191.98286393 -80.6875 190.3125 C-81.574375 189.631875 -82.46125 188.95125 -83.375 188.25 C-85.79144436 186.22541148 -86.35890682 185.37936972 -86.6875 182.3125 C-87.3475 182.3125 -88.0075 182.3125 -88.6875 182.3125 C-88.6875 181.3225 -88.6875 180.3325 -88.6875 179.3125 C-89.6775 178.9825 -90.6675 178.6525 -91.6875 178.3125 C-91.6875 177.6525 -91.6875 176.9925 -91.6875 176.3125 C-92.3475 176.3125 -93.0075 176.3125 -93.6875 176.3125 C-94.0175 174.3325 -94.3475 172.3525 -94.6875 170.3125 C-95.3475 170.3125 -96.0075 170.3125 -96.6875 170.3125 C-97.0175 168.6625 -97.3475 167.0125 -97.6875 165.3125 C-98.3475 165.3125 -99.0075 165.3125 -99.6875 165.3125 C-104.01479552 157.61558912 -106.44516614 149.82161844 -108.6875 141.3125 C-109.03425781 140.22324219 -109.38101562 139.13398437 -109.73828125 138.01171875 C-111.90357347 129.57331657 -111.84548873 120.97754035 -111.8125 112.3125 C-111.81636719 111.29671875 -111.82023437 110.2809375 -111.82421875 109.234375 C-111.81274758 100.28686019 -111.43458843 91.884619 -108.6875 83.3125 C-108.33429688 82.07628906 -107.98109375 80.84007812 -107.6171875 79.56640625 C-106.15234375 74.43945312 -106.15234375 74.43945312 -104.6875 69.3125 C-104.0275 69.3125 -103.3675 69.3125 -102.6875 69.3125 C-102.56375 68.405 -102.44 67.4975 -102.3125 66.5625 C-101.76640323 63.72279677 -101.11486197 61.78659409 -99.6875 59.3125 C-99.0275 59.3125 -98.3675 59.3125 -97.6875 59.3125 C-97.1925 56.3425 -97.1925 56.3425 -96.6875 53.3125 C-96.0275 53.3125 -95.3675 53.3125 -94.6875 53.3125 C-94.44 52.61125 -94.1925 51.91 -93.9375 51.1875 C-92.01060905 46.75565081 -89.47247682 42.40929922 -85.6875 39.3125 C-85.0275 39.3125 -84.3675 39.3125 -83.6875 39.3125 C-83.44 38.755625 -83.1925 38.19875 -82.9375 37.625 C-81.44879471 34.87089521 -79.80340028 32.62075486 -77.6875 30.3125 C-76.6975 30.3125 -75.7075 30.3125 -74.6875 30.3125 C-74.6875 29.6525 -74.6875 28.9925 -74.6875 28.3125 C-74.0275 28.3125 -73.3675 28.3125 -72.6875 28.3125 C-72.1925 26.8275 -72.1925 26.8275 -71.6875 25.3125 C-71.0275 25.3125 -70.3675 25.3125 -69.6875 25.3125 C-69.6875 24.6525 -69.6875 23.9925 -69.6875 23.3125 C-68.3675 22.9825 -67.0475 22.6525 -65.6875 22.3125 C-65.6875 21.6525 -65.6875 20.9925 -65.6875 20.3125 C-64.0375 19.9825 -62.3875 19.6525 -60.6875 19.3125 C-60.6875 18.6525 -60.6875 17.9925 -60.6875 17.3125 C-59.0375 16.9825 -57.3875 16.6525 -55.6875 16.3125 C-55.6875 15.6525 -55.6875 14.9925 -55.6875 14.3125 C-54.6975 14.3125 -53.7075 14.3125 -52.6875 14.3125 C-52.6875 13.6525 -52.6875 12.9925 -52.6875 12.3125 C-50.7075 11.9825 -48.7275 11.6525 -46.6875 11.3125 C-46.6875 10.6525 -46.6875 9.9925 -46.6875 9.3125 C-44.0475 8.9825 -41.4075 8.6525 -38.6875 8.3125 C-38.6875 7.6525 -38.6875 6.9925 -38.6875 6.3125 C-38.11902344 6.19132812 -37.55054688 6.07015625 -36.96484375 5.9453125 C-33.37248048 5.16566772 -29.8390691 4.35740936 -26.3125 3.3125 C-17.55840187 0.89757638 -9.06745073 -0.04874179 0 0 Z " fill="#3eab95" transform="translate(537.6875,384.6875)"/>
    <path d="M0 0 C0 0.66 0 1.32 0 2 C0.5775 2.0825 1.155 2.165 1.75 2.25 C4.67794601 3.225982 6.05244537 4.63511223 8 7 C8 7.99 8 8.98 8 10 C8.99 10.33 9.98 10.66 11 11 C11 11.66 11 12.32 11 13 C11.66 13 12.32 13 13 13 C13.33 14.65 13.66 16.3 14 18 C14.66 18 15.32 18 16 18 C17.91015625 20.265625 17.91015625 20.265625 20.0625 23.25 C20.77535156 24.22453125 21.48820313 25.1990625 22.22265625 26.203125 C23.75415249 28.61312787 24.56996146 30.22128943 25 33 C25.66 33 26.32 33 27 33 C28.3726682 34.97321053 29.70427617 36.97543152 31 39 C31.66 39.66 32.32 40.32 33 41 C33 41.99 33 42.98 33 44 C33.66 44 34.32 44 35 44 C35.33 45.32 35.66 46.64 36 48 C36.66 48 37.32 48 38 48 C38.33 49.32 38.66 50.64 39 52 C39.66 52 40.32 52 41 52 C41 52.99 41 53.98 41 55 C41.66 55 42.32 55 43 55 C47 60.41176471 47 60.41176471 47 63 C47.66 63 48.32 63 49 63 C53 68.29411765 53 68.29411765 53 72 C53.66 72 54.32 72 55 72 C55 72.66 55 73.32 55 74 C55.66 74 56.32 74 57 74 C57.33 75.32 57.66 76.64 58 78 C58.66 78 59.32 78 60 78 C60.9765625 79.79036458 61.953125 81.58072917 62.9296875 83.37109375 C63.91410024 85.16618315 63.91410024 85.16618315 66 86 C66.960972 87.68998524 67.91844096 89.3821915 68.84765625 91.08984375 C70.00159238 93.00263957 71.27205287 94.5794592 72.75 96.25 C75 99 75 99 75 102 C75.66 102 76.32 102 77 102 C78.3726682 103.97321053 79.70427617 105.97543152 81 108 C81.66 108.66 82.32 109.32 83 110 C83 110.99 83 111.98 83 113 C83.99 113.33 84.98 113.66 86 114 C86 114.99 86 115.98 86 117 C86.66 117 87.32 117 88 117 C88.33 118.32 88.66 119.64 89 121 C89.66 121 90.32 121 91 121 C91 121.99 91 122.98 91 124 C91.99 124.33 92.98 124.66 94 125 C97.94182104 130.51854945 99.78882274 136.23866225 99 143 C97.54679138 146.45833271 95.84037176 149.73334013 94 153 C93.34 153 92.68 153 92 153 C91.67 153.99 91.34 154.98 91 156 C82.15168848 161.55344126 71.29381062 160.45857938 61.3125 160.25 C59.62827657 160.22989374 57.94402983 160.2116503 56.25976562 160.1953125 C52.17259142 160.15166723 48.08655929 160.08287227 44 160 C44.14107747 161.45880109 44.28802415 162.91703551 44.4375 164.375 C44.51871094 165.18710937 44.59992188 165.99921875 44.68359375 166.8359375 C44.89090114 169.04272805 44.89090114 169.04272805 46 171 C46.20772782 172.5797773 46.36717433 174.16607612 46.5 175.75390625 C46.5825 176.69041016 46.665 177.62691406 46.75 178.59179688 C46.91699309 180.57614443 47.08365849 182.56051959 47.25 184.54492188 C47.3325 185.48013672 47.415 186.41535156 47.5 187.37890625 C47.5721875 188.2407251 47.644375 189.10254395 47.71875 189.99047852 C47.79353751 191.99429447 47.79353751 191.99429447 49 193 C49.23527773 195.34987262 49.41386417 197.70556039 49.5625 200.0625 C49.64628906 201.35285156 49.73007813 202.64320313 49.81640625 203.97265625 C49.87699219 204.97167969 49.93757812 205.97070312 50 207 C50.66 207 51.32 207 52 207 C52.13277344 207.78246094 52.26554688 208.56492187 52.40234375 209.37109375 C52.57894531 210.38300781 52.75554687 211.39492188 52.9375 212.4375 C53.11152344 213.44683594 53.28554687 214.45617187 53.46484375 215.49609375 C53.74751097 217.9287438 53.74751097 217.9287438 55 219 C55.04063832 220.66617115 55.042721 222.33388095 55 224 C55.66 224 56.32 224 57 224 C57.33 226.97 57.66 229.94 58 233 C58.66 233 59.32 233 60 233 C60.33 235.64 60.66 238.28 61 241 C61.66 241 62.32 241 63 241 C63.33 243.64 63.66 246.28 64 249 C64.66 249 65.32 249 66 249 C67.25261902 251.47787501 68.50271196 253.95694149 69.75 256.4375 C70.30034912 257.53106812 70.30034912 257.53106812 70.86181641 258.64672852 C72.80794955 262.53683339 74.67184168 266.43312776 76.375 270.4375 C77.57095806 274.04721692 77.57095806 274.04721692 80 275 C83 280.42307692 83 280.42307692 83 283 C83.66 283 84.32 283 85 283 C85.33 284.65 85.66 286.3 86 288 C86.66 288 87.32 288 88 288 C88.33 288.99 88.66 289.98 89 291 C89.7115625 291.680625 89.7115625 291.680625 90.4375 292.375 C92.37092514 294.38576214 93.0831564 296.39052205 94 299 C94.66 299 95.32 299 96 299 C96.33 300.32 96.66 301.64 97 303 C97.66 303 98.32 303 99 303 C99.33 304.65 99.66 306.3 100 308 C100.66 308 101.32 308 102 308 C102 310.97 102 313.94 102 317 C101.34 317 100.68 317 100 317 C99.67 317.99 99.34 318.98 99 320 C98.34 320 97.68 320 97 320 C97 320.66 97 321.32 97 322 C95.35425434 322.02688151 93.70838587 322.04634123 92.0625 322.0625 C91.14597656 322.07410156 90.22945312 322.08570313 89.28515625 322.09765625 C87 322 87 322 86 321 C83.47804033 320.60056824 80.97036344 320.24920152 78.4375 319.9375 C77.72658203 319.84662109 77.01566406 319.75574219 76.28320312 319.66210938 C74.52261597 319.43760497 72.76136522 319.21831603 71 319 C71 318.34 71 317.68 71 317 C67.37 316.67 63.74 316.34 60 316 C60 315.34 60 314.68 60 314 C58.80375 313.87625 57.6075 313.7525 56.375 313.625 C52.72403187 313.17674946 49.45475101 312.29553163 46 311 C46 310.34 46 309.68 46 309 C45.154375 308.896875 44.30875 308.79375 43.4375 308.6875 C39.58557299 307.9171146 36.55924969 306.63725486 33 305 C33 304.34 33 303.68 33 303 C32.2575 302.87625 31.515 302.7525 30.75 302.625 C28.19858515 302.04513299 26.2732427 301.26291261 24 300 C24 299.34 24 298.68 24 298 C22.35 297.67 20.7 297.34 19 297 C19 296.34 19 295.68 19 295 C17.68 294.67 16.36 294.34 15 294 C15 293.34 15 292.68 15 292 C13.35 291.67 11.7 291.34 10 291 C10 290.34 10 289.68 10 289 C8.7934375 288.5978125 8.7934375 288.5978125 7.5625 288.1875 C6.716875 287.795625 5.87125 287.40375 5 287 C4.505 285.515 4.505 285.515 4 284 C2.67696283 283.6278958 1.34262065 283.29369827 0 283 C-0.33 282.34 -0.66 281.68 -1 281 C-1.99 280.67 -2.98 280.34 -4 280 C-4 279.34 -4 278.68 -4 278 C-4.99 277.67 -5.98 277.34 -7 277 C-7 276.34 -7 275.68 -7 275 C-7.66 275 -8.32 275 -9 275 C-10.625 273.625 -10.625 273.625 -12 272 C-12 271.34 -12 270.68 -12 270 C-12.99 269.67 -13.98 269.34 -15 269 C-15 268.34 -15 267.68 -15 267 C-15.66 267 -16.32 267 -17 267 C-17.33 265.68 -17.66 264.36 -18 263 C-18.66 263 -19.32 263 -20 263 C-20.0825 262.38125 -20.165 261.7625 -20.25 261.125 C-20.78810733 258.81653196 -20.78810733 258.81653196 -23 258 C-23.66 257.67 -24.32 257.34 -25 257 C-25.36162029 255.67405895 -25.69728039 254.34061543 -26 253 C-26.99 252.67 -27.98 252.34 -29 252 C-32 247.66666667 -32 247.66666667 -32 245 C-32.66 245 -33.32 245 -34 245 C-34.92878234 243.38323075 -35.85617745 241.76565188 -36.77734375 240.14453125 C-37.63661019 238.6373834 -38.50459289 237.13518783 -39.37890625 235.63671875 C-39.83136719 234.84910156 -40.28382813 234.06148437 -40.75 233.25 C-41.39195312 232.14398437 -41.39195312 232.14398437 -42.046875 231.015625 C-43 229 -43 229 -43 226 C-43.66 226 -44.32 226 -45 226 C-45.24234375 225.38253906 -45.4846875 224.76507812 -45.734375 224.12890625 C-47.43597637 219.82909048 -49.1782672 215.60316215 -51.1875 211.4375 C-53.22830142 206.95574002 -53.68912298 202.8963131 -54 198 C-54.66 198 -55.32 198 -56 198 C-56.495 192.06 -56.495 192.06 -57 186 C-57.66 186 -58.32 186 -59 186 C-59.13277344 184.78441406 -59.26554687 183.56882812 -59.40234375 182.31640625 C-59.58050091 180.73174516 -59.75889875 179.1471111 -59.9375 177.5625 C-60.02451172 176.76005859 -60.11152344 175.95761719 -60.20117188 175.13085938 C-60.30548394 171.24423336 -60.30548394 171.24423336 -62 168 C-62.14115161 165.32941149 -62.04247107 162.67567762 -62 160 C-63.57297852 160.01571045 -63.57297852 160.01571045 -65.17773438 160.03173828 C-69.09892309 160.06816344 -73.02009708 160.09098178 -76.94140625 160.10986328 C-78.63283816 160.11986984 -80.32425299 160.13347931 -82.015625 160.15087891 C-84.45837642 160.17536403 -86.90089749 160.18653672 -89.34375 160.1953125 C-90.46299866 160.21079636 -90.46299866 160.21079636 -91.6048584 160.22659302 C-96.71195154 160.22766432 -101.08611717 159.40327286 -106 158 C-106 157.34 -106 156.68 -106 156 C-107.32 155.67 -108.64 155.34 -110 155 C-110 154.34 -110 153.68 -110 153 C-110.639375 152.79375 -111.27875 152.5875 -111.9375 152.375 C-114 151 -114 151 -114.75 147.875 C-114.8325 146.92625 -114.915 145.9775 -115 145 C-115.66 145 -116.32 145 -117 145 C-117.33278764 138.18401613 -117.24201565 133.07877934 -114 127 C-113.34 127 -112.68 127 -112 127 C-112 126.34 -112 125.68 -112 125 C-111.34 125 -110.68 125 -110 125 C-109.67 123.68 -109.34 122.36 -109 121 C-108.34 121 -107.68 121 -107 121 C-106.67 119.35 -106.34 117.7 -106 116 C-105.34 116 -104.68 116 -104 116 C-103.731875 115.236875 -103.46375 114.47375 -103.1875 113.6875 C-102.03396359 111.07686496 -101.01370135 109.92614911 -99 108 C-98.505 106.515 -98.505 106.515 -98 105 C-97.34 105 -96.68 105 -96 105 C-95.71125 104.4225 -95.4225 103.845 -95.125 103.25 C-94.08333333 101.16666667 -93.04166667 99.08333333 -92 97 C-91.34 97 -90.68 97 -90 97 C-89.9175 96.38125 -89.835 95.7625 -89.75 95.125 C-89.5025 94.42375 -89.255 93.7225 -89 93 C-88.34 92.690625 -87.68 92.38125 -87 92.0625 C-86.34 91.711875 -85.68 91.36125 -85 91 C-84.18828772 88.44480079 -84.18828772 88.44480079 -84 86 C-83.34 86 -82.68 86 -82 86 C-81.505 84.02 -81.505 84.02 -81 82 C-80.34 82 -79.68 82 -79 82 C-78.7525 81.29875 -78.505 80.5975 -78.25 79.875 C-76.82819762 76.60485452 -75.12753712 73.858878 -73 71 C-72.34 71 -71.68 71 -71 71 C-70.71125 70.236875 -70.4225 69.47375 -70.125 68.6875 C-69 66 -69 66 -67 63 C-66.34 63 -65.68 63 -65 63 C-64.9175 62.2575 -64.835 61.515 -64.75 60.75 C-63.85402764 57.46476803 -62.48719278 56.25401846 -60 54 C-59.505 53.01 -59.505 53.01 -59 52 C-58.34 52 -57.68 52 -57 52 C-56.814375 50.7934375 -56.814375 50.7934375 -56.625 49.5625 C-56.41875 48.716875 -56.2125 47.87125 -56 47 C-55.34 46.67 -54.68 46.34 -54 46 C-53.67 45.01 -53.34 44.02 -53 43 C-52.34 43 -51.68 43 -51 43 C-49.79371992 40.66785852 -48.8345262 38.50357861 -48 36 C-47.34 35.67 -46.68 35.34 -46 35 C-45.67 34.01 -45.34 33.02 -45 32 C-44.34 32 -43.68 32 -43 32 C-42.71125 31.4225 -42.4225 30.845 -42.125 30.25 C-41.08333333 28.16666667 -40.04166667 26.08333333 -39 24 C-38.34 24 -37.68 24 -37 24 C-36.731875 23.195625 -36.46375 22.39125 -36.1875 21.5625 C-35.5996875 20.2940625 -35.5996875 20.2940625 -35 19 C-34.01 18.67 -33.02 18.34 -32 18 C-31.67 16.35 -31.34 14.7 -31 13 C-30.34 13 -29.68 13 -29 13 C-28.71125 12.236875 -28.4225 11.47375 -28.125 10.6875 C-27 8 -27 8 -25 5 C-24.34 5 -23.68 5 -23 5 C-23 4.34 -23 3.68 -23 3 C-15.78481694 -1.44011265 -8.20842559 -2.73614186 0 0 Z " fill="#3eab95" transform="translate(194,472)"/>
</svg>
