<?xml version="1.0" encoding="UTF-8"?>
<svg version="1.1"
    xmlns="http://www.w3.org/2000/svg" width="854" height="841">
    <path d="M0 0 C281.82 0 563.64 0 854 0 C854 217.14 854 434.28 854 658 C784.04 658 714.08 658 642 658 C642 658.66 642 659.32 642 660 C642.66 660 643.32 660 644 660 C647 665.75 647 665.75 647 668 C647.66 668 648.32 668 649 668 C649.33 669.98 649.66 671.96 650 674 C650.99 674.33 651.98 674.66 653 675 C654.03485877 677.31808364 655.0355414 679.65175298 656 682 C656.66 682.33 657.32 682.66 658 683 C659.1030275 684.7545567 660.13560781 686.55394481 661.125 688.375 C661.66382813 689.35210938 662.20265625 690.32921875 662.7578125 691.3359375 C664 694 664 694 664 697 C664.66 697 665.32 697 666 697 C666.33 698.65 666.66 700.3 667 702 C667.66 702 668.32 702 669 702 C669.33 703.65 669.66 705.3 670 707 C670.66 707 671.32 707 672 707 C672 707.99 672 708.98 672 710 C672.66 710 673.32 710 674 710 C678 716.5 678 716.5 678 721 C678.99 721.33 679.98 721.66 681 722 C681 722.99 681 723.98 681 725 C681.66 725 682.32 725 683 725 C685.04169485 727.90548882 686 729.40142046 686 733 C686.66 733 687.32 733 688 733 C688.33 734.65 688.66 736.3 689 738 C689.66 738 690.32 738 691 738 C691.33 739.98 691.66 741.96 692 744 C692.66 744 693.32 744 694 744 C694.33 745.65 694.66 747.3 695 749 C695.66 749 696.32 749 697 749 C697 749.99 697 750.98 697 752 C697.66 752 698.32 752 699 752 C699.33 753.65 699.66 755.3 700 757 C700.66 757 701.32 757 702 757 C706 763.625 706 763.625 706 767 C706.66 767 707.32 767 708 767 C708.33 768.65 708.66 770.3 709 772 C709.66 772 710.32 772 711 772 C711 772.99 711 773.98 711 775 C711.66 775 712.32 775 713 775 C713.33 776.65 713.66 778.3 714 780 C714.66 780 715.32 780 716 780 C716.33 781.65 716.66 783.3 717 785 C717.66 785 718.32 785 719 785 C719.33 786.98 719.66 788.96 720 791 C720.66 791 721.32 791 722 791 C724.04169485 793.90548882 725 795.40142046 725 799 C725.99 799.33 726.98 799.66 728 800 C728 800.99 728 801.98 728 803 C728.66 803 729.32 803 730 803 C731.34351145 810.45038168 731.34351145 810.45038168 729.75 813 C728 814 728 814 725 814 C725 814.66 725 815.32 725 816 C723.35 816.33 721.7 816.66 720 817 C720 817.66 720 818.32 720 819 C718.02 819.33 716.04 819.66 714 820 C714 820.66 714 821.32 714 822 C711.09451118 824.04169485 709.59857954 825 706 825 C706 825.66 706 826.32 706 827 C704.53466797 828.09741211 704.53466797 828.09741211 702.4921875 829.27734375 C701.75226562 829.70853516 701.01234375 830.13972656 700.25 830.58398438 C699.46625 831.03064453 698.6825 831.47730469 697.875 831.9375 C697.11445312 832.38029297 696.35390625 832.82308594 695.5703125 833.27929688 C683.18772947 840.44198068 683.18772947 840.44198068 677 840 C677 839.34 677 838.68 677 838 C676.34 838 675.68 838 675 838 C674.67 836.35 674.34 834.7 674 833 C673.34 833 672.68 833 672 833 C669.95830515 830.09451118 669 828.59857954 669 825 C668.34 825 667.68 825 667 825 C666.67 823.35 666.34 821.7 666 820 C665.34 820 664.68 820 664 820 C663.67 818.02 663.34 816.04 663 814 C662.34 814 661.68 814 661 814 C660.67 812.35 660.34 810.7 660 809 C659.34 809 658.68 809 658 809 C658 808.01 658 807.02 658 806 C657.34 806 656.68 806 656 806 C654.2734375 803.48046875 654.2734375 803.48046875 652.375 800.1875 C651.74335937 799.10855469 651.11171875 798.02960937 650.4609375 796.91796875 C649 794 649 794 649 791 C648.34 791 647.68 791 647 791 C646.67 789.35 646.34 787.7 646 786 C645.34 786 644.68 786 644 786 C644 785.01 644 784.02 644 783 C643.34 783 642.68 783 642 783 C641.67 781.35 641.34 779.7 641 778 C640.34 778 639.68 778 639 778 C638.67 776.35 638.34 774.7 638 773 C637.34 773 636.68 773 636 773 C635.67 771.02 635.34 769.04 635 767 C634.01 766.67 633.02 766.34 632 766 C630.61328125 764.2578125 630.61328125 764.2578125 629.3125 762.125 C628.87550781 761.42632813 628.43851563 760.72765625 627.98828125 760.0078125 C627 758 627 758 627 755 C626.34 755 625.68 755 625 755 C624.67 753.35 624.34 751.7 624 750 C623.34 750 622.68 750 622 750 C621.67 748.02 621.34 746.04 621 744 C620.34 744 619.68 744 619 744 C616.95830515 741.09451118 616 739.59857954 616 736 C615.34 736 614.68 736 614 736 C613.67 734.35 613.34 732.7 613 731 C612.34 731 611.68 731 611 731 C610.67 729.35 610.34 727.7 610 726 C609.34 726 608.68 726 608 726 C606.4921875 723.91796875 606.4921875 723.91796875 604.875 721.1875 C604.33617187 720.29417969 603.79734375 719.40085937 603.2421875 718.48046875 C602 716 602 716 602 713 C601.34 713 600.68 713 600 713 C599.67 711.35 599.34 709.7 599 708 C598.34 708 597.68 708 597 708 C596.67 706.35 596.34 704.7 596 703 C595.34 703 594.68 703 594 703 C592.9923048 701.2335343 591.99408286 699.46166177 591 697.6875 C590.443125 696.70136719 589.88625 695.71523438 589.3125 694.69921875 C588 692 588 692 588 689 C587.34 689 586.68 689 586 689 C585.72027344 688.47792969 585.44054687 687.95585938 585.15234375 687.41796875 C582.1405274 681.8882352 578.85357307 676.61878101 575.35546875 671.3828125 C574 669 574 669 574 666 C573.34 666 572.68 666 572 666 C571.67 664.35 571.34 662.7 571 661 C570.34 661 569.68 661 569 661 C569 660.01 569 659.02 569 658 C475.28 658 381.56 658 285 658 C285 658.99 285 659.98 285 661 C284.34 661 283.68 661 283 661 C282.67 662.65 282.34 664.3 282 666 C281.34 666 280.68 666 280 666 C279.9071875 666.99 279.9071875 666.99 279.8125 668 C278.69621505 672.1216675 276.66238434 675.65750502 274 679 C273.34 679 272.68 679 272 679 C271.71125 679.9075 271.4225 680.815 271.125 681.75 C270.23468224 684.32202908 269.28505587 686.61346766 268 689 C267.34 689 266.68 689 266 689 C265.87625 689.763125 265.7525 690.52625 265.625 691.3125 C265 694 265 694 263 697 C262.34 697 261.68 697 261 697 C260.896875 697.70125 260.79375 698.4025 260.6875 699.125 C259.90640997 702.39137647 258.57941257 705.0471852 257 708 C256.34 708 255.68 708 255 708 C254.67 709.65 254.34 711.3 254 713 C253.34 713 252.68 713 252 713 C251.9175 713.515625 251.835 714.03125 251.75 714.5625 C250.6777829 718.04720559 248.85951349 720.86207099 247 724 C246.67 724.66 246.34 725.32 246 726 C245.34 726 244.68 726 244 726 C243.67 727.65 243.34 729.3 243 731 C242.34 731 241.68 731 241 731 C240.67 732.65 240.34 734.3 240 736 C239.34 736 238.68 736 238 736 C238 736.99 238 737.98 238 739 C237.34 739 236.68 739 236 739 C235.67 740.65 235.34 742.3 235 744 C234.34 744 233.68 744 233 744 C232.896875 744.70125 232.79375 745.4025 232.6875 746.125 C231.90640997 749.39137647 230.57941257 752.0471852 229 755 C228.34 755 227.68 755 227 755 C225.92474806 757.65228812 224.90543849 760.28368454 224 763 C223.34 763 222.68 763 222 763 C221.67 764.32 221.34 765.64 221 767 C220.34 767 219.68 767 219 767 C218.896875 767.70125 218.79375 768.4025 218.6875 769.125 C217.90640997 772.39137647 216.57941257 775.0471852 215 778 C214.34 778 213.68 778 213 778 C212.814375 778.86625 212.814375 778.86625 212.625 779.75 C211.99351176 782.02335767 211.11141809 783.9253529 210 786 C209.34 786 208.68 786 208 786 C207.67 787.65 207.34 789.3 207 791 C206.34 791 205.68 791 205 791 C204.9071875 791.71929688 204.814375 792.43859375 204.71875 793.1796875 C203.88043828 796.46914979 202.52342712 798.41327595 200.5 801.125 C198.48694928 803.83931838 197.07268224 805.78195329 196 809 C195.34 809 194.68 809 194 809 C193.67 810.65 193.34 812.3 193 814 C192.34 814 191.68 814 191 814 C190.88785156 814.72574219 190.77570313 815.45148437 190.66015625 816.19921875 C189.97038613 819.12563993 188.94489186 821.22287809 187.4375 823.8125 C186.98246094 824.60269531 186.52742187 825.39289062 186.05859375 826.20703125 C185.70925781 826.79871094 185.35992187 827.39039063 185 828 C184.34 828 183.68 828 183 828 C182.67 829.65 182.34 831.3 182 833 C181.34 833 180.68 833 180 833 C179.67 834.65 179.34 836.3 179 838 C178.34 838 177.68 838 177 838 C177 838.66 177 839.32 177 840 C169.11754345 840 164.2212997 837.04956009 157.8203125 832.8125 C155.08669838 830.89175056 155.08669838 830.89175056 152 830 C152 829.34 152 828.68 152 828 C150.68 827.67 149.36 827.34 148 827 C148 826.34 148 825.68 148 825 C147.236875 824.87625 146.47375 824.7525 145.6875 824.625 C143 824 143 824 140 822 C140 821.34 140 820.68 140 820 C138.02 819.67 136.04 819.34 134 819 C134 818.34 134 817.68 134 817 C132.35 816.67 130.7 816.34 129 816 C129 815.34 129 814.68 129 814 C127.35 813.67 125.7 813.34 124 813 C122.875 806.375 122.875 806.375 124 803 C124.66 803 125.32 803 126 803 C126.33 801.68 126.66 800.36 127 799 C127.66 799 128.32 799 129 799 C129.33 797.02 129.66 795.04 130 793 C130.66 793 131.32 793 132 793 C133.07525194 790.34771188 134.09456151 787.71631546 135 785 C135.66 785 136.32 785 137 785 C137.33 783.35 137.66 781.7 138 780 C138.66 780 139.32 780 140 780 C140.33 778.35 140.66 776.7 141 775 C141.66 775 142.32 775 143 775 C143.12375 774.236875 143.2475 773.47375 143.375 772.6875 C144 770 144 770 146 767 C146.66 767 147.32 767 148 767 C148.33 765.02 148.66 763.04 149 761 C149.66 761 150.32 761 151 761 C151.33 759.68 151.66 758.36 152 757 C152.66 757 153.32 757 154 757 C154.0928125 756.29101562 154.185625 755.58203125 154.28125 754.8515625 C155.13011076 751.4837997 156.56638327 749.25165111 158.5 746.375 C160.40524764 743.52493694 161.91435164 741.25694507 163 738 C163.66 738 164.32 738 165 738 C165.33 736.35 165.66 734.7 166 733 C166.66 733 167.32 733 168 733 C168.185625 732.13375 168.185625 732.13375 168.375 731.25 C169.00648824 728.97664233 169.88858191 727.0746471 171 725 C171.66 725 172.32 725 173 725 C173.10183594 724.45859375 173.20367187 723.9171875 173.30859375 723.359375 C174.17757607 720.39403419 175.55472291 717.94475054 177.0625 715.25 C177.88427734 713.77273438 177.88427734 713.77273438 178.72265625 712.265625 C179.14417969 711.51796875 179.56570312 710.7703125 180 710 C180.66 710 181.32 710 182 710 C182.12375 709.236875 182.2475 708.47375 182.375 707.6875 C183 705 183 705 185 702 C185.66 702 186.32 702 187 702 C187.103125 701.29875 187.20625 700.5975 187.3125 699.875 C188.09359003 696.60862353 189.42058743 693.9528148 191 691 C191.66 691 192.32 691 193 691 C193.33 689.35 193.66 687.7 194 686 C194.66 686 195.32 686 196 686 C196.0928125 685.45472656 196.185625 684.90945313 196.28125 684.34765625 C197.20747998 681.32230723 198.75194336 679.07033121 200.5 676.4375 C202.39716345 673.57231667 203.91195938 671.26412185 205 668 C205.66 668 206.32 668 207 668 C207.33 666.35 207.66 664.7 208 663 C208.66 663 209.32 663 210 663 C210 662.01 210 661.02 210 660 C210.66 660 211.32 660 212 660 C212 659.34 212 658.68 212 658 C142.04 658 72.08 658 0 658 C0 440.86 0 223.72 0 0 Z M62 62 C62 237.56 62 413.12 62 594 C302.9 594 543.8 594 792 594 C792 418.44 792 242.88 792 62 C551.1 62 310.2 62 62 62 Z " fill="#3eab95" transform="translate(0,0)"/>
    <path d="M0 0 C47.85 0 95.7 0 145 0 C145 47.85 145 95.7 145 145 C124.54 145 104.08 145 83 145 C83 132.79 83 120.58 83 108 C78.26746755 111.47743023 78.26746755 111.47743023 76.125 114.375 C74.32397164 116.59979974 72.68025831 118.19084948 70.5 120 C68.36763827 121.77094449 66.74658945 123.31676319 65 125.5 C62.79796983 128.25253771 60.36572728 130.28163055 57.6640625 132.5234375 C55.48098233 134.4605368 53.8052425 136.71335949 52 139 C47.45945946 143 47.45945946 143 45 143 C44.9071875 143.86625 44.9071875 143.86625 44.8125 144.75 C43.67561467 147.89829784 41.63092771 148.98091594 39 151 C37.9171875 152.36125 37.9171875 152.36125 36.8125 153.75 C36.214375 154.4925 35.61625 155.235 35 156 C34.34 156 33.68 156 33 156 C33 156.66 33 157.32 33 158 C31.33784732 159.33895632 29.67036393 160.67130142 28 162 C27.319375 162.886875 26.63875 163.77375 25.9375 164.6875 C23.91291148 167.10394436 23.06686972 167.67140682 20 168 C19.9071875 168.86625 19.9071875 168.86625 19.8125 169.75 C18.67561467 172.89829784 16.63092771 173.98091594 14 176 C12.9171875 177.36125 12.9171875 177.36125 11.8125 178.75 C11.214375 179.4925 10.61625 180.235 10 181 C9.34 181 8.68 181 8 181 C8 181.66 8 182.32 8 183 C6.33784732 184.33895632 4.67036393 185.67130142 3 187 C2.38125 187.78375 1.7625 188.5675 1.125 189.375 C-0.67602836 191.59979974 -2.31974169 193.19084948 -4.5 195 C-6.63236173 196.77094449 -8.25341055 198.31676319 -10 200.5 C-12.20203017 203.25253771 -14.63427272 205.28163055 -17.3359375 207.5234375 C-19.51901767 209.4605368 -21.1947575 211.71335949 -23 214 C-24.65533995 215.34736973 -26.32012773 216.68334336 -28 218 C-28.33 218.66 -28.66 219.32 -29 220 C-29.66 220 -30.32 220 -31 220 C-31 220.66 -31 221.32 -31 222 C-32.66215268 223.33895632 -34.32963607 224.67130142 -36 226 C-36.928125 227.175625 -36.928125 227.175625 -37.875 228.375 C-39.67602836 230.59979974 -41.31974169 232.19084948 -43.5 234 C-46.41486382 236.42282484 -48.70559574 238.96810865 -51 242 C-52.625 243.8125 -52.625 243.8125 -54 245 C-54.66 245 -55.32 245 -56 245 C-56 245.66 -56 246.32 -56 247 C-57.66215268 248.33895632 -59.32963607 249.67130142 -61 251 C-61.928125 252.175625 -61.928125 252.175625 -62.875 253.375 C-64.67602836 255.59979974 -66.31974169 257.19084948 -68.5 259 C-71.41486382 261.42282484 -73.70559574 263.96810865 -76 267 C-77.625 268.8125 -77.625 268.8125 -79 270 C-79.66 270 -80.32 270 -81 270 C-81 270.66 -81 271.32 -81 272 C-82.66215268 273.33895632 -84.32963607 274.67130142 -86 276 C-87.36244796 277.64295195 -88.69864875 279.30824337 -90 281 C-91.625 282.8125 -91.625 282.8125 -93 284 C-93.66 284 -94.32 284 -95 284 C-95 284.66 -95 285.32 -95 286 C-96.66215268 287.33895632 -98.32963607 288.67130142 -100 290 C-100.928125 291.175625 -100.928125 291.175625 -101.875 292.375 C-103.67602836 294.59979974 -105.31974169 296.19084948 -107.5 298 C-110.41486382 300.42282484 -112.70559574 302.96810865 -115 306 C-116.625 307.8125 -116.625 307.8125 -118 309 C-118.66 309 -119.32 309 -120 309 C-120 309.66 -120 310.32 -120 311 C-121.66215268 312.33895632 -123.32963607 313.67130142 -125 315 C-125.928125 316.175625 -125.928125 316.175625 -126.875 317.375 C-128.67602836 319.59979974 -130.31974169 321.19084948 -132.5 323 C-135.41486382 325.42282484 -137.70559574 327.96810865 -140 331 C-141.625 332.8125 -141.625 332.8125 -143 334 C-143.66 334 -144.32 334 -145 334 C-145 334.66 -145 335.32 -145 336 C-146.66215268 337.33895632 -148.32963607 338.67130142 -150 340 C-151.36244796 341.64295195 -152.69864875 343.30824337 -154 345 C-155.625 346.8125 -155.625 346.8125 -157 348 C-157.66 348 -158.32 348 -159 348 C-159 348.66 -159 349.32 -159 350 C-160.66215268 351.33895632 -162.32963607 352.67130142 -164 354 C-164.721875 354.9075 -165.44375 355.815 -166.1875 356.75 C-166.785625 357.4925 -167.38375 358.235 -168 359 C-168.66 359 -169.32 359 -170 359 C-170 359.66 -170 360.32 -170 361 C-171.66215268 362.33895632 -173.32963607 363.67130142 -175 365 C-176.36244796 366.64295195 -177.69864875 368.30824337 -179 370 C-180.625 371.8125 -180.625 371.8125 -182 373 C-182.66 373 -183.32 373 -184 373 C-184 373.66 -184 374.32 -184 375 C-185.66215268 376.33895632 -187.32963607 377.67130142 -189 379 C-189.61875 379.78375 -190.2375 380.5675 -190.875 381.375 C-192.67602836 383.59979974 -194.31974169 385.19084948 -196.5 387 C-199.41486382 389.42282484 -201.70559574 391.96810865 -204 395 C-205.625 396.8125 -205.625 396.8125 -207 398 C-207.66 398 -208.32 398 -209 398 C-209 398.66 -209 399.32 -209 400 C-210.66215268 401.33895632 -212.32963607 402.67130142 -214 404 C-215.34294481 405.65893182 -216.67744688 407.32476605 -218 409 C-221 411 -221 411 -223.3125 411 C-227.06675909 409.60306638 -229.56329394 407.15683225 -232 404 C-232 403.34 -232 402.68 -232 402 C-232.99 401.67 -233.98 401.34 -235 401 C-235 400.34 -235 399.68 -235 399 C-235.99 398.67 -236.98 398.34 -238 398 C-238 397.34 -238 396.68 -238 396 C-238.86625 395.62875 -238.86625 395.62875 -239.75 395.25 C-242.32939979 393.81700012 -244.06121592 392.21575324 -246 390 C-246 389.34 -246 388.68 -246 388 C-246.99 387.67 -247.98 387.34 -249 387 C-249 386.34 -249 385.68 -249 385 C-249.86625 384.62875 -249.86625 384.62875 -250.75 384.25 C-253.32939979 382.81700012 -255.06121592 381.21575324 -257 379 C-257 378.34 -257 377.68 -257 377 C-257.99 376.67 -258.98 376.34 -260 376 C-260 375.34 -260 374.68 -260 374 C-260.99 373.67 -261.98 373.34 -263 373 C-263 372.34 -263 371.68 -263 371 C-264.32 370.34 -265.64 369.68 -267 369 C-265.625 366.5 -265.625 366.5 -264 364 C-263.34 364 -262.68 364 -262 364 C-262 363.34 -262 362.68 -262 362 C-260.625 360.375 -260.625 360.375 -259 359 C-258.34 359 -257.68 359 -257 359 C-256.67 358.01 -256.34 357.02 -256 356 C-255.34 356 -254.68 356 -254 356 C-253.67 355.01 -253.34 354.02 -253 353 C-252.34 353 -251.68 353 -251 353 C-250.67 352.01 -250.34 351.02 -250 350 C-249.34 350 -248.68 350 -248 350 C-248 349.34 -248 348.68 -248 348 C-246.625 346.375 -246.625 346.375 -245 345 C-244.34 345 -243.68 345 -243 345 C-242.67 344.01 -242.34 343.02 -242 342 C-241.34 342 -240.68 342 -240 342 C-239.67 341.01 -239.34 340.02 -239 339 C-238.34 339 -237.68 339 -237 339 C-237 338.34 -237 337.68 -237 337 C-235.625 335.375 -235.625 335.375 -234 334 C-233.34 334 -232.68 334 -232 334 C-231.67 333.01 -231.34 332.02 -231 331 C-230.34 331 -229.68 331 -229 331 C-228.67 330.01 -228.34 329.02 -228 328 C-227.34 328 -226.68 328 -226 328 C-225.67 327.01 -225.34 326.02 -225 325 C-224.34 325 -223.68 325 -223 325 C-223 324.34 -223 323.68 -223 323 C-221.625 321.375 -221.625 321.375 -220 320 C-219.34 320 -218.68 320 -218 320 C-217.67 319.01 -217.34 318.02 -217 317 C-216.34 317 -215.68 317 -215 317 C-214.67 316.01 -214.34 315.02 -214 314 C-213.34 314 -212.68 314 -212 314 C-211.67 313.01 -211.34 312.02 -211 311 C-210.34 311 -209.68 311 -209 311 C-209 310.34 -209 309.68 -209 309 C-208.34 309 -207.68 309 -207 309 C-206.67 308.01 -206.34 307.02 -206 306 C-205.34 306 -204.68 306 -204 306 C-203.67 305.01 -203.34 304.02 -203 303 C-202.34 303 -201.68 303 -201 303 C-200.67 302.01 -200.34 301.02 -200 300 C-199.34 300 -198.68 300 -198 300 C-198 299.34 -198 298.68 -198 298 C-196.625 296.375 -196.625 296.375 -195 295 C-194.34 295 -193.68 295 -193 295 C-192.67 294.01 -192.34 293.02 -192 292 C-191.34 292 -190.68 292 -190 292 C-189.67 291.01 -189.34 290.02 -189 289 C-188.34 289 -187.68 289 -187 289 C-186.67 288.01 -186.34 287.02 -186 286 C-185.34 286 -184.68 286 -184 286 C-184 285.34 -184 284.68 -184 284 C-183.34 284 -182.68 284 -182 284 C-181.67 283.01 -181.34 282.02 -181 281 C-180.34 281 -179.68 281 -179 281 C-178.67 280.01 -178.34 279.02 -178 278 C-177.34 278 -176.68 278 -176 278 C-175.67 277.01 -175.34 276.02 -175 275 C-174.34 275 -173.68 275 -173 275 C-173 274.34 -173 273.68 -173 273 C-171.625 271.375 -171.625 271.375 -170 270 C-169.34 270 -168.68 270 -168 270 C-167.67 269.01 -167.34 268.02 -167 267 C-166.34 267 -165.68 267 -165 267 C-164.67 266.01 -164.34 265.02 -164 264 C-163.34 264 -162.68 264 -162 264 C-161.67 263.01 -161.34 262.02 -161 261 C-160.34 261 -159.68 261 -159 261 C-159 260.34 -159 259.68 -159 259 C-157.625 257.375 -157.625 257.375 -156 256 C-155.34 256 -154.68 256 -154 256 C-153.67 255.01 -153.34 254.02 -153 253 C-152.34 253 -151.68 253 -151 253 C-150.67 252.01 -150.34 251.02 -150 250 C-149.34 250 -148.68 250 -148 250 C-147.67 249.01 -147.34 248.02 -147 247 C-146.34 247 -145.68 247 -145 247 C-145 246.34 -145 245.68 -145 245 C-144.34 245 -143.68 245 -143 245 C-142.67 244.01 -142.34 243.02 -142 242 C-141.34 242 -140.68 242 -140 242 C-139.67 241.01 -139.34 240.02 -139 239 C-138.34 239 -137.68 239 -137 239 C-136.67 238.01 -136.34 237.02 -136 236 C-135.34 236 -134.68 236 -134 236 C-134 235.34 -134 234.68 -134 234 C-132.625 232.375 -132.625 232.375 -131 231 C-130.34 231 -129.68 231 -129 231 C-128.67 230.01 -128.34 229.02 -128 228 C-127.34 228 -126.68 228 -126 228 C-125.67 227.01 -125.34 226.02 -125 225 C-124.34 225 -123.68 225 -123 225 C-122.67 224.01 -122.34 223.02 -122 222 C-121.34 222 -120.68 222 -120 222 C-120 221.34 -120 220.68 -120 220 C-119.34 220 -118.68 220 -118 220 C-117.67 219.01 -117.34 218.02 -117 217 C-116.34 217 -115.68 217 -115 217 C-114.67 216.01 -114.34 215.02 -114 214 C-113.34 214 -112.68 214 -112 214 C-111.67 213.01 -111.34 212.02 -111 211 C-110.34 211 -109.68 211 -109 211 C-109 210.34 -109 209.68 -109 209 C-107.625 207.375 -107.625 207.375 -106 206 C-105.34 206 -104.68 206 -104 206 C-103.7421875 205.41734375 -103.484375 204.8346875 -103.21875 204.234375 C-101.90165983 201.8197097 -100.44911616 200.18259823 -98.5 198.25 C-97.8915625 197.63640625 -97.283125 197.0228125 -96.65625 196.390625 C-95 195 -95 195 -93 195 C-92.76732422 194.44280273 -92.53464844 193.88560547 -92.29492188 193.31152344 C-90.66430607 190.40076355 -88.63760806 188.37818867 -86.28125 186.015625 C-85.34925781 185.08105469 -84.41726563 184.14648438 -83.45703125 183.18359375 C-82.7292749 182.46212158 -82.7292749 182.46212158 -81.98681641 181.72607422 C-80.49793661 180.24795152 -79.02008349 178.75940089 -77.54296875 177.26953125 C-76.61097656 176.34011719 -75.67898438 175.41070312 -74.71875 174.453125 C-73.86216797 173.59879883 -73.00558594 172.74447266 -72.12304688 171.86425781 C-70 170 -70 170 -68 170 C-67.76732422 169.44280273 -67.53464844 168.88560547 -67.29492188 168.31152344 C-65.66430607 165.40076355 -63.63760806 163.37818867 -61.28125 161.015625 C-60.34925781 160.08105469 -59.41726563 159.14648438 -58.45703125 158.18359375 C-57.7292749 157.46212158 -57.7292749 157.46212158 -56.98681641 156.72607422 C-55.49793661 155.24795152 -54.02008349 153.75940089 -52.54296875 152.26953125 C-51.61097656 151.34011719 -50.67898438 150.41070312 -49.71875 149.453125 C-48.86216797 148.59879883 -48.00558594 147.74447266 -47.12304688 146.86425781 C-45 145 -45 145 -43 145 C-42.78442444 144.45878006 -42.56884888 143.91756012 -42.34674072 143.35993958 C-40.52674407 140.17069753 -38.04845383 137.79475907 -35.45214844 135.2409668 C-34.88603348 134.67616608 -34.31991852 134.11136536 -33.73664856 133.52944946 C-31.8654454 131.6647325 -29.98736833 129.80709482 -28.109375 127.94921875 C-26.8033036 126.64942184 -25.49774874 125.34910571 -24.19268799 124.04829407 C-20.75342453 120.62233469 -17.30864726 117.20197805 -13.86224365 113.78320312 C-8.35934489 108.32339639 -2.86304452 102.85696945 2.62987518 97.38712502 C4.54285891 95.48429761 6.45925821 93.5849617 8.3760376 91.68595886 C9.5623344 90.50649808 10.74851779 89.32692322 11.93457031 88.1472168 C12.46155014 87.62697433 12.98852997 87.10673187 13.53147888 86.57072449 C16.75875125 83.35320003 19.76630592 80.0105683 22.689785 76.51426411 C24.33661243 74.61096452 26.13089798 72.9853294 28.0625 71.375 C31.25099841 68.70161688 34.01895074 65.98104926 37 63 C24.79 62.67 12.58 62.34 0 62 C0 41.54 0 21.08 0 0 Z " fill="#3eab95" transform="translate(472,118)"/>
    <path d="M0 0 C1.84851563 -0.00580078 1.84851563 -0.00580078 3.734375 -0.01171875 C12.56413258 -0.00224476 20.54863719 0.48394912 29 3.125 C29 3.785 29 4.445 29 5.125 C32.3 5.455 35.6 5.785 39 6.125 C39 6.785 39 7.445 39 8.125 C41.31 8.455 43.62 8.785 46 9.125 C46 9.785 46 10.445 46 11.125 C46.9075 11.24875 47.815 11.3725 48.75 11.5 C51.60996164 12.04999262 53.55989718 12.58863897 56 14.125 C56.33 14.785 56.66 15.445 57 16.125 C58.88013106 17.24724855 58.88013106 17.24724855 61.0625 18.25 C61.79597656 18.60320312 62.52945313 18.95640625 63.28515625 19.3203125 C63.85105469 19.58585937 64.41695312 19.85140625 65 20.125 C65 20.785 65 21.445 65 22.125 C65.804375 22.49625 65.804375 22.49625 66.625 22.875 C71.82872738 25.61380388 75.45639034 28.43829045 79 33.125 C79.845625 33.970625 80.69125 34.81625 81.5625 35.6875 C83.6262718 37.7512718 85.40366126 39.68848298 87 42.125 C87 42.785 87 43.445 87 44.125 C87.99 44.455 88.98 44.785 90 45.125 C90 46.115 90 47.105 90 48.125 C90.66 48.125 91.32 48.125 92 48.125 C92.33 49.775 92.66 51.425 93 53.125 C93.66 53.125 94.32 53.125 95 53.125 C95.33 54.775 95.66 56.425 96 58.125 C96.66 58.125 97.32 58.125 98 58.125 C100.15305957 61.98256507 101.39253254 64.67629785 101 69.125 C101.66 69.125 102.32 69.125 103 69.125 C103.33 71.765 103.66 74.405 104 77.125 C104.66 77.125 105.32 77.125 106 77.125 C106.33 81.415 106.66 85.705 107 90.125 C107.66 90.125 108.32 90.125 109 90.125 C110.76000849 104.16715392 111.10302603 117.11561124 109 131.125 C108.34 131.125 107.68 131.125 107 131.125 C107.0825 132.15625 107.165 133.1875 107.25 134.25 C107.29699144 140.75831457 104.93324296 146.98004915 103 153.125 C102.34 153.125 101.68 153.125 101 153.125 C100.814375 154.48625 100.814375 154.48625 100.625 155.875 C100.07890323 158.71470323 99.42736197 160.65090591 98 163.125 C97.34 163.125 96.68 163.125 96 163.125 C95.67 164.775 95.34 166.425 95 168.125 C94.34 168.125 93.68 168.125 93 168.125 C92.67 169.775 92.34 171.425 92 173.125 C91.34 173.125 90.68 173.125 90 173.125 C89.7421875 173.85074219 89.484375 174.57648438 89.21875 175.32421875 C87.94757501 178.24547667 86.45983598 180.43372649 84.5 182.9375 C83.8915625 183.72769531 83.283125 184.51789063 82.65625 185.33203125 C82.1096875 185.92371094 81.563125 186.51539063 81 187.125 C80.34 187.125 79.68 187.125 79 187.125 C78.67 188.115 78.34 189.105 78 190.125 C77.34 190.125 76.68 190.125 76 190.125 C76 190.785 76 191.445 76 192.125 C74.35546875 193.52734375 74.35546875 193.52734375 72.1875 195.0625 C70.08339442 196.56105243 68.18759529 197.9234398 66.42578125 199.81640625 C65 201.125 65 201.125 62 201.125 C62 201.785 62 202.445 62 203.125 C60.35 203.455 58.7 203.785 57 204.125 C57 204.785 57 205.445 57 206.125 C56.01 206.125 55.02 206.125 54 206.125 C53.67 207.115 53.34 208.105 53 209.125 C49.02436956 211.15032117 46.4949298 212.125 42 212.125 C42 212.785 42 213.445 42 214.125 C39.36 214.455 36.72 214.785 34 215.125 C34 215.785 34 216.445 34 217.125 C29.71 217.455 25.42 217.785 21 218.125 C21 218.785 21 219.445 21 220.125 C13.41261569 221.85220944 6.13298816 222.31805929 -1.625 222.3125 C-2.95869629 222.3134668 -2.95869629 222.3134668 -4.31933594 222.31445312 C-10.72987262 222.26006369 -10.72987262 222.26006369 -13 221.125 C-14.55898491 220.94544598 -16.12260877 220.80492675 -17.6875 220.6875 C-21.99721528 220.29627224 -25.86034598 219.42371499 -30 218.125 C-31.66246041 217.77128502 -33.32774271 217.42904678 -35 217.125 C-35 216.465 -35 215.805 -35 215.125 C-36.7634375 214.9703125 -36.7634375 214.9703125 -38.5625 214.8125 C-42.82485903 214.29585042 -46.14087534 212.9741639 -50 211.125 C-50 210.465 -50 209.805 -50 209.125 C-50.70125 209.0425 -51.4025 208.96 -52.125 208.875 C-55.65698979 207.95361136 -58.01928357 206.19854186 -61 204.125 C-61.99 203.795 -62.98 203.465 -64 203.125 C-64 202.465 -64 201.805 -64 201.125 C-64.99 200.795 -65.98 200.465 -67 200.125 C-67 199.465 -67 198.805 -67 198.125 C-68.65 197.795 -70.3 197.465 -72 197.125 C-72 196.465 -72 195.805 -72 195.125 C-72.66 195.125 -73.32 195.125 -74 195.125 C-75.33895632 193.46284732 -76.67130142 191.79536393 -78 190.125 C-78.9075 189.403125 -79.815 188.68125 -80.75 187.9375 C-81.4925 187.339375 -82.235 186.74125 -83 186.125 C-83 185.465 -83 184.805 -83 184.125 C-83.66 184.125 -84.32 184.125 -85 184.125 C-89 178.71323529 -89 178.71323529 -89 176.125 C-89.99 175.795 -90.98 175.465 -92 175.125 C-92 174.135 -92 173.145 -92 172.125 C-92.66 172.125 -93.32 172.125 -94 172.125 C-96.04169485 169.21951118 -97 167.72357954 -97 164.125 C-97.66 164.125 -98.32 164.125 -99 164.125 C-99.33773437 163.24457031 -99.67546875 162.36414063 -100.0234375 161.45703125 C-100.46945313 160.29558594 -100.91546875 159.13414062 -101.375 157.9375 C-101.81585938 156.78894531 -102.25671875 155.64039063 -102.7109375 154.45703125 C-103.47481591 152.4825213 -104.25403112 150.51365038 -105.06640625 148.55859375 C-106.45628385 144.93560737 -107.3479821 141.20639579 -108.31640625 137.453125 C-108.78044933 135.18480038 -108.78044933 135.18480038 -110 134.125 C-111.23123953 127.17976857 -111.15272006 120.23583087 -111.13037109 113.19848633 C-111.12502132 111.19548129 -111.13084771 109.19245671 -111.13671875 107.18945312 C-111.12736115 97.83653138 -110.85916539 89.08371822 -108 80.125 C-107.34 80.125 -106.68 80.125 -106 80.125 C-106 78.97 -106 77.815 -106 76.625 C-104.85923939 66.15976135 -97.23407722 53.38415963 -91 45.125 C-90.34 45.125 -89.68 45.125 -89 45.125 C-88.67 43.805 -88.34 42.485 -88 41.125 C-87.34 41.125 -86.68 41.125 -86 41.125 C-85.731875 40.485625 -85.46375 39.84625 -85.1875 39.1875 C-84 37.125 -84 37.125 -81 36.125 C-80.87625 35.485625 -80.7525 34.84625 -80.625 34.1875 C-80.315625 33.1665625 -80.315625 33.1665625 -80 32.125 C-78.33927151 31.44367549 -76.672233 30.77757873 -75 30.125 C-73.86649466 28.10830173 -73.86649466 28.10830173 -73 26.125 C-72.01 25.795 -71.02 25.465 -70 25.125 C-69.505 23.64 -69.505 23.64 -69 22.125 C-68.01 22.125 -67.02 22.125 -66 22.125 C-66 21.465 -66 20.805 -66 20.125 C-64.35 19.795 -62.7 19.465 -61 19.125 C-60.505 17.64 -60.505 17.64 -60 16.125 C-58.68 16.125 -57.36 16.125 -56 16.125 C-56 15.465 -56 14.805 -56 14.125 C-50.375 11.125 -50.375 11.125 -47 11.125 C-47 10.465 -47 9.805 -47 9.125 C-31.11478892 3.03026595 -16.96884463 -0.05324951 0 0 Z M-14 64.125 C-15.66246041 64.47871498 -17.32774271 64.82095322 -19 65.125 C-19 65.785 -19 66.445 -19 67.125 C-19.86625 67.310625 -19.86625 67.310625 -20.75 67.5 C-23.02335767 68.13148824 -24.9253529 69.01358191 -27 70.125 C-27 70.785 -27 71.445 -27 72.125 C-27.7425 72.186875 -28.485 72.24875 -29.25 72.3125 C-32.86065729 73.37928511 -33.84459336 75.1074307 -36 78.125 C-36.5775 78.66125 -37.155 79.1975 -37.75 79.75 C-39.3363364 81.18526027 -39.3363364 81.18526027 -39 84.125 C-39.66 84.125 -40.32 84.125 -41 84.125 C-43.04169485 87.03048882 -44 88.52642046 -44 92.125 C-44.66 92.125 -45.32 92.125 -46 92.125 C-46.13277344 92.83527344 -46.26554687 93.54554688 -46.40234375 94.27734375 C-46.57894531 95.19644531 -46.75554687 96.11554688 -46.9375 97.0625 C-47.11152344 97.97902344 -47.28554687 98.89554688 -47.46484375 99.83984375 C-48 102.125 -48 102.125 -49 103.125 C-49.07319621 105.82154854 -49.09242537 108.49191458 -49.0625 111.1875 C-49.05798828 111.94611328 -49.05347656 112.70472656 -49.04882812 113.48632812 C-49.0370068 115.36591871 -49.01907078 117.24546899 -49 119.125 C-48.34 119.125 -47.68 119.125 -47 119.125 C-46.92652344 120.13820313 -46.92652344 120.13820313 -46.8515625 121.171875 C-46.73941406 122.50992188 -46.73941406 122.50992188 -46.625 123.875 C-46.55539063 124.75671875 -46.48578125 125.6384375 -46.4140625 126.546875 C-46.00149945 129.11566382 -45.28839043 130.88341015 -44 133.125 C-43.34 133.125 -42.68 133.125 -42 133.125 C-41.71125 133.8675 -41.4225 134.61 -41.125 135.375 C-40.17697356 137.69239797 -39.15154089 139.90417115 -38 142.125 C-37.34 142.125 -36.68 142.125 -36 142.125 C-35.67 143.115 -35.34 144.105 -35 145.125 C-34.34 145.125 -33.68 145.125 -33 145.125 C-32.67 146.115 -32.34 147.105 -32 148.125 C-29.07920195 150.20030387 -27.62453269 151.125 -24 151.125 C-24 151.785 -24 152.445 -24 153.125 C-20.14243493 155.27805957 -17.44870215 156.51753254 -13 156.125 C-13 156.785 -13 157.445 -13 158.125 C-4.6642882 159.60690432 3.6642882 159.60690432 12 158.125 C12 157.465 12 156.805 12 156.125 C13.051875 156.2178125 13.051875 156.2178125 14.125 156.3125 C17.65260212 156.08243899 19.93984351 154.83299432 23 153.125 C23 152.465 23 151.805 23 151.125 C23.763125 151.021875 24.52625 150.91875 25.3125 150.8125 C28.18416484 150.07788806 29.23042094 149.4533935 31 147.125 C31 146.465 31 145.805 31 145.125 C31.99 144.795 32.98 144.465 34 144.125 C34 143.465 34 142.805 34 142.125 C34.66 142.125 35.32 142.125 36 142.125 C38.3283935 140.35542094 38.95288806 139.30916484 39.6875 136.4375 C39.790625 135.674375 39.89375 134.91125 40 134.125 C40.66 134.125 41.32 134.125 42 134.125 C44.70844881 128.39209085 44.70844881 128.39209085 45 122.125 C45.66 122.125 46.32 122.125 47 122.125 C48.26637611 108.42865533 47.75945936 99.68529697 42 87.125 C41.34 87.125 40.68 87.125 40 87.125 C39.896875 86.5475 39.79375 85.97 39.6875 85.375 C38.89103535 82.76838842 37.80934723 81.1514689 36 79.125 C35.34 79.125 34.68 79.125 34 79.125 C33.505 77.64 33.505 77.64 33 76.125 C29.94491974 73.09222801 29.94491974 73.09222801 26 72.125 C26 71.465 26 70.805 26 70.125 C21.7362719 67.76589647 21.7362719 67.76589647 17 67.125 C17 66.465 17 65.805 17 65.125 C13.32589215 63.94928549 9.83070817 64.05133254 6 64.125 C6 63.465 6 62.805 6 62.125 C-4.18389195 61.84654781 -4.18389195 61.84654781 -14 64.125 Z " fill="#3eab95" transform="translate(229,117.875)"/>
    <path d="M0 0 C6.40451977 0.36949153 6.40451977 0.36949153 9.125 3.25 C10.053125 4.61125 10.053125 4.61125 11 6 C11.886875 6.86625 12.77375 7.7325 13.6875 8.625 C16 11 16 11 17 14 C17.598125 14.12375 18.19625 14.2475 18.8125 14.375 C22.01471694 15.28991913 23.060512 17.37230658 25 20 C25.5775 20.556875 26.155 21.11375 26.75 21.6875 C28 23 28 23 28 25 C28.53625 25.226875 29.0725 25.45375 29.625 25.6875 C34.69790732 28.49094878 38.6791427 32.27416462 42 37 C42 37.66 42 38.32 42 39 C42.86625 39.0928125 42.86625 39.0928125 43.75 39.1875 C46.90643986 40.3273255 48.03367464 42.33594629 50 45 C50.5775 45.556875 51.155 46.11375 51.75 46.6875 C53 48 53 48 53 50 C53.598125 50.28875 54.19625 50.5775 54.8125 50.875 C57 52 57 52 60 54 C60 54.66 60 55.32 60 56 C60.99 56 61.98 56 63 56 C63.33 55.01 63.66 54.02 64 53 C64.66 53 65.32 53 66 53 C66.33 52.01 66.66 51.02 67 50 C67.66 50 68.32 50 69 50 C69 49.34 69 48.68 69 48 C69.66 48 70.32 48 71 48 C71.33 47.01 71.66 46.02 72 45 C72.66 45 73.32 45 74 45 C74.33 44.01 74.66 43.02 75 42 C75.66 42 76.32 42 77 42 C77.33 41.01 77.66 40.02 78 39 C78.66 39 79.32 39 80 39 C80 38.34 80 37.68 80 37 C81.375 35.375 81.375 35.375 83 34 C83.66 34 84.32 34 85 34 C85.33 33.01 85.66 32.02 86 31 C86.66 31 87.32 31 88 31 C88.33 30.01 88.66 29.02 89 28 C89.66 28 90.32 28 91 28 C91.33 27.01 91.66 26.02 92 25 C92.66 25 93.32 25 94 25 C94 24.34 94 23.68 94 23 C94.66 23 95.32 23 96 23 C96.33 22.01 96.66 21.02 97 20 C97.66 20 98.32 20 99 20 C99.33 19.01 99.66 18.02 100 17 C100.66 17 101.32 17 102 17 C102.33 16.01 102.66 15.02 103 14 C103.66 14 104.32 14 105 14 C105 13.34 105 12.68 105 12 C106.375 10.375 106.375 10.375 108 9 C108.66 9 109.32 9 110 9 C110.33 8.01 110.66 7.02 111 6 C111.66 6 112.32 6 113 6 C113.33 5.01 113.66 4.02 114 3 C114.66 3 115.32 3 116 3 C116.33 2.01 116.66 1.02 117 0 C123.40256959 0.36937901 123.40256959 0.36937901 126.25 3.375 C126.8275 4.24125 127.405 5.1075 128 6 C128.5775 6.556875 129.155 7.11375 129.75 7.6875 C131 9 131 9 131 11 C131.5775 11.061875 132.155 11.12375 132.75 11.1875 C135.89829784 12.32438533 136.98091594 14.36907229 139 17 C139.886875 17.680625 140.77375 18.36125 141.6875 19.0625 C144.10394436 21.08708852 144.67140682 21.93313028 145 25 C145.5775 25.061875 146.155 25.12375 146.75 25.1875 C149.91964348 26.33209348 150.99420228 28.32560305 153 31 C155.49778183 33.6258732 157.85611866 35.89768438 160.8125 38 C163 40 163 40 163.625 42.375 C162.72486647 46.15556083 160.62427723 48.19263366 158 51 C157.443125 51.61875 156.88625 52.2375 156.3125 52.875 C155 54 155 54 153 54 C152.67 54.99 152.34 55.98 152 57 C151.34 57 150.68 57 150 57 C150 57.66 150 58.32 150 59 C148.33784732 60.33895632 146.67036393 61.67130142 145 63 C144.278125 63.9075 143.55625 64.815 142.8125 65.75 C142.214375 66.4925 141.61625 67.235 141 68 C140.34 68 139.68 68 139 68 C138.67 68.99 138.34 69.98 138 71 C137.34 71 136.68 71 136 71 C136 71.66 136 72.32 136 73 C134.34997172 74.35386936 132.6825613 75.68678142 131 77 C130.67 77.66 130.34 78.32 130 79 C129.34 79 128.68 79 128 79 C127.67 79.99 127.34 80.98 127 82 C126.34 82 125.68 82 125 82 C125 82.66 125 83.32 125 84 C123.33784732 85.33895632 121.67036393 86.67130142 120 88 C119.278125 88.9075 118.55625 89.815 117.8125 90.75 C117.214375 91.4925 116.61625 92.235 116 93 C115.34 93 114.68 93 114 93 C113.67 93.99 113.34 94.98 113 96 C112.34 96 111.68 96 111 96 C111 96.66 111 97.32 111 98 C109.625 99.625 109.625 99.625 108 101 C107.34 101 106.68 101 106 101 C106 101.66 106 102.32 106 103 C106.5775 103.061875 107.155 103.12375 107.75 103.1875 C110.90643986 104.3273255 112.03367464 106.33594629 114 109 C114.5775 109.556875 115.155 110.11375 115.75 110.6875 C117 112 117 112 117 114 C117.53625 114.226875 118.0725 114.45375 118.625 114.6875 C123.69790732 117.49094878 127.6791427 121.27416462 131 126 C131 126.66 131 127.32 131 128 C131.5775 128.061875 132.155 128.12375 132.75 128.1875 C135.90643986 129.3273255 137.03367464 131.33594629 139 134 C139.86625 134.8353125 139.86625 134.8353125 140.75 135.6875 C142 137 142 137 142 139 C142.99 139.33 143.98 139.66 145 140 C145 140.66 145 141.32 145 142 C145.5775 142.061875 146.155 142.12375 146.75 142.1875 C149.90643986 143.3273255 151.03367464 145.33594629 153 148 C153.86625 148.8353125 153.86625 148.8353125 154.75 149.6875 C156 151 156 151 156 153 C156.598125 153.28875 157.19625 153.5775 157.8125 153.875 C160 155 160 155 163 157 C163.5 159.3125 163.5 159.3125 163 162 C160.625 164.8125 160.625 164.8125 158 167 C157.34 167 156.68 167 156 167 C155.73363235 167.58972092 155.46726471 168.17944183 155.19282532 168.78703308 C153.97343625 171.04928189 152.7041878 172.57356417 150.91479492 174.4074707 C150.29042038 175.05106033 149.66604584 175.69464996 149.02275085 176.35774231 C148.34879776 177.04019516 147.67484467 177.72264801 146.98046875 178.42578125 C146.28488358 179.13276657 145.5892984 179.83975189 144.87263489 180.56816101 C143.40189395 182.05776751 141.92824375 183.54450642 140.4519043 185.02856445 C138.1921582 187.30780162 135.954611 189.60745585 133.71679688 191.90820312 C132.28517773 193.3528753 130.85227744 194.79627929 129.41796875 196.23828125 C128.75008835 196.93085526 128.08220795 197.62342926 127.39408875 198.33699036 C125.6552736 200.05933942 124.03169317 201.63533606 122 203 C119.03637695 202.92260742 119.03637695 202.92260742 117 202 C116.67 201.01 116.34 200.02 116 199 C115.01 198.67 114.02 198.34 113 198 C113 197.34 113 196.68 113 196 C112.01 195.67 111.02 195.34 110 195 C110 194.34 110 193.68 110 193 C109.360625 192.731875 108.72125 192.46375 108.0625 192.1875 C106 191 106 191 105 188 C104.01 187.67 103.02 187.34 102 187 C102 186.34 102 185.68 102 185 C101.01 184.67 100.02 184.34 99 184 C99 183.34 99 182.68 99 182 C98.01 181.67 97.02 181.34 96 181 C96 180.34 96 179.68 96 179 C95.360625 178.731875 94.72125 178.46375 94.0625 178.1875 C92 177 92 177 91 174 C90.01 173.67 89.02 173.34 88 173 C88 172.34 88 171.68 88 171 C87.01 170.67 86.02 170.34 85 170 C85 169.34 85 168.68 85 168 C84.01 167.67 83.02 167.34 82 167 C82 166.34 82 165.68 82 165 C81.34 165 80.68 165 80 165 C80 164.34 80 163.68 80 163 C79.01 162.67 78.02 162.34 77 162 C77 161.34 77 160.68 77 160 C76.01 159.67 75.02 159.34 74 159 C74 158.34 74 157.68 74 157 C73.01 156.67 72.02 156.34 71 156 C71 155.34 71 154.68 71 154 C70.360625 153.731875 69.72125 153.46375 69.0625 153.1875 C67 152 67 152 66 149 C65.01 148.67 64.02 148.34 63 148 C63 147.34 63 146.68 63 146 C62.34 146 61.68 146 61 146 C61 146.66 61 147.32 61 148 C59.34997172 149.35386936 57.6825613 150.68678142 56 152 C55.67 152.66 55.34 153.32 55 154 C54.34 154 53.68 154 53 154 C52.67 154.99 52.34 155.98 52 157 C51.34 157 50.68 157 50 157 C49.67 157.99 49.34 158.98 49 160 C48.34 160 47.68 160 47 160 C47 160.66 47 161.32 47 162 C45.34997172 163.35386936 43.6825613 164.68678142 42 166 C41.67 166.66 41.34 167.32 41 168 C40.34 168 39.68 168 39 168 C38.67 168.99 38.34 169.98 38 171 C37.34 171 36.68 171 36 171 C35.67 171.99 35.34 172.98 35 174 C34.34 174 33.68 174 33 174 C33 174.66 33 175.32 33 176 C31.625 177.625 31.625 177.625 30 179 C29.34 179 28.68 179 28 179 C27.67 179.99 27.34 180.98 27 182 C26.34 182 25.68 182 25 182 C24.67 182.99 24.34 183.98 24 185 C23.34 185 22.68 185 22 185 C22 185.66 22 186.32 22 187 C20.34997172 188.35386936 18.6825613 189.68678142 17 191 C16.67 191.66 16.34 192.32 16 193 C15.34 193 14.68 193 14 193 C13.67 193.99 13.34 194.98 13 196 C12.34 196 11.68 196 11 196 C10.67 196.99 10.34 197.98 10 199 C9.34 199 8.68 199 8 199 C8 199.66 8 200.32 8 201 C5 203 5 203 2.3125 202.625 C1.549375 202.41875 0.78625 202.2125 0 202 C-0.33 201.01 -0.66 200.02 -1 199 C-1.99 198.67 -2.98 198.34 -4 198 C-4 197.34 -4 196.68 -4 196 C-4.99 195.67 -5.98 195.34 -7 195 C-7 194.34 -7 193.68 -7 193 C-7.639375 192.731875 -8.27875 192.46375 -8.9375 192.1875 C-11 191 -11 191 -12 188 C-12.99 187.67 -13.98 187.34 -15 187 C-15 186.34 -15 185.68 -15 185 C-15.99 184.67 -16.98 184.34 -18 184 C-18 183.34 -18 182.68 -18 182 C-18.639375 181.731875 -19.27875 181.46375 -19.9375 181.1875 C-22 180 -22 180 -23 177 C-23.99 176.67 -24.98 176.34 -26 176 C-26 175.34 -26 174.68 -26 174 C-26.99 173.67 -27.98 173.34 -29 173 C-29 172.34 -29 171.68 -29 171 C-29.99 170.67 -30.98 170.34 -32 170 C-32 169.34 -32 168.68 -32 168 C-32.639375 167.731875 -33.27875 167.46375 -33.9375 167.1875 C-36 166 -36 166 -37 163 C-37.99 162.67 -38.98 162.34 -40 162 C-40 160.35 -40 158.7 -40 157 C-39.01 156.67 -38.02 156.34 -37 156 C-36.67 155.01 -36.34 154.02 -36 153 C-35.34 153 -34.68 153 -34 153 C-34 152.34 -34 151.68 -34 151 C-32.625 149.375 -32.625 149.375 -31 148 C-30.34 148 -29.68 148 -29 148 C-28.67 147.01 -28.34 146.02 -28 145 C-27.34 145 -26.68 145 -26 145 C-25.67 144.01 -25.34 143.02 -25 142 C-24.34 142 -23.68 142 -23 142 C-23 141.34 -23 140.68 -23 140 C-21.625 138.375 -21.625 138.375 -20 137 C-19.34 137 -18.68 137 -18 137 C-17.67 136.01 -17.34 135.02 -17 134 C-16.34 134 -15.68 134 -15 134 C-14.67 133.01 -14.34 132.02 -14 131 C-13.34 131 -12.68 131 -12 131 C-11.67 130.01 -11.34 129.02 -11 128 C-10.34 128 -9.68 128 -9 128 C-9 127.34 -9 126.68 -9 126 C-7.625 124.375 -7.625 124.375 -6 123 C-5.34 123 -4.68 123 -4 123 C-3.505 121.515 -3.505 121.515 -3 120 C-2.34 120 -1.68 120 -1 120 C-0.505 118.515 -0.505 118.515 0 117 C0.66 117 1.32 117 2 117 C2 116.34 2 115.68 2 115 C3.375 113.375 3.375 113.375 5 112 C5.66 112 6.32 112 7 112 C7.495 110.515 7.495 110.515 8 109 C8.66 109 9.32 109 10 109 C10.495 107.515 10.495 107.515 11 106 C11.66 106 12.32 106 13 106 C13.495 104.515 13.495 104.515 14 103 C14.66 103 15.32 103 16 103 C16 101.68 16 100.36 16 99 C15.01 98.67 14.02 98.34 13 98 C13 97.34 13 96.68 13 96 C12.01 95.67 11.02 95.34 10 95 C10 94.34 10 93.68 10 93 C9.01 92.67 8.02 92.34 7 92 C7 91.34 7 90.68 7 90 C6.360625 89.731875 5.72125 89.46375 5.0625 89.1875 C3 88 3 88 2 85 C1.01 84.67 0.02 84.34 -1 84 C-1 83.34 -1 82.68 -1 82 C-1.99 81.67 -2.98 81.34 -4 81 C-4 80.34 -4 79.68 -4 79 C-4.99 78.67 -5.98 78.34 -7 78 C-7 77.34 -7 76.68 -7 76 C-7.66 76 -8.32 76 -9 76 C-9 75.34 -9 74.68 -9 74 C-10.485 73.505 -10.485 73.505 -12 73 C-12 72.34 -12 71.68 -12 71 C-13.485 70.505 -13.485 70.505 -15 70 C-15 69.34 -15 68.68 -15 68 C-16.485 67.505 -16.485 67.505 -18 67 C-18 66.34 -18 65.68 -18 65 C-18.639375 64.731875 -19.27875 64.46375 -19.9375 64.1875 C-22 63 -22 63 -23 60 C-24.485 59.505 -24.485 59.505 -26 59 C-26 58.34 -26 57.68 -26 57 C-26.99 56.67 -27.98 56.34 -29 56 C-29 55.34 -29 54.68 -29 54 C-29.99 53.67 -30.98 53.34 -32 53 C-32 52.34 -32 51.68 -32 51 C-32.66 51 -33.32 51 -34 51 C-34 50.34 -34 49.68 -34 49 C-34.99 48.67 -35.98 48.34 -37 48 C-37 47.34 -37 46.68 -37 46 C-37.99 45.67 -38.98 45.34 -40 45 C-40 43.35 -40 41.7 -40 40 C-38.515 39.505 -38.515 39.505 -37 39 C-37 38.34 -37 37.68 -37 37 C-35.34997172 35.64613064 -33.6825613 34.31321858 -32 33 C-31.67 32.34 -31.34 31.68 -31 31 C-30.34 31 -29.68 31 -29 31 C-28.67 30.01 -28.34 29.02 -28 28 C-27.34 28 -26.68 28 -26 28 C-25.67 27.01 -25.34 26.02 -25 25 C-24.34 25 -23.68 25 -23 25 C-23 24.34 -23 23.68 -23 23 C-21.625 21.375 -21.625 21.375 -20 20 C-19.34 20 -18.68 20 -18 20 C-17.67 19.01 -17.34 18.02 -17 17 C-16.34 17 -15.68 17 -15 17 C-14.67 16.01 -14.34 15.02 -14 14 C-13.34 14 -12.68 14 -12 14 C-12 13.34 -12 12.68 -12 12 C-10.34997172 10.64613064 -8.6825613 9.31321858 -7 8 C-6.67 7.34 -6.34 6.68 -6 6 C-5.34 6 -4.68 6 -4 6 C-3.67 5.01 -3.34 4.02 -3 3 C-2.34 3 -1.68 3 -1 3 C-0.67 2.01 -0.34 1.02 0 0 Z " fill="#3eab95" transform="translate(564,326)"/>
</svg>
