<?xml version="1.0" encoding="UTF-8"?>
<svg version="1.1"
    xmlns="http://www.w3.org/2000/svg" width="897" height="841">
    <path d="M0 0 C0.88091309 0.03577148 1.76182617 0.07154297 2.66943359 0.10839844 C17.50104675 0.79151526 30.92991337 3.29012615 45 8 C46.77503906 8.5878125 46.77503906 8.5878125 48.5859375 9.1875 C49.38257813 9.455625 50.17921875 9.72375 51 10 C51 10.66 51 11.32 51 12 C51.86625 12.103125 52.7325 12.20625 53.625 12.3125 C57.29012155 13.05909883 59.71523153 14.20267385 63 16 C64.39798828 16.75796875 64.39798828 16.75796875 65.82421875 17.53125 C68.55379081 19.01311755 71.27837913 20.50359279 74 22 C74 22.66 74 23.32 74 24 C76.475 24.495 76.475 24.495 79 25 C79 25.66 79 26.32 79 27 C79.99 27 80.98 27 82 27 C82 27.66 82 28.32 82 29 C82.99 29.33 83.98 29.66 85 30 C85 30.66 85 31.32 85 32 C85.763125 32.103125 86.52625 32.20625 87.3125 32.3125 C90.18416484 33.04711194 91.23042094 33.6716065 93 36 C93 36.66 93 37.32 93 38 C93.99 38.33 94.98 38.66 96 39 C96 39.66 96 40.32 96 41 C96.99 41.33 97.98 41.66 99 42 C99 42.66 99 43.32 99 44 C99.99 44.33 100.98 44.66 102 45 C102 45.66 102 46.32 102 47 C102.9590625 47.4021875 102.9590625 47.4021875 103.9375 47.8125 C106 49 106 49 107 52 C107.99 52.33 108.98 52.66 110 53 C110 53.66 110 54.32 110 55 C110.66 55 111.32 55 112 55 C112.33 56.32 112.66 57.64 113 59 C113.66 59 114.32 59 115 59 C115.12375 60.175625 115.12375 60.175625 115.25 61.375 C115.4975 62.24125 115.745 63.1075 116 64 C117.31647119 64.69937532 118.65022151 65.36729133 120 66 C120.75 68.125 120.75 68.125 121 70 C121.66 70 122.32 70 123 70 C123.33 71.65 123.66 73.3 124 75 C124.66 75 125.32 75 126 75 C126.33 76.98 126.66 78.96 127 81 C127.66 81 128.32 81 129 81 C129 81.99 129 82.98 129 84 C129.66 84 130.32 84 131 84 C131.33 85.98 131.66 87.96 132 90 C132.66 90 133.32 90 134 90 C134.33 92.64 134.66 95.28 135 98 C135.66 98 136.32 98 137 98 C139.50277381 105.16530166 141.66978223 112.30392232 143.38671875 119.69921875 C143.78009052 121.94713309 143.78009052 121.94713309 145 123 C145.21321728 124.32668532 145.36997463 125.66259619 145.5 127 C145.62375 128.2065625 145.62375 128.2065625 145.75 129.4375 C145.91666667 131.14583333 146.08333333 132.85416667 146.25 134.5625 C146.37375 135.7690625 146.37375 135.7690625 146.5 137 C146.5721875 137.7425 146.644375 138.485 146.71875 139.25 C146.8285148 141.02383001 146.8285148 141.02383001 148 142 C148.08790975 144.29151417 148.10694038 146.58572524 148.09765625 148.87890625 C148.0962413 149.5655687 148.09482635 150.25223114 148.09336853 150.95970154 C148.08775479 153.16067801 148.07520007 155.36155409 148.0625 157.5625 C148.05748676 159.05143083 148.05292355 160.54036324 148.04882812 162.02929688 C148.03778093 165.68623075 148.02050713 169.34310558 148 173 C147.34 173 146.68 173 146 173 C146.03480469 173.71542969 146.06960938 174.43085938 146.10546875 175.16796875 C146.38266702 185.37150522 144.25990705 194.38327419 141 204 C140.65023242 205.32911682 140.30903983 206.66082739 140 208 C139.34 208 138.68 208 138 208 C137.67 210.64 137.34 213.28 137 216 C136.34 216 135.68 216 135 216 C134.896875 216.86625 134.79375 217.7325 134.6875 218.625 C133.96601586 222.16683123 132.72876739 224.84312042 131 228 C130.34 228 129.68 228 129 228 C129 228.99 129 229.98 129 231 C128.34 231 127.68 231 127 231 C126.67 232.65 126.34 234.3 126 236 C125.34 236 124.68 236 124 236 C123.896875 236.7425 123.79375 237.485 123.6875 238.25 C122.95066203 241.1973519 122.05200858 242.78383074 120 245 C119.34 245 118.68 245 118 245 C118 245.99 118 246.98 118 248 C117.34 248 116.68 248 116 248 C115.773125 248.515625 115.54625 249.03125 115.3125 249.5625 C113.51782382 252.89547005 111.50034985 256.14703671 109 259 C108.34 259 107.68 259 107 259 C106.99864347 260.09900271 106.99728694 261.19800542 106.99588931 262.33031124 C106.93597621 310.76371854 106.87360296 359.19712183 106.79867554 407.63050842 C106.79754191 408.36373917 106.79640829 409.09696991 106.79524031 409.85241977 C106.77058901 425.78740551 106.74549614 441.72239053 106.71994839 457.65737486 C106.70742251 465.4718598 106.69499421 473.2863449 106.68261719 481.10083008 C106.68138386 481.87846629 106.68015054 482.6561025 106.67887984 483.45730345 C106.63894823 508.66383248 106.60546031 533.87036506 106.57531309 559.07690753 C106.54429951 584.97937578 106.50678687 610.88182668 106.46109388 636.78427339 C106.45464346 640.44260857 106.44826735 644.10094387 106.44193649 647.75927925 C106.44068819 648.47929384 106.43943988 649.19930844 106.43815375 649.94114166 C106.41824867 661.53252036 106.40519694 673.12389714 106.39470672 684.71528776 C106.38401493 696.3678596 106.36594572 708.02039864 106.34083296 719.67294883 C106.32744196 725.98682727 106.317299 732.30066768 106.31578636 738.61456108 C106.31433103 744.39394268 106.30374349 750.17323266 106.28586559 755.95258612 C106.28101209 758.0442481 106.2795217 760.13592112 106.28172119 762.22758757 C106.28422006 765.07047301 106.27447692 767.9130674 106.26171303 770.75591946 C106.26536271 771.56814031 106.26901239 772.38036116 106.27277267 773.21719477 C106.21604573 780.55720378 104.90093314 787.42243327 102 794.1875 C100.50923631 797.75309525 99.16485968 801.31127768 98 805 C97.34 805 96.68 805 96 805 C95.67 806.65 95.34 808.3 95 810 C94.34 810 93.68 810 93 810 C93 810.66 93 811.32 93 812 C92.34 812 91.68 812 91 812 C90.67 813.32 90.34 814.64 90 816 C89.34 816 88.68 816 88 816 C87.67 816.99 87.34 817.98 87 819 C86.34 819 85.68 819 85 819 C84.67 819.99 84.34 820.98 84 822 C83.34 822 82.68 822 82 822 C82 822.66 82 823.32 82 824 C77.64705882 828 77.64705882 828 74 828 C73.67 828.99 73.34 829.98 73 831 C70 833 70 833 66 833 C66 833.66 66 834.32 66 835 C64.29422658 835.65256456 62.58523911 836.29673041 60.875 836.9375 C59.44800781 837.47697266 59.44800781 837.47697266 57.9921875 838.02734375 C51.18148043 840.24126811 44.53701695 840.14193883 37.44839764 840.12863445 C35.68446058 840.13126401 35.68446058 840.13126401 33.88488844 840.13394669 C30.61471548 840.13780253 27.34457849 840.13717538 24.07440534 840.13466892 C20.51892912 840.13303631 16.96345887 840.13717628 13.40798455 840.14057809 C7.17443959 840.14573423 0.94090239 840.14714892 -5.2926445 840.14612198 C-14.56220393 840.14459859 -23.83175475 840.14875538 -33.1013125 840.1539966 C-50.6190592 840.16367462 -68.13680297 840.16648101 -85.65455202 840.16705366 C-99.18074502 840.16751294 -112.70693687 840.16956992 -126.2331295 840.17275429 C-130.12454261 840.17365181 -134.01595573 840.17454162 -137.90736884 840.17542917 C-138.87474382 840.17565021 -139.84211881 840.17587126 -140.83880819 840.17609901 C-168.05439533 840.1822544 -195.26998208 840.18619945 -222.48556995 840.18575573 C-223.51195191 840.18574015 -224.53833387 840.18572457 -225.59581831 840.18570852 C-230.79812689 840.18562541 -236.00043547 840.18552637 -241.20274404 840.18542381 C-242.23596936 840.18540387 -243.26919467 840.18538392 -244.33372984 840.18536337 C-246.42316355 840.18532294 -248.51259725 840.18528114 -250.60203095 840.18523798 C-283.11530701 840.18462513 -315.62857263 840.1921331 -348.1418457 840.20581055 C-384.65734983 840.22116524 -421.17284711 840.22977715 -457.68835467 840.22884732 C-461.58071085 840.22877269 -465.47306702 840.22872399 -469.3654232 840.22869301 C-470.80305414 840.22867553 -470.80305414 840.22867553 -472.26972812 840.22865769 C-487.70471448 840.2286269 -503.13969179 840.23501743 -518.57467545 840.24362527 C-534.082255 840.25209484 -549.58982131 840.25309716 -565.09740189 840.24651595 C-574.31374084 840.2428157 -583.53003958 840.24466682 -592.74637428 840.25445829 C-598.90100193 840.26044532 -605.05560037 840.25917708 -611.21022666 840.25198779 C-614.71800408 840.24809549 -618.22570354 840.24736164 -621.73347554 840.25544515 C-625.51268053 840.26247249 -629.29167647 840.2572371 -633.07087421 840.24888897 C-634.15893174 840.25385715 -635.24698927 840.25882533 -636.36801824 840.26394406 C-642.5537774 840.23494755 -648.01134396 839.57027823 -654 838 C-654 837.34 -654 836.68 -654 836 C-655.60875 835.814375 -655.60875 835.814375 -657.25 835.625 C-660.37863615 835.10356064 -662.33480424 834.59911746 -665 833 C-665 832.34 -665 831.68 -665 831 C-666.65 830.67 -668.3 830.34 -670 830 C-670 829.34 -670 828.68 -670 828 C-670.99 827.67 -671.98 827.34 -673 827 C-673 826.34 -673 825.68 -673 825 C-673.556875 824.938125 -674.11375 824.87625 -674.6875 824.8125 C-678.72136865 823.3951948 -681.23753357 820.34339324 -683.3125 816.6875 C-683.539375 816.130625 -683.76625 815.57375 -684 815 C-684.66 815 -685.32 815 -686 815 C-686.33 813.68 -686.66 812.36 -687 811 C-687.66 811 -688.32 811 -689 811 C-689.495 808.03 -689.495 808.03 -690 805 C-690.66 805 -691.32 805 -692 805 C-695 799.375 -695 799.375 -695 796 C-695.66 796 -696.32 796 -697 796 C-698.65610722 788.31105188 -699.28677317 781.01772966 -699.25168228 773.16391659 C-699.25458916 772.01794478 -699.25749604 770.87197296 -699.26049101 769.69127473 C-699.26777804 765.85906548 -699.26085356 762.02701699 -699.25396729 758.19480896 C-699.25516383 755.41644856 -699.25936709 752.63809448 -699.26342177 749.85973698 C-699.27063184 743.82303661 -699.27043421 737.78637203 -699.26532745 731.74967003 C-699.25775417 722.77284907 -699.26163428 713.79605824 -699.26774407 704.81923747 C-699.27827069 688.78578398 -699.27736473 672.75234643 -699.27158624 656.71889143 C-699.26655445 642.68834089 -699.26524205 628.6577962 -699.26763153 614.62724495 C-699.2677843 613.69644095 -699.26793707 612.76563695 -699.26809447 611.80662677 C-699.26871715 608.0281681 -699.26935395 604.24970943 -699.270014 600.47125076 C-699.27613134 565.03005665 -699.27058602 529.58887269 -699.2598202 494.14768014 C-699.25032829 462.66070385 -699.25117898 431.17374373 -699.26074219 399.68676758 C-699.27145127 364.30873922 -699.27569828 328.93071984 -699.26951766 293.55269009 C-699.26887623 289.78143982 -699.26825055 286.01018955 -699.26763153 282.23893929 C-699.26747338 281.31036475 -699.26731522 280.38179021 -699.26715227 279.42507704 C-699.26487733 265.40269516 -699.26753786 251.38031976 -699.27259064 237.35793877 C-699.27830695 221.41465197 -699.27688413 205.47138361 -699.26602915 189.52809911 C-699.26015442 180.60522161 -699.25977637 171.68238403 -699.2673215 162.75950757 C-699.27180556 156.79939108 -699.26901639 150.83930662 -699.26031196 144.87919488 C-699.25555449 141.48340511 -699.25502734 138.08775982 -699.26112393 134.69196241 C-699.2671929 131.03131256 -699.26097968 127.37088071 -699.25168228 123.71024227 C-699.25870578 122.13477724 -699.25870578 122.13477724 -699.26587117 120.52748463 C-699.22280692 112.06139083 -698.47450112 103.9267126 -694.375 96.375 C-693.92898438 95.53710938 -693.48296875 94.69921875 -693.0234375 93.8359375 C-692.68570313 93.23007813 -692.34796875 92.62421875 -692 92 C-691.34 92 -690.68 92 -690 92 C-689.67 90.35 -689.34 88.7 -689 87 C-688.34 87 -687.68 87 -687 87 C-686.9071875 86.1646875 -686.9071875 86.1646875 -686.8125 85.3125 C-685.66587721 82.04903513 -683.48044843 80.35945094 -681 78 C-680.34 77.01 -679.68 76.02 -679 75 C-678.01 75 -677.02 75 -676 75 C-675.505 73.515 -675.505 73.515 -675 72 C-674.34 72 -673.68 72 -673 72 C-672.505 70.515 -672.505 70.515 -672 69 C-668.18490467 66.35229977 -664.08537948 64.20182649 -660 62 C-659.35160156 61.64164063 -658.70320312 61.28328125 -658.03515625 60.9140625 C-652.98046892 58.41761546 -647.53040897 58.29002145 -642 58 C-642 57.34 -642 56.68 -642 56 C-472.05 55.67 -302.1 55.34 -127 55 C-126.67 54.01 -126.34 53.02 -126 52 C-125.34 52 -124.68 52 -124 52 C-123.90332031 51.41347656 -123.80664062 50.82695313 -123.70703125 50.22265625 C-122.11045043 45.20357068 -116.36359447 40.74744837 -112 38 C-111.34 38 -110.68 38 -110 38 C-109.67 37.01 -109.34 36.02 -109 35 C-108.34 35 -107.68 35 -107 35 C-107 34.34 -107 33.68 -107 33 C-105.35 32.67 -103.7 32.34 -102 32 C-101.67 31.01 -101.34 30.02 -101 29 C-100.34 29 -99.68 29 -99 29 C-99 28.34 -99 27.68 -99 27 C-98.01 27 -97.02 27 -96 27 C-96 26.34 -96 25.68 -96 25 C-93.525 24.505 -93.525 24.505 -91 24 C-91 23.34 -91 22.68 -91 22 C-88.73272667 20.82592979 -86.46165376 19.66060261 -84.1875 18.5 C-83.22360352 17.99919922 -83.22360352 17.99919922 -82.24023438 17.48828125 C-79.30452301 15.99760916 -77.33873483 15 -74 15 C-74 14.34 -74 13.68 -74 13 C-71.36 12.67 -68.72 12.34 -66 12 C-66 11.34 -66 10.68 -66 10 C-63.14827038 9.01321102 -60.29395658 8.03543182 -57.4375 7.0625 C-56.63763672 6.78470703 -55.83777344 6.50691406 -55.01367188 6.22070312 C-50.3114991 4.62772214 -45.92032301 3.61423218 -41 3 C-40.67 2.67 -40.34 2.34 -40 2 C-38.41139922 1.77117681 -36.81373966 1.60464498 -35.21484375 1.46484375 C-33.71920898 1.33384277 -33.71920898 1.33384277 -32.19335938 1.20019531 C-21.43332701 0.33203433 -10.79927973 -0.48754145 0 0 Z M-642 88 C-642 88.66 -642 89.32 -642 90 C-642.7425 90.12375 -643.485 90.2475 -644.25 90.375 C-646.80141485 90.95486701 -648.7267573 91.73708739 -651 93 C-651 93.66 -651 94.32 -651 95 C-651.53625 95.226875 -652.0725 95.45375 -652.625 95.6875 C-660.00093535 99.7636748 -663.75354091 105.27526932 -667 113 C-667 114.32 -667 115.64 -667 117 C-667.66 117 -668.32 117 -669 117 C-669 335.79 -669 554.58 -669 780 C-668.34 780 -667.68 780 -667 780 C-666.9175 780.66 -666.835 781.32 -666.75 782 C-665.75240209 785.99039163 -663.92833317 789.38549643 -662 793 C-661.67 792.01 -661.34 791.02 -661 790 C-660.34 790 -659.68 790 -659 790 C-657.43098141 783.01466204 -657.43098141 783.01466204 -656 776 C-655.34 776 -654.68 776 -654 776 C-653.66226563 775.16855469 -653.32453125 774.33710937 -652.9765625 773.48046875 C-652.30753906 771.85044922 -652.30753906 771.85044922 -651.625 770.1875 C-651.18414063 769.10855469 -650.74328125 768.02960937 -650.2890625 766.91796875 C-649 764 -649 764 -647 761 C-647 760.01 -647 759.02 -647 758 C-646.34 758 -645.68 758 -645 758 C-645 757.01 -645 756.02 -645 755 C-644.34 755 -643.68 755 -643 755 C-640.03764305 751.36676311 -640.03764305 751.36676311 -639 747 C-638.34 747 -637.68 747 -637 747 C-636.566875 746.2575 -636.13375 745.515 -635.6875 744.75 C-633.8114586 741.69274735 -631.81023793 740.19335644 -629 738 C-628.38125 737.21625 -627.7625 736.4325 -627.125 735.625 C-624.85814495 732.82476729 -622.41561556 730.69631882 -619.65234375 728.40625 C-617.88842646 726.95789347 -617.88842646 726.95789347 -616.0625 724.9375 C-613.49173462 722.52253858 -610.66127999 720.89715678 -607.609375 719.1484375 C-607.07828125 718.76945313 -606.5471875 718.39046875 -606 718 C-606 717.34 -606 716.68 -606 716 C-604.35 715.67 -602.7 715.34 -601 715 C-601 714.34 -601 713.68 -601 713 C-599.02 712.67 -597.04 712.34 -595 712 C-595 711.34 -595 710.68 -595 710 C-594.01 710 -593.02 710 -592 710 C-592.495 708.515 -592.495 708.515 -593 707 C-593.99 707 -594.98 707 -596 707 C-596 706.34 -596 705.68 -596 705 C-596.639375 704.896875 -597.27875 704.79375 -597.9375 704.6875 C-598.618125 704.460625 -599.29875 704.23375 -600 704 C-600.495 702.515 -600.495 702.515 -601 701 C-601.66 701 -602.32 701 -603 701 C-603.495 699.515 -603.495 699.515 -604 698 C-604.66 698 -605.32 698 -606 698 C-606.495 696.515 -606.495 696.515 -607 695 C-607.66 695 -608.32 695 -609 695 C-609 694.34 -609 693.68 -609 693 C-609.66 693 -610.32 693 -611 693 C-611.495 691.515 -611.495 691.515 -612 690 C-612.66 690 -613.32 690 -614 690 C-614.33 688.35 -614.66 686.7 -615 685 C-615.66 685 -616.32 685 -617 685 C-617.33 683.68 -617.66 682.36 -618 681 C-618.66 681 -619.32 681 -620 681 C-620.12375 680.46375 -620.2475 679.9275 -620.375 679.375 C-621.12206016 676.5361714 -622.05303364 673.77776798 -623 671 C-623.66 671 -624.32 671 -625 671 C-625.33 668.69 -625.66 666.38 -626 664 C-626.66 664 -627.32 664 -628 664 C-628.33 660.7 -628.66 657.4 -629 654 C-629.66 654 -630.32 654 -631 654 C-630.96744792 651.98177083 -630.93489583 649.96354167 -630.90234375 647.9453125 C-630.87350758 645.91814596 -630.87350758 645.91814596 -632 644 C-632.24686371 639.67179465 -632.18522112 635.33443661 -632.1875 631 C-632.19974609 629.80503906 -632.21199219 628.61007812 -632.22460938 627.37890625 C-632.23822762 619.08993148 -631.54665652 611.5540442 -628.875 603.6875 C-627.98563983 600.95589378 -627.83229813 598.85093177 -628 596 C-627.34 596 -626.68 596 -626 596 C-625.18710947 593.72930578 -624.37467262 591.45845099 -623.5625 589.1875 C-623.33240234 588.54490234 -623.10230469 587.90230469 -622.86523438 587.24023438 C-621.88582149 584.50071717 -620.92004638 581.76013914 -620 579 C-619.34 579 -618.68 579 -618 579 C-617.4740625 577.7934375 -617.4740625 577.7934375 -616.9375 576.5625 C-615.023297 572.68807951 -612.34196652 569.48370089 -609.62109375 566.1484375 C-608.12106553 564.16044829 -607.02799907 562.26057506 -606 560 C-605.34 560 -604.68 560 -604 560 C-602.6434836 558.69026002 -601.31442362 557.35197858 -600 556 C-599.0925 555.29875 -598.185 554.5975 -597.25 553.875 C-596.5075 553.25625 -595.765 552.6375 -595 552 C-595 551.34 -595 550.68 -595 550 C-594.25363281 549.72671875 -593.50726562 549.4534375 -592.73828125 549.171875 C-590.18703318 548.08004273 -588.38369966 546.91392316 -586.1875 545.25 C-581.94711386 542.34455024 -577.5995711 540.47560703 -572.8125 538.6875 C-572.13533936 538.43323242 -571.45817871 538.17896484 -570.76049805 537.91699219 C-566.86414425 536.51229812 -563.10494357 535.54264417 -559 535 C-559 534.34 -559 533.68 -559 533 C-542.5 533 -526 533 -509 533 C-509 533.66 -509 534.32 -509 535 C-506.03 535.33 -503.06 535.66 -500 536 C-500 536.66 -500 537.32 -500 538 C-497.36 538.33 -494.72 538.66 -492 539 C-492 539.66 -492 540.32 -492 541 C-490.02 541.33 -488.04 541.66 -486 542 C-486 542.66 -486 543.32 -486 544 C-484.35 544.33 -482.7 544.66 -481 545 C-481 545.66 -481 546.32 -481 547 C-480.01 547 -479.02 547 -478 547 C-478 547.66 -478 548.32 -478 549 C-474.36676311 551.96235695 -474.36676311 551.96235695 -470 553 C-470 553.66 -470 554.32 -470 555 C-468.33784732 556.33895632 -466.67036393 557.67130142 -465 559 C-464.278125 559.9075 -463.55625 560.815 -462.8125 561.75 C-462.214375 562.4925 -461.61625 563.235 -461 564 C-460.34 564 -459.68 564 -459 564 C-458.731875 564.804375 -458.46375 565.60875 -458.1875 566.4375 C-457.795625 567.283125 -457.40375 568.12875 -457 569 C-456.01 569.33 -455.02 569.66 -454 570 C-453.67 571.65 -453.34 573.3 -453 575 C-452.34 575 -451.68 575 -451 575 C-450.67 576.65 -450.34 578.3 -450 580 C-449.34 580 -448.68 580 -448 580 C-446 586 -444 592 -442 598 C-441.34 598 -440.68 598 -440 598 C-439.93941406 598.78246094 -439.87882813 599.56492187 -439.81640625 600.37109375 C-439.73261719 601.38300781 -439.64882813 602.39492188 -439.5625 603.4375 C-439.48128906 604.44683594 -439.40007812 605.45617187 -439.31640625 606.49609375 C-439.26788532 608.93640779 -439.26788532 608.93640779 -438 610 C-436.43424237 618.56239489 -436.88473254 627.45520746 -436.9375 636.125 C-436.94252748 637.57291511 -436.94708817 639.02083192 -436.95117188 640.46875 C-436.96207295 643.97920259 -436.97926798 647.48959007 -437 651 C-437.66 651 -438.32 651 -439 651 C-439.33 654.63 -439.66 658.26 -440 662 C-440.66 662 -441.32 662 -442 662 C-442.33 664.64 -442.66 667.28 -443 670 C-443.66 670 -444.32 670 -445 670 C-445.33 671.98 -445.66 673.96 -446 676 C-446.66 676 -447.32 676 -448 676 C-448 676.99 -448 677.98 -448 679 C-448.66 679 -449.32 679 -450 679 C-450.33 680.65 -450.66 682.3 -451 684 C-451.66 684 -452.32 684 -453 684 C-453.33 684.99 -453.66 685.98 -454 687 C-454.9753197 688.02408568 -455.98198643 689.01834406 -457 690 C-460.59337913 693.50893206 -460.59337913 693.50893206 -462 698 C-462.99 698.33 -463.98 698.66 -465 699 C-465 699.66 -465 700.32 -465 701 C-467.66666667 702.33333333 -470.33333333 703.66666667 -473 705 C-473 705.66 -473 706.32 -473 707 C-473.99 707.33 -474.98 707.66 -476 708 C-475.67 709.32 -475.34 710.64 -475 712 C-472.69 712.33 -470.38 712.66 -468 713 C-468 713.66 -468 714.32 -468 715 C-467.01 715.33 -466.02 715.66 -465 716 C-464.67 716.66 -464.34 717.32 -464 718 C-461.47266765 718.65555119 -461.47266765 718.65555119 -459 719 C-459 719.66 -459 720.32 -459 721 C-456.36107824 722.78305524 -454.02821137 723.99059621 -451 725 C-451 725.66 -451 726.32 -451 727 C-448.36315253 729.39820305 -448.36315253 729.39820305 -445 730 C-445 730.66 -445 731.32 -445 732 C-443.36395804 733.37073786 -441.69321939 734.70055256 -440 736 C-437.62112149 738.12399867 -437.0446753 738.86597409 -436 742 C-435.34 742 -434.68 742 -434 742 C-434 742.66 -434 743.32 -434 744 C-432.66666667 745.66666667 -432.66666667 745.66666667 -431 747 C-430.34 747 -429.68 747 -429 747 C-428.67 748.65 -428.34 750.3 -428 752 C-427.34 752 -426.68 752 -426 752 C-425.67 753.32 -425.34 754.64 -425 756 C-424.34 756 -423.68 756 -423 756 C-422.88785156 756.55171875 -422.77570313 757.1034375 -422.66015625 757.671875 C-421.88639227 760.40065211 -420.73182306 762.72772943 -419.4375 765.25 C-418.98246094 766.14203125 -418.52742187 767.0340625 -418.05859375 767.953125 C-417.70925781 768.62859375 -417.35992187 769.3040625 -417 770 C-416.34 770 -415.68 770 -415 770 C-414.67 772.64 -414.34 775.28 -414 778 C-413.34 778 -412.68 778 -412 778 C-412 777.01 -412 776.02 -412 775 C-411.34 775 -410.68 775 -410 775 C-409.67 772.69 -409.34 770.38 -409 768 C-408.34 768 -407.68 768 -407 768 C-406.67 766.02 -406.34 764.04 -406 762 C-405.34 762 -404.68 762 -404 762 C-403.18432826 760.56429734 -402.37257907 759.12636566 -401.5625 757.6875 C-400.88380859 756.48673828 -400.88380859 756.48673828 -400.19140625 755.26171875 C-398.88909452 752.93788571 -398.88909452 752.93788571 -398 750 C-397.34 750 -396.68 750 -396 750 C-395.67 748.68 -395.34 747.36 -395 746 C-394.34 746 -393.68 746 -393 746 C-392.896875 745.360625 -392.79375 744.72125 -392.6875 744.0625 C-392.460625 743.381875 -392.23375 742.70125 -392 742 C-391.01 741.67 -390.02 741.34 -389 741 C-387.391031 739.33695766 -387.391031 739.33695766 -385.8125 737.3125 C-382.77870108 733.71950509 -379.61041355 731.02728221 -375.7890625 728.3125 C-373.64043146 726.73621173 -371.84679041 724.91519006 -370 723 C-369.01 722.34 -368.02 721.68 -367 721 C-367 720.34 -367 719.68 -367 719 C-365.35 718.67 -363.7 718.34 -362 718 C-362 717.34 -362 716.68 -362 716 C-360.35 715.67 -358.7 715.34 -357 715 C-357 714.34 -357 713.68 -357 713 C-355.02 712.67 -353.04 712.34 -351 712 C-351 711.34 -351 710.68 -351 710 C-350.01 710 -349.02 710 -348 710 C-348 709.34 -348 708.68 -348 708 C-349.65 707.67 -351.3 707.34 -353 707 C-353.33 706.01 -353.66 705.02 -354 704 C-355.1446875 703.319375 -355.1446875 703.319375 -356.3125 702.625 C-359.31415771 700.81004418 -360.8556298 698.7359206 -363 696 C-363.66 696 -364.32 696 -365 696 C-366 694 -367 692 -368 690 C-368.66 690 -369.32 690 -370 690 C-370.33 688.68 -370.66 687.36 -371 686 C-371.66 686 -372.32 686 -373 686 C-373.33 684.68 -373.66 683.36 -374 682 C-374.66 682 -375.32 682 -376 682 C-376 681.01 -376 680.02 -376 679 C-376.66 679 -377.32 679 -378 679 C-378.33 677.02 -378.66 675.04 -379 673 C-379.66 673 -380.32 673 -381 673 C-381.12375 671.9275 -381.2475 670.855 -381.375 669.75 C-381.91682099 666.49907407 -382.54350842 664.82195244 -384 662 C-384.38290462 660.00889599 -384.72604615 658.00899487 -385 656 C-385.66 656 -386.32 656 -387 656 C-386.979375 655.030625 -386.95875 654.06125 -386.9375 653.0625 C-386.64381501 650.12534105 -386.64381501 650.12534105 -388 649 C-389.68939113 636.90312525 -389.68939113 624.09687475 -388 612 C-387.67 611.67 -387.34 611.34 -387 611 C-386.95907063 608.66702567 -386.95758277 606.33294775 -387 604 C-386.34 604 -385.68 604 -385 604 C-384.67 601.03 -384.34 598.06 -384 595 C-383.34 595 -382.68 595 -382 595 C-381.67 592.36 -381.34 589.72 -381 587 C-380.34 587 -379.68 587 -379 587 C-378.67 585.02 -378.34 583.04 -378 581 C-377.34 581 -376.68 581 -376 581 C-373.7986134 577.19572508 -373.7986134 577.19572508 -373 573 C-372.34 573 -371.68 573 -371 573 C-370.67 572.01 -370.34 571.02 -370 570 C-369.0246803 568.97591432 -368.01801357 567.98165594 -367 567 C-363.40662087 563.49106794 -363.40662087 563.49106794 -362 559 C-361.01 558.67 -360.02 558.34 -359 558 C-359 557.34 -359 556.68 -359 556 C-356.33333333 554.66666667 -353.66666667 553.33333333 -351 552 C-351 551.34 -351 550.68 -351 550 C-350.01 549.67 -349.02 549.34 -348 549 C-348 548.34 -348 547.68 -348 547 C-347.4225 546.87625 -346.845 546.7525 -346.25 546.625 C-343.97664233 545.99351176 -342.0746471 545.11141809 -340 544 C-340 543.34 -340 542.68 -340 542 C-338.02 541.67 -336.04 541.34 -334 541 C-334 540.34 -334 539.68 -334 539 C-331.36 538.67 -328.72 538.34 -326 538 C-326 537.34 -326 536.68 -326 536 C-325.28972656 535.93941406 -324.57945312 535.87882812 -323.84765625 535.81640625 C-322.46900391 535.69072266 -322.46900391 535.69072266 -321.0625 535.5625 C-320.14597656 535.48128906 -319.22945313 535.40007812 -318.28515625 535.31640625 C-316.03840268 535.23955024 -316.03840268 535.23955024 -315 534 C-310.02975867 533.10285879 -305.16169347 532.85231712 -300.125 532.8671875 C-299.39684082 532.86623077 -298.66868164 532.86527405 -297.91845703 532.86428833 C-296.38899651 532.86361212 -294.85953302 532.86542711 -293.33007812 532.86962891 C-291.00644403 532.87498515 -288.68300318 532.86966484 -286.359375 532.86328125 C-284.86458291 532.86394213 -283.36979094 532.8652235 -281.875 532.8671875 C-281.18937988 532.86516327 -280.50375977 532.86313904 -279.79736328 532.86105347 C-274.09169 532.88840393 -268.79738466 533.4821095 -263.3125 535.0625 C-259.93229761 536.18154831 -259.93229761 536.18154831 -256 536 C-256 536.66 -256 537.32 -256 538 C-253.36 538.33 -250.72 538.66 -248 539 C-248 539.66 -248 540.32 -248 541 C-247.34773438 541.31453125 -246.69546875 541.6290625 -246.0234375 541.953125 C-234.18253968 547.75132275 -234.18253968 547.75132275 -229.9375 552.125 C-227.76342102 554.2289474 -225.84758254 555.05080582 -223 556 C-223 556.66 -223 557.32 -223 558 C-221.66666667 559.66666667 -221.66666667 559.66666667 -220 561 C-219.34 561 -218.68 561 -218 561 C-217.67 562.32 -217.34 563.64 -217 565 C-216.34 565 -215.68 565 -215 565 C-213.79371992 567.33214148 -212.8345262 569.49642139 -212 572 C-211.34 572.33 -210.68 572.66 -210 573 C-209.67 573.99 -209.34 574.98 -209 576 C-208.34 576 -207.68 576 -207 576 C-206.67 577.65 -206.34 579.3 -206 581 C-205.34 581 -204.68 581 -204 581 C-203.67 582.98 -203.34 584.96 -203 587 C-202.34 587 -201.68 587 -201 587 C-200.87625 587.69351562 -200.7525 588.38703125 -200.625 589.1015625 C-199.94098512 592.27368151 -198.99740197 595.28745419 -198 598.375 C-196.56036594 602.95896117 -195.54081593 607.24081982 -195 612 C-194.67 612.33 -194.34 612.66 -194 613 C-193.84003834 615.59153107 -193.74061303 618.1595202 -193.68359375 620.75390625 C-193.66281265 621.52935287 -193.64203156 622.3047995 -193.62062073 623.10374451 C-193.55504198 625.58990308 -193.49620201 628.07617045 -193.4375 630.5625 C-193.39432267 632.24415204 -193.35070864 633.92579294 -193.30664062 635.60742188 C-193.19935221 639.73816871 -193.09810868 643.86902536 -193 648 C-193.66 648 -194.32 648 -195 648 C-195.14695312 649.14275391 -195.14695312 649.14275391 -195.296875 650.30859375 C-196.18003599 656.40697265 -197.34946773 661.57853636 -200.1953125 667.0625 C-201.25570498 669.26601832 -201.25570498 669.26601832 -201 673 C-201.66 673 -202.32 673 -203 673 C-203.27972656 673.61746094 -203.55945313 674.23492188 -203.84765625 674.87109375 C-211.01196411 690.00598205 -211.01196411 690.00598205 -217 693 C-217.33 693.99 -217.66 694.98 -218 696 C-218.66 696.33 -219.32 696.66 -220 697 C-220 697.66 -220 698.32 -220 699 C-223 700.5 -223 700.5 -226 702 C-226 702.66 -226 703.32 -226 704 C-226.99 704.33 -227.98 704.66 -229 705 C-229 705.66 -229 706.32 -229 707 C-230.65 707.33 -232.3 707.66 -234 708 C-234 708.66 -234 709.32 -234 710 C-233.01 710 -232.02 710 -231 710 C-231 710.66 -231 711.32 -231 712 C-225.6400004 714.41250727 -225.6400004 714.41250727 -220 716 C-220 716.66 -220 717.32 -220 718 C-218.35 718.33 -216.7 718.66 -215 719 C-215 719.66 -215 720.32 -215 721 C-211.36676311 723.96235695 -211.36676311 723.96235695 -207 725 C-206.76410156 725.57492187 -206.52820313 726.14984375 -206.28515625 726.7421875 C-204.71824619 729.49499605 -202.85297812 731.08560756 -200.4375 733.125 C-196.09722222 736.80555556 -196.09722222 736.80555556 -195 739 C-194.34 739 -193.68 739 -193 739 C-192.67 739.99 -192.34 740.98 -192 742 C-191.34 742 -190.68 742 -190 742 C-189.7525 742.515625 -189.505 743.03125 -189.25 743.5625 C-187.60418384 746.77184151 -185.8023904 749.87585664 -184 753 C-183.34 753 -182.68 753 -182 753 C-181.67 754.32 -181.34 755.64 -181 757 C-180.34 757 -179.68 757 -179 757 C-178.67 758.65 -178.34 760.3 -178 762 C-177.34 762 -176.68 762 -176 762 C-176 762.66 -176 763.32 -176 764 C-175.34 764 -174.68 764 -174 764 C-173.67 762.02 -173.34 760.04 -173 758 C-172.34 758 -171.68 758 -171 758 C-170.67 756.35 -170.34 754.7 -170 753 C-169.34 753 -168.68 753 -168 753 C-167.67 751.68 -167.34 750.36 -167 749 C-166.34 749 -165.68 749 -165 749 C-165 748.34 -165 747.68 -165 747 C-164.34 747 -163.68 747 -163 747 C-161.21694476 744.36107824 -160.00940379 742.02821137 -159 739 C-158.01 738.67 -157.02 738.34 -156 738 C-156 737.34 -156 736.68 -156 736 C-155.13375 735.9071875 -155.13375 735.9071875 -154.25 735.8125 C-151.08035652 734.66790652 -150.00579772 732.67439695 -148 730 C-143.49450549 725.16483516 -143.49450549 725.16483516 -140 724 C-140 723.34 -140 722.68 -140 722 C-137.33333333 720.66666667 -134.66666667 719.33333333 -132 718 C-132 717.34 -132 716.68 -132 716 C-130.35 715.67 -128.7 715.34 -127 715 C-127 714.34 -127 713.68 -127 713 C-125.02 712.67 -123.04 712.34 -121 712 C-121 711.34 -121 710.68 -121 710 C-120.01 710 -119.02 710 -118 710 C-118 709.34 -118 708.68 -118 708 C-121.63323689 705.03764305 -121.63323689 705.03764305 -126 704 C-126.33 703.01 -126.66 702.02 -127 701 C-127.66 701 -128.32 701 -129 701 C-129 700.34 -129 699.68 -129 699 C-130.65002828 697.64613064 -132.3174387 696.31321858 -134 695 C-134.33 694.34 -134.66 693.68 -135 693 C-135.66 693 -136.32 693 -137 693 C-137.33 692.01 -137.66 691.02 -138 690 C-138.66 690 -139.32 690 -140 690 C-140.185625 689.13375 -140.185625 689.13375 -140.375 688.25 C-141.01416567 685.94900359 -141.79305636 684.05890385 -143 682 C-143.66 681.67 -144.32 681.34 -145 681 C-145.33 680.01 -145.66 679.02 -146 678 C-146.66 678 -147.32 678 -148 678 C-148.33 675.69 -148.66 673.38 -149 671 C-149.66 671 -150.32 671 -151 671 C-151.33 668.69 -151.66 666.38 -152 664 C-152.66 664 -153.32 664 -154 664 C-154 662.35 -154 660.7 -154 659 C-154.66 659 -155.32 659 -156 659 C-156.33 654.38 -156.66 649.76 -157 645 C-157.66 645 -158.32 645 -159 645 C-159 635.1 -159 625.2 -159 615 C-158.34 615 -157.68 615 -157 615 C-156.86722656 614.07316406 -156.73445312 613.14632812 -156.59765625 612.19140625 C-156.42105469 610.99386719 -156.24445312 609.79632812 -156.0625 608.5625 C-155.88847656 607.36753906 -155.71445312 606.17257812 -155.53515625 604.94140625 C-155 602 -155 602 -154 601 C-153.95936168 599.33382885 -153.957279 597.66611905 -154 596 C-153.34 596 -152.68 596 -152 596 C-151.67 593.69 -151.34 591.38 -151 589 C-150.34 589 -149.68 589 -149 589 C-148.67 586.69 -148.34 584.38 -148 582 C-147.34 582 -146.68 582 -146 582 C-145.73445312 581.46890625 -145.46890625 580.9378125 -145.1953125 580.390625 C-143.46354167 576.92708333 -141.73177083 573.46354167 -140 570 C-139.34 570 -138.68 570 -138 570 C-136.21694476 567.36107824 -135.00940379 565.02821137 -134 562 C-133.01 561.67 -132.02 561.34 -131 561 C-129.31126121 559.35570171 -127.64694485 557.68615782 -126 556 C-124.6078125 554.9171875 -124.6078125 554.9171875 -123.1875 553.8125 C-122.465625 553.214375 -121.74375 552.61625 -121 552 C-121 551.34 -121 550.68 -121 550 C-120.319375 549.7525 -119.63875 549.505 -118.9375 549.25 C-115.43134917 547.75802092 -112.28379632 545.93164489 -109 544 C-109 543.34 -109 542.68 -109 542 C-108.31292969 541.79503906 -107.62585938 541.59007812 -106.91796875 541.37890625 C-106.01691406 541.10949219 -105.11585938 540.84007812 -104.1875 540.5625 C-102.84751953 540.16224609 -102.84751953 540.16224609 -101.48046875 539.75390625 C-99.64526945 539.19612127 -97.81966274 538.60655425 -96 538 C-96 537.34 -96 536.68 -96 536 C-92.37 535.67 -88.74 535.34 -85 535 C-85 534.34 -85 533.68 -85 533 C-79.14673162 532.97519316 -73.29349418 532.95708945 -67.44018555 532.94506836 C-65.45092231 532.94005436 -63.46166273 532.93324151 -61.47241211 532.92456055 C-58.60529678 532.91236616 -55.73823038 532.90674223 -52.87109375 532.90234375 C-51.98852402 532.89718246 -51.10595428 532.89202118 -50.19664001 532.88670349 C-43.09601371 532.88606528 -36.72100392 533.58043859 -30 536 C-28.43966216 536.54786389 -26.87701237 537.08917347 -25.3125 537.625 C-24.19294922 538.01558594 -24.19294922 538.01558594 -23.05078125 538.4140625 C-20.87471214 539.13736056 -20.87471214 539.13736056 -18 539 C-18 539.66 -18 540.32 -18 541 C-16.02 541.33 -14.04 541.66 -12 542 C-12 542.66 -12 543.32 -12 544 C-10.35 544.33 -8.7 544.66 -7 545 C-7 545.66 -7 546.32 -7 547 C-5.9275 547.61875 -4.855 548.2375 -3.75 548.875 C-3.11320313 549.24238281 -2.47640625 549.60976563 -1.8203125 549.98828125 C0.06219488 551.06892058 0.06219488 551.06892058 2.375 552.0625 C4 553 4 553 5 556 C5.66 556 6.32 556 7 556 C7 556.66 7 557.32 7 558 C8.65002828 559.35386936 10.3174387 560.68678142 12 562 C12.33 562.66 12.66 563.32 13 564 C13.66 564 14.32 564 15 564 C15.268125 564.763125 15.53625 565.52625 15.8125 566.3125 C16.96603641 568.92313504 17.98629865 570.07385089 20 572 C20.33 572.99 20.66 573.98 21 575 C21.66 575 22.32 575 23 575 C23.1546875 575.7734375 23.1546875 575.7734375 23.3125 576.5625 C24.24263866 579.86026435 25.61395512 582.86633332 27 586 C27.66 586 28.32 586 29 586 C29.33 588.31 29.66 590.62 30 593 C30.66 593 31.32 593 32 593 C32 594.65 32 596.3 32 598 C32.66 598 33.32 598 34 598 C34.33 601.63 34.66 605.26 35 609 C35.66 609 36.32 609 37 609 C37 622.86 37 636.72 37 651 C36.34 651 35.68 651 35 651 C34.67 654.63 34.34 658.26 34 662 C33.34 662 32.68 662 32 662 C32 663.65 32 665.3 32 667 C31.34 667 30.68 667 30 667 C29.67 669.31 29.34 671.62 29 674 C28.34 674 27.68 674 27 674 C26.67 675.65 26.34 677.3 26 679 C25.34 679 24.68 679 24 679 C23.67 680.65 23.34 682.3 23 684 C22.34 684 21.68 684 21 684 C20.67 684.99 20.34 685.98 20 687 C18.68945377 688.35573748 17.35251497 689.68612831 16 691 C12.99362852 694.09136904 12.99362852 694.09136904 12 698 C11.4225 698.2475 10.845 698.495 10.25 698.75 C7.87837867 699.93275056 7.87837867 699.93275056 5.9375 702.0625 C4 704 4 704 1 705 C1 705.66 1 706.32 1 707 C0.01 707.33 -0.98 707.66 -2 708 C-2 708.66 -2 709.32 -2 710 C-1.01 710 -0.02 710 1 710 C1 710.66 1 711.32 1 712 C1.99 712.33 2.98 712.66 4 713 C4.33 713.66 4.66 714.32 5 715 C5.928125 715.350625 6.85625 715.70125 7.8125 716.0625 C12.96977135 718.10391991 17.10792644 721.73986183 21.42578125 725.13671875 C23.74038747 727.19544765 23.74038747 727.19544765 26 727 C26.33 727.99 26.66 728.98 27 730 C27.66 730 28.32 730 29 730 C29.33 730.99 29.66 731.98 30 733 C30.66 733 31.32 733 32 733 C32 733.66 32 734.32 32 735 C33.65002828 736.35386936 35.3174387 737.68678142 37 739 C37.33 739.66 37.66 740.32 38 741 C38.66 741 39.32 741 40 741 C40.33 742.32 40.66 743.64 41 745 C41.66 745 42.32 745 43 745 C44.20628008 747.33214148 45.1654738 749.49642139 46 752 C46.66 752.33 47.32 752.66 48 753 C48.33 753.99 48.66 754.98 49 756 C49.66 756 50.32 756 51 756 C51.33 757.65 51.66 759.3 52 761 C52.66 761 53.32 761 54 761 C54.33 762.98 54.66 764.96 55 767 C55.66 767 56.32 767 57 767 C57.185625 767.7734375 57.185625 767.7734375 57.375 768.5625 C58.18641628 771.72702351 59.0945913 774.86124985 60 778 C60.66 778 61.32 778 62 778 C62.33 780.64 62.66 783.28 63 786 C63.66 786 64.32 786 65 786 C65 787.98 65 789.96 65 792 C65.99 792 66.98 792 68 792 C68 791.34 68 790.68 68 790 C68.66 790 69.32 790 70 790 C70.33 787.69 70.66 785.38 71 783 C71.66 783 72.32 783 73 783 C74.09969273 778.57207548 74.13841936 774.2490647 74.12304783 769.71663189 C74.1247786 768.46449084 74.1247786 768.46449084 74.12654433 767.18705401 C74.12920051 764.37750565 74.12469699 761.56801408 74.12025452 758.75846863 C74.12069042 756.72887624 74.12156569 754.6992839 74.12284368 752.66969186 C74.12508484 747.08280871 74.12107249 741.49594465 74.11606562 735.90906394 C74.11175591 729.88796401 74.11320792 723.8668652 74.1139679 717.84576416 C74.1144928 707.41055767 74.11138434 696.97535632 74.10573006 686.5401516 C74.09981457 675.59485024 74.09596442 664.64955137 74.09487724 653.70424843 C74.0948085 653.02389586 74.09473976 652.34354329 74.09466894 651.64257397 C74.09433061 648.18745671 74.09402923 644.73233946 74.09374207 641.27722219 C74.09164123 616.79980334 74.08490269 592.32238773 74.07543945 567.8449707 C74.06625622 544.06437192 74.05917202 520.28377403 74.05493164 496.50317383 C74.05480011 495.77025001 74.05466859 495.03732618 74.05453308 494.28219255 C74.05321457 486.92192129 74.05193875 479.56165003 74.05069422 472.20137876 C74.04815795 457.2074387 74.0453367 442.21349869 74.04234314 427.21955872 C74.0421372 426.1854458 74.0421372 426.1854458 74.04192711 425.13044171 C74.03272527 379.08695976 74.01685914 333.04347971 74 287 C73.18305664 287.41137207 72.36611328 287.82274414 71.52441406 288.24658203 C70.44901367 288.78653809 69.37361328 289.32649414 68.265625 289.8828125 C67.20118164 290.41793457 66.13673828 290.95305664 65.04003906 291.50439453 C61.73394277 293.13089195 58.40898386 294.60541569 55 296 C55 296.66 55 297.32 55 298 C54.195625 298.103125 53.39125 298.20625 52.5625 298.3125 C48.21752614 299.15100373 44.16542473 300.52821659 40 302 C40 302.66 40 303.32 40 304 C36.37 304.33 32.74 304.66 29 305 C29 305.66 29 306.32 29 307 C28.00097656 307.06058594 27.00195312 307.12117187 25.97265625 307.18359375 C24.68230469 307.26738281 23.39195312 307.35117187 22.0625 307.4375 C20.13083984 307.55931641 20.13083984 307.55931641 18.16015625 307.68359375 C15.13976043 307.64919188 15.13976043 307.64919188 14 309 C12.2018475 309.158983 10.39774714 309.25142694 8.59375 309.31640625 C7.46428955 309.35838135 6.3348291 309.40035645 5.17114258 309.44360352 C3.95966553 309.48283936 2.74818848 309.5220752 1.5 309.5625 C0.28014404 309.6049585 -0.93971191 309.64741699 -2.1965332 309.69116211 C-11.46791662 309.99537268 -20.72483298 310.11773837 -30 310 C-30 309.34 -30 308.68 -30 308 C-31.01320313 307.87882813 -32.02640625 307.75765625 -33.0703125 307.6328125 C-34.4219151 307.46386217 -35.77347542 307.29457331 -37.125 307.125 C-37.79015625 307.04636719 -38.4553125 306.96773437 -39.140625 306.88671875 C-43.31840912 306.35425607 -47.0231229 305.34064695 -51 304 C-52.32 304 -53.64 304 -55 304 C-55 303.34 -55 302.68 -55 302 C-58.3 301.67 -61.6 301.34 -65 301 C-65 300.34 -65 299.68 -65 299 C-65.78503906 298.68546875 -66.57007813 298.3709375 -67.37890625 298.046875 C-77.01364335 294.12204958 -77.01364335 294.12204958 -81.0625 291.6875 C-83.86893484 289.75093777 -83.86893484 289.75093777 -87 290 C-87 289.34 -87 288.68 -87 288 C-87.99 287.67 -88.98 287.34 -90 287 C-90.33 286.34 -90.66 285.68 -91 285 C-91.66 284.835 -92.32 284.67 -93 284.5 C-93.66 284.335 -94.32 284.17 -95 284 C-95.33 283.34 -95.66 282.68 -96 282 C-98.52733235 281.34444881 -98.52733235 281.34444881 -101 281 C-101.33 280.01 -101.66 279.02 -102 278 C-103.45609569 276.70989664 -103.45609569 276.70989664 -105.3125 275.5 C-109.23804273 272.6716144 -112.81241937 269.57609654 -116.375 266.3125 C-116.89876221 265.83683594 -117.42252441 265.36117187 -117.9621582 264.87109375 C-120.33297421 262.68371766 -122.20038975 260.69941538 -124 258 C-124.66 258 -125.32 258 -126 258 C-126.33 257.01 -126.66 256.02 -127 255 C-127.66 255 -128.32 255 -129 255 C-130.20628008 252.66785852 -131.1654738 250.50357861 -132 248 C-133.37514541 246.2912354 -133.37514541 246.2912354 -135 245 C-135.66 245 -136.32 245 -137 245 C-137.1546875 244.1646875 -137.1546875 244.1646875 -137.3125 243.3125 C-138.14178408 240.5230899 -139.34299056 238.3860936 -141 236 C-141.66 236 -142.32 236 -143 236 C-143 235.01 -143 234.02 -143 233 C-143.66 233 -144.32 233 -145 233 C-145.33 231.02 -145.66 229.04 -146 227 C-146.66 227 -147.32 227 -148 227 C-149.33333333 223 -150.66666667 219 -152 215 C-152.66 215 -153.32 215 -154 215 C-154.185625 214.01 -154.185625 214.01 -154.375 213 C-155.14520538 209.30301417 -156.06950663 205.65994058 -157 202 C-157.66 202 -158.32 202 -159 202 C-159.33 198.37 -159.66 194.74 -160 191 C-160.66 191 -161.32 191 -162 191 C-162.33 186.05 -162.66 181.1 -163 176 C-163.66 176 -164.32 176 -165 176 C-164.88207014 170.32154468 -164.75784597 164.64327605 -164.62768555 158.96508789 C-164.58426959 157.03185815 -164.54259958 155.09858841 -164.50268555 153.1652832 C-164.44514369 150.39261798 -164.3814038 147.62015543 -164.31640625 144.84765625 C-164.29969376 143.97786636 -164.28298126 143.10807648 -164.26576233 142.21192932 C-164.11387171 136.11387171 -164.11387171 136.11387171 -163 135 C-162.64751571 132.62443359 -162.33783279 130.25970057 -162.0625 127.875 C-161.45379741 122.70870071 -160.43090736 117.9932081 -159 113 C-159 111.68 -159 110.36 -159 109 C-158.34 109 -157.68 109 -157 109 C-156.86722656 108.39671875 -156.73445312 107.7934375 -156.59765625 107.171875 C-156.42105469 106.37265625 -156.24445312 105.5734375 -156.0625 104.75 C-155.88847656 103.96109375 -155.71445312 103.1721875 -155.53515625 102.359375 C-155.052444 100.23121297 -154.53836822 98.11467158 -154 96 C-153.34 96 -152.68 96 -152 96 C-151.67 93.69 -151.34 91.38 -151 89 C-150.34 89 -149.68 89 -149 89 C-149 88.34 -149 87.68 -149 87 C-195.34439001 86.98288472 -241.68878031 86.96696371 -288.03317261 86.95765686 C-288.71888645 86.9575188 -289.40460029 86.95738075 -290.11109334 86.95723851 C-305.0128534 86.95424572 -319.9146135 86.95147552 -334.81637365 86.94893467 C-342.12400171 86.94768731 -349.43162977 86.94639076 -356.73925781 86.94506836 C-357.46646165 86.9449376 -358.19366549 86.94480684 -358.9429058 86.94467212 C-382.5213496 86.9404094 -406.099791 86.93289706 -429.67823335 86.92370278 C-453.90448572 86.91427303 -478.13073677 86.90811521 -502.35699095 86.90608501 C-505.77736037 86.90579685 -509.19772979 86.90547121 -512.61809921 86.90512276 C-513.29128896 86.90505533 -513.9644787 86.90498791 -514.65806814 86.90491844 C-525.50245874 86.9037359 -536.34684525 86.89909559 -547.19123418 86.89316797 C-558.08871705 86.8872849 -568.98619567 86.88511204 -579.88368006 86.88649862 C-585.79010526 86.88714095 -591.69651843 86.88613627 -597.60294151 86.88079453 C-603.00649676 86.87594311 -608.41003185 86.8756729 -613.81358801 86.87910111 C-615.77195947 86.87952507 -617.73033216 86.87824403 -619.68870117 86.87511682 C-622.34451017 86.87112133 -625.00024574 86.8732564 -627.65605354 86.87695217 C-628.42160769 86.87432516 -629.18716184 86.87169814 -629.9759146 86.86899152 C-634.08908806 86.88198204 -637.96462124 87.19844557 -642 88 Z M55 102 C54.34 102.825 53.68 103.65 53 104.5 C51 107 51 107 48.25 109.1875 C47.5075 109.785625 46.765 110.38375 46 111 C46 111.66 46 112.32 46 113 C45.01 113.33 44.02 113.66 43 114 C43 114.66 43 115.32 43 116 C42.34 116 41.68 116 41 116 C39.66104368 117.66215268 38.32869858 119.32963607 37 121 C36.0925 121.721875 35.185 122.44375 34.25 123.1875 C33.5075 123.785625 32.765 124.38375 32 125 C32 125.66 32 126.32 32 127 C30.515 127.495 30.515 127.495 29 128 C29 128.66 29 129.32 29 130 C27.515 130.495 27.515 130.495 26 131 C26 131.66 26 132.32 26 133 C24.515 133.495 24.515 133.495 23 134 C23 134.66 23 135.32 23 136 C22.34 136 21.68 136 21 136 C21 136.66 21 137.32 21 138 C19.515 138.495 19.515 138.495 18 139 C18 139.66 18 140.32 18 141 C16.515 141.495 16.515 141.495 15 142 C15 142.66 15 143.32 15 144 C13.515 144.495 13.515 144.495 12 145 C12 145.66 12 146.32 12 147 C11.443125 147.226875 10.88625 147.45375 10.3125 147.6875 C6.68200197 149.74805294 3.77399565 152.40647953 1.9375 156.1875 C0.69426394 158.59108972 -0.5670014 158.85108399 -3 160 C-6.19430112 162.46227378 -8.67692509 164.59384868 -11.1875 167.75 C-13 170 -13 170 -16 171 C-17.70250393 169.71274093 -19.37064759 168.37868281 -21 167 C-21.66 167 -22.32 167 -23 167 C-23.33 166.01 -23.66 165.02 -24 164 C-24.66 164 -25.32 164 -26 164 C-26.33 163.01 -26.66 162.02 -27 161 C-27.66 161 -28.32 161 -29 161 C-29.33 160.01 -29.66 159.02 -30 158 C-30.66 158 -31.32 158 -32 158 C-32 157.34 -32 156.68 -32 156 C-33.33333333 154.33333333 -33.33333333 154.33333333 -35 153 C-35.66 153 -36.32 153 -37 153 C-37.33 152.01 -37.66 151.02 -38 150 C-38.66 150 -39.32 150 -40 150 C-40.33 149.01 -40.66 148.02 -41 147 C-41.66 147 -42.32 147 -43 147 C-43 146.34 -43 145.68 -43 145 C-44.66215268 143.66104368 -46.32963607 142.32869858 -48 141 C-49.36244796 139.35704805 -50.69864875 137.69175663 -52 136 C-53.52007842 134.22722741 -53.52007842 134.22722741 -55 133 C-55.66 133 -56.32 133 -57 133 C-57 132.34 -57 131.68 -57 131 C-58.65 130.67 -60.3 130.34 -62 130 C-62 129.34 -62 128.68 -62 128 C-63.98 128 -65.96 128 -68 128 C-68 128.66 -68 129.32 -68 130 C-68.7425 130.04125 -69.485 130.0825 -70.25 130.125 C-73.22596231 130.81735435 -73.22596231 130.81735435 -75.3125 133.5625 C-77.27082738 137.5516854 -77.80722694 140.67797241 -77 145 C-74.44375628 151.07107884 -70.35641539 155.18558298 -65 159 C-64.34 159 -63.68 159 -63 159 C-62.67 159.99 -62.34 160.98 -62 162 C-61.34 162 -60.68 162 -60 162 C-59.67 162.99 -59.34 163.98 -59 165 C-58.34 165 -57.68 165 -57 165 C-56.67 166.32 -56.34 167.64 -56 169 C-55.360625 169.103125 -54.72125 169.20625 -54.0625 169.3125 C-53.381875 169.539375 -52.70125 169.76625 -52 170 C-51.67 170.99 -51.34 171.98 -51 173 C-50.34 173 -49.68 173 -49 173 C-48.67 173.99 -48.34 174.98 -48 176 C-47.34 176 -46.68 176 -46 176 C-45.67 176.99 -45.34 177.98 -45 179 C-44.34 179 -43.68 179 -43 179 C-43 179.66 -43 180.32 -43 181 C-41.34997172 182.35386936 -39.6825613 183.68678142 -38 185 C-37.67 185.66 -37.34 186.32 -37 187 C-36.34 187 -35.68 187 -35 187 C-34.67 187.99 -34.34 188.98 -34 190 C-33.34 190 -32.68 190 -32 190 C-31.67 190.99 -31.34 191.98 -31 193 C-30.34 193 -29.68 193 -29 193 C-29 193.66 -29 194.32 -29 195 C-27.34997172 196.35386936 -25.6825613 197.68678142 -24 199 C-23.67 199.66 -23.34 200.32 -23 201 C-18.65402177 202.44865941 -14.39624753 202.88893053 -10.0625 201.28125 C-6.0703779 199.14752957 -3.67573071 196.56764094 -1 193 C-0.21625 192.38125 0.5675 191.7625 1.375 191.125 C3.59979974 189.32397164 5.19084948 187.68025831 7 185.5 C9.42282484 182.58513618 11.96810865 180.29440426 15 178 C16.77277259 176.47992158 16.77277259 176.47992158 18 175 C18 174.34 18 173.68 18 173 C18.99 172.67 19.98 172.34 21 172 C21 171.34 21 170.68 21 170 C21.99 169.67 22.98 169.34 24 169 C24 168.34 24 167.68 24 167 C24.66 167 25.32 167 26 167 C27.66666667 165.66666667 27.66666667 165.66666667 29 164 C29 163.34 29 162.68 29 162 C29.99 161.67 30.98 161.34 32 161 C32 160.34 32 159.68 32 159 C32.99 158.67 33.98 158.34 35 158 C35 157.34 35 156.68 35 156 C35.99 155.67 36.98 155.34 38 155 C38 154.34 38 153.68 38 153 C38.99 152.67 39.98 152.34 41 152 C41 151.34 41 150.68 41 150 C41.639375 149.731875 42.27875 149.46375 42.9375 149.1875 C45.33131686 148.11332248 45.33131686 148.11332248 46 145 C46.99 144.67 47.98 144.34 49 144 C49 143.34 49 142.68 49 142 C49.99 141.67 50.98 141.34 52 141 C52 140.34 52 139.68 52 139 C52.5775 138.938125 53.155 138.87625 53.75 138.8125 C56.91964348 137.66790652 57.99420228 135.67439695 60 133 C63.65223596 129.16046989 67.52101061 125.79513025 71.8125 122.6875 C73.73503334 119.95547893 73.18260931 117.2260978 73 114 C72.34 114 71.68 114 71 114 C70.67 112.02 70.34 110.04 70 108 C69.34 108 68.68 108 68 108 C67.87625 107.401875 67.7525 106.80375 67.625 106.1875 C67.04524015 103.73768652 67.04524015 103.73768652 65 101 C64.34 101 63.68 101 63 101 C62.67 100.01 62.34 99.02 62 98 C58.8022288 98 57.344421 99.93467674 55 102 Z M-545 562 C-545 562.66 -545 563.32 -545 564 C-551.435 564.495 -551.435 564.495 -558 565 C-558 565.66 -558 566.32 -558 567 C-559.2065625 567.0928125 -559.2065625 567.0928125 -560.4375 567.1875 C-565.1635451 568.26536993 -568.87513427 570.51591419 -573 573 C-573 573.66 -573 574.32 -573 575 C-573.763125 575.28875 -574.52625 575.5775 -575.3125 575.875 C-578.15029308 576.96269013 -578.15029308 576.96269013 -581 579 C-581 579.66 -581 580.32 -581 581 C-581.99 581.33 -582.98 581.66 -584 582 C-585.03789581 583.64333504 -586.03567924 585.31243867 -587 587 C-587.556875 587.53625 -588.11375 588.0725 -588.6875 588.625 C-590.34523787 590.04486722 -590.34523787 590.04486722 -590 593 C-590.66 593 -591.32 593 -592 593 C-594.35910353 597.2637281 -594.35910353 597.2637281 -595 602 C-595.66 602 -596.32 602 -597 602 C-597.33 604.97 -597.66 607.94 -598 611 C-598.66 611 -599.32 611 -600 611 C-600.8809924 617.04109075 -601.15273074 622.8992368 -601.125 629 C-601.12886719 629.85078125 -601.13273438 630.7015625 -601.13671875 631.578125 C-601.12869758 636.8079303 -600.75475564 641.82453277 -600 647 C-599.34 647 -598.68 647 -598 647 C-597.67 649.97 -597.34 652.94 -597 656 C-596.34 656 -595.68 656 -595 656 C-594.83177734 657.08861328 -594.83177734 657.08861328 -594.66015625 658.19921875 C-593.97038613 661.12563993 -592.94489186 663.22287809 -591.4375 665.8125 C-590.98246094 666.60269531 -590.52742187 667.39289063 -590.05859375 668.20703125 C-589.70925781 668.79871094 -589.35992188 669.39039063 -589 670 C-588.34 670 -587.68 670 -587 670 C-586.67 670.99 -586.34 671.98 -586 673 C-585.34 673 -584.68 673 -584 673 C-583.7525 673.61875 -583.505 674.2375 -583.25 674.875 C-581.79371361 677.35068687 -580.62187494 677.95125002 -578 679 C-578 679.66 -578 680.32 -578 681 C-576.23042094 683.3283935 -575.18416484 683.95288806 -572.3125 684.6875 C-571.549375 684.790625 -570.78625 684.89375 -570 685 C-570 685.66 -570 686.32 -570 687 C-565.7362719 689.35910353 -565.7362719 689.35910353 -561 690 C-561 690.66 -561 691.32 -561 692 C-557.7 692.33 -554.4 692.66 -551 693 C-551 693.66 -551 694.32 -551 695 C-545.4554492 695.7867268 -540.09647338 696.15558182 -534.5 696.125 C-533.79230469 696.12886719 -533.08460938 696.13273438 -532.35546875 696.13671875 C-527.49117041 696.12782607 -522.81619164 695.68337854 -518 695 C-518 694.34 -518 693.68 -518 693 C-516.72125 692.938125 -515.4425 692.87625 -514.125 692.8125 C-504.52828081 691.72948467 -493.85319106 685.44598968 -487.5625 678.1875 C-486.7890625 677.1046875 -486.7890625 677.1046875 -486 676 C-485.34 675.67 -484.68 675.34 -484 675 C-484 674.34 -484 673.68 -484 673 C-483.34 673 -482.68 673 -482 673 C-481.505 671.02 -481.505 671.02 -481 669 C-480.34 669 -479.68 669 -479 669 C-478.67 667.35 -478.34 665.7 -478 664 C-477.34 664 -476.68 664 -476 664 C-473.64089647 659.7362719 -473.64089647 659.7362719 -473 655 C-472.34 655 -471.68 655 -471 655 C-470.67 651.37 -470.34 647.74 -470 644 C-469.34 644 -468.68 644 -468 644 C-466.7885782 633.83270988 -466.7885782 624.16729012 -468 614 C-468.66 614 -469.32 614 -470 614 C-470.33 610.7 -470.66 607.4 -471 604 C-471.66 604 -472.32 604 -473 604 C-473.12375 603.278125 -473.2475 602.55625 -473.375 601.8125 C-473.9904931 599.04278106 -474.88444374 596.6029646 -476 594 C-476.66 594 -477.32 594 -478 594 C-478.103125 593.443125 -478.20625 592.88625 -478.3125 592.3125 C-480.20971299 585.93096541 -484.7622437 581.85881409 -490 578 C-490.66 578 -491.32 578 -492 578 C-492.495 576.515 -492.495 576.515 -493 575 C-494.75111391 573.54722054 -494.75111391 573.54722054 -496.875 572.3125 C-497.57367188 571.87550781 -498.27234375 571.43851563 -498.9921875 570.98828125 C-501.07562487 569.77919041 -501.07562487 569.77919041 -504 570 C-504 569.34 -504 568.68 -504 568 C-506.64 567.67 -509.28 567.34 -512 567 C-512 566.34 -512 565.68 -512 565 C-512.78246094 564.86722656 -513.56492187 564.73445312 -514.37109375 564.59765625 C-515.88896484 564.33275391 -515.88896484 564.33275391 -517.4375 564.0625 C-518.95150391 563.80146484 -518.95150391 563.80146484 -520.49609375 563.53515625 C-523 563 -523 563 -524 562 C-525.56172745 561.91314397 -527.12729344 561.89297781 -528.69140625 561.90234375 C-529.63564453 561.90556641 -530.57988281 561.90878906 -531.55273438 561.91210938 C-533.04256836 561.92467773 -533.04256836 561.92467773 -534.5625 561.9375 C-535.55958984 561.94201172 -536.55667969 561.94652344 -537.58398438 561.95117188 C-540.05604849 561.96299993 -542.52799518 561.97948151 -545 562 Z M-302 563 C-304.01311449 563.39569108 -306.03597208 563.74252191 -308.0625 564.0625 C-309.16722656 564.23910156 -310.27195312 564.41570313 -311.41015625 564.59765625 C-312.26480469 564.73042969 -313.11945313 564.86320313 -314 565 C-314 565.66 -314 566.32 -314 567 C-316.31 567.33 -318.62 567.66 -321 568 C-321 568.66 -321 569.32 -321 570 C-321.66 570.061875 -322.32 570.12375 -323 570.1875 C-328.31139144 571.62600185 -333.38994348 574.80695298 -337 579 C-337 579.66 -337 580.32 -337 581 C-337.99 581.33 -338.98 581.66 -340 582 C-340 582.66 -340 583.32 -340 584 C-340.99 584.33 -341.98 584.66 -343 585 C-344.44321366 586.52138974 -344.44321366 586.52138974 -345.6875 588.375 C-346.12449219 588.98085938 -346.56148438 589.58671875 -347.01171875 590.2109375 C-348.241766 592.09701672 -348.241766 592.09701672 -348 595 C-348.66 595 -349.32 595 -350 595 C-350.33 596.98 -350.66 598.96 -351 601 C-351.66 601 -352.32 601 -353 601 C-353.7115625 602.794375 -353.7115625 602.794375 -354.4375 604.625 C-354.70433594 605.29789063 -354.97117187 605.97078125 -355.24609375 606.6640625 C-356.82678498 611.56174828 -357.12757999 616.38111176 -357.1328125 621.5 C-357.13410156 622.716875 -357.13539063 623.93375 -357.13671875 625.1875 C-357.13285156 626.445625 -357.12898438 627.70375 -357.125 629 C-357.12886719 630.258125 -357.13273437 631.51625 -357.13671875 632.8125 C-357.13542969 634.029375 -357.13414062 635.24625 -357.1328125 636.5 C-357.13168457 637.6034375 -357.13055664 638.706875 -357.12939453 639.84375 C-357.00107437 642.97379338 -356.58293188 645.92499094 -356 649 C-355.34 649 -354.68 649 -354 649 C-353.67 651.97 -353.34 654.94 -353 658 C-352.34 658 -351.68 658 -351 658 C-350.67 659.98 -350.34 661.96 -350 664 C-349.34 664 -348.68 664 -348 664 C-347.731875 664.804375 -347.46375 665.60875 -347.1875 666.4375 C-346.795625 667.283125 -346.40375 668.12875 -346 669 C-345.01 669.33 -344.02 669.66 -343 670 C-342.92652344 670.74636719 -342.85304688 671.49273438 -342.77734375 672.26171875 C-341.79152553 675.73437488 -340.44114294 676.69842463 -337.5625 678.8125 C-336.35787109 679.71935547 -336.35787109 679.71935547 -335.12890625 680.64453125 C-333.13945437 682.17902526 -333.13945437 682.17902526 -331 682 C-331 682.66 -331 683.32 -331 684 C-329.2335343 685.0076952 -327.46166177 686.00591714 -325.6875 687 C-324.70136719 687.556875 -323.71523438 688.11375 -322.69921875 688.6875 C-320.05057529 690.21864753 -320.05057529 690.21864753 -317 690 C-317 690.66 -317 691.32 -317 692 C-316.36191406 692.13277344 -315.72382813 692.26554688 -315.06640625 692.40234375 C-314.24011719 692.57894531 -313.41382813 692.75554687 -312.5625 692.9375 C-311.73878906 693.11152344 -310.91507812 693.28554688 -310.06640625 693.46484375 C-308 694 -308 694 -307 695 C-301.66353646 695.98540679 -296.47870657 696.15242383 -291.0625 696.125 C-290.30259766 696.12886719 -289.54269531 696.13273438 -288.75976562 696.13671875 C-283.75636172 696.12817323 -278.95302674 695.70999018 -274 695 C-274 694.34 -274 693.68 -274 693 C-271.03 692.67 -268.06 692.34 -265 692 C-265 691.34 -265 690.68 -265 690 C-263.91138672 689.83177734 -263.91138672 689.83177734 -262.80078125 689.66015625 C-259.87436007 688.97038613 -257.77712191 687.94489186 -255.1875 686.4375 C-254.39730469 685.98246094 -253.60710937 685.52742187 -252.79296875 685.05859375 C-252.20128906 684.70925781 -251.60960937 684.35992188 -251 684 C-251 683.34 -251 682.68 -251 682 C-250.278125 681.773125 -249.55625 681.54625 -248.8125 681.3125 C-245.42314891 679.73080282 -243.4575312 677.79885498 -241 675 C-240.505 673.515 -240.505 673.515 -240 672 C-239.34 672 -238.68 672 -238 672 C-237.01 670.329375 -237.01 670.329375 -236 668.625 C-235.443125 667.68527344 -235.443125 667.68527344 -234.875 666.7265625 C-233.84931652 665.02527333 -233.84931652 665.02527333 -234 663 C-233.34 663 -232.68 663 -232 663 C-230.98444342 660.65152542 -229.98767255 658.29768149 -229 655.9375 C-228.71382812 655.28072266 -228.42765625 654.62394531 -228.1328125 653.94726562 C-226.25080431 649.39907917 -225.69296799 645.91890858 -226 641 C-225.34 641 -224.68 641 -224 641 C-223.91190799 637.18764896 -223.8592451 633.37556447 -223.8125 629.5625 C-223.78736328 628.49322266 -223.76222656 627.42394531 -223.73632812 626.32226562 C-223.67430431 619.56167005 -224.50889479 614.25953732 -227 608 C-227.71009837 605.67702577 -228.35237644 603.34140826 -229 601 C-229.66 601 -230.32 601 -231 601 C-231.495 598.03 -231.495 598.03 -232 595 C-232.66 595 -233.32 595 -234 595 C-234.33 593.35 -234.66 591.7 -235 590 C-235.66 590 -236.32 590 -237 590 C-237.495 588.02 -237.495 588.02 -238 586 C-238.66 586 -239.32 586 -240 586 C-240 585.34 -240 584.68 -240 584 C-240.66 584 -241.32 584 -242 584 C-242.495 582.515 -242.495 582.515 -243 581 C-243.66 581 -244.32 581 -245 581 C-245.495 579.515 -245.495 579.515 -246 578 C-246.66 578 -247.32 578 -248 578 C-248 577.34 -248 576.68 -248 576 C-249.11375 575.38125 -250.2275 574.7625 -251.375 574.125 C-253.63906215 572.86718769 -255.14615142 571.85384858 -257 570 C-257.99 570 -258.98 570 -260 570 C-260 569.34 -260 568.68 -260 568 C-262.64 567.67 -265.28 567.34 -268 567 C-268 566.34 -268 565.68 -268 565 C-268.85464844 564.86722656 -269.70929688 564.73445312 -270.58984375 564.59765625 C-271.69457031 564.42105469 -272.79929687 564.24445312 -273.9375 564.0625 C-275.03964844 563.88847656 -276.14179688 563.71445312 -277.27734375 563.53515625 C-280 563 -280 563 -281 562 C-282.47652664 561.90119203 -283.95767236 561.86920755 -285.4375 561.8671875 C-286.33210938 561.86589844 -287.22671875 561.86460937 -288.1484375 561.86328125 C-289.55996094 561.86908203 -289.55996094 561.86908203 -291 561.875 C-291.94101562 561.87113281 -292.88203125 561.86726562 -293.8515625 561.86328125 C-295.19347656 561.86521484 -295.19347656 561.86521484 -296.5625 561.8671875 C-297.80193359 561.86887939 -297.80193359 561.86887939 -299.06640625 561.87060547 C-301.00679039 561.78735193 -301.00679039 561.78735193 -302 563 Z M-69 563 C-71.18019479 563.39666227 -73.3696463 563.74315237 -75.5625 564.0625 C-76.76003906 564.23910156 -77.95757813 564.41570313 -79.19140625 564.59765625 C-80.58166016 564.79681641 -80.58166016 564.79681641 -82 565 C-82 565.66 -82 566.32 -82 567 C-84.64 567.33 -87.28 567.66 -90 568 C-90 568.66 -90 569.32 -90 570 C-90.66 570.061875 -91.32 570.12375 -92 570.1875 C-97.95289286 571.79974182 -102.887554 575.46212855 -107 580 C-112 585 -112 585 -113.8125 586.6875 C-115.22363777 587.95218271 -115.22363777 587.95218271 -115 590 C-115.66 590 -116.32 590 -117 590 C-118.1787322 592.39054107 -119.34302997 594.78645215 -120.5 597.1875 C-120.83386719 597.86103516 -121.16773438 598.53457031 -121.51171875 599.22851562 C-123.29700132 602.96303529 -124.46127195 605.75794549 -124 610 C-124.66 610 -125.32 610 -126 610 C-127.13505547 616.34189721 -127.14858535 622.56906156 -127.125 629 C-127.13080078 630.58167969 -127.13080078 630.58167969 -127.13671875 632.1953125 C-127.11914915 646.21585442 -123.5798597 658.62728275 -115 670 C-114.34 670 -113.68 670 -113 670 C-112.773125 670.556875 -112.54625 671.11375 -112.3125 671.6875 C-110.62449964 674.66159588 -108.53323483 676.72008865 -106 679 C-105.34 679 -104.68 679 -104 679 C-104 679.66 -104 680.32 -104 681 C-98.9353576 687.13945397 -88.45572643 690.75701676 -81 693 C-78.30433081 693.14160047 -78.30433081 693.14160047 -76 693 C-76 693.66 -76 694.32 -76 695 C-63.96003201 696.26025833 -51.55633313 697.30003093 -40 693 C-38.33911955 692.63893903 -36.67381019 692.29537827 -35 692 C-35 691.34 -35 690.68 -35 690 C-34.32066406 689.91234375 -33.64132812 689.8246875 -32.94140625 689.734375 C-29.25397323 688.81374099 -26.20106995 687.13269571 -22.9375 685.25 C-22.02000977 684.74726562 -22.02000977 684.74726562 -21.08398438 684.234375 C-17.14417325 681.98548822 -14.66820684 679.63355807 -12 676 C-11.0925 675.29875 -10.185 674.5975 -9.25 673.875 C-8.5075 673.25625 -7.765 672.6375 -7 672 C-7 671.01 -7 670.02 -7 669 C-6.34 669 -5.68 669 -5 669 C-4.67 667.35 -4.34 665.7 -4 664 C-3.34 664 -2.68 664 -2 664 C-1.67 662.35 -1.34 660.7 -1 659 C-0.34 659 0.32 659 1 659 C1.33 656.69 1.66 654.38 2 652 C2.66 652 3.32 652 4 652 C9.03298126 633.63561004 8.13133707 616.65854893 1 599 C0.34 599 -0.32 599 -1 599 C-1.495 596.03 -1.495 596.03 -2 593 C-2.66 593 -3.32 593 -4 593 C-4.33 591.35 -4.66 589.7 -5 588 C-5.61875 587.9175 -6.2375 587.835 -6.875 587.75 C-9.67505419 586.76174558 -9.74113932 585.59640015 -11 583 C-12.32520503 582.31731862 -13.65812182 581.6492959 -15 581 C-15.495 579.515 -15.495 579.515 -16 578 C-16.66 578 -17.32 578 -18 578 C-18 577.34 -18 576.68 -18 576 C-19.91015961 574.4046006 -19.91015961 574.4046006 -22.3125 572.875 C-23.11300781 572.33617187 -23.91351562 571.79734375 -24.73828125 571.2421875 C-27.00818706 569.75930217 -27.00818706 569.75930217 -30 570 C-30 569.34 -30 568.68 -30 568 C-32.64 567.67 -35.28 567.34 -38 567 C-38 566.34 -38 565.68 -38 565 C-42.76307437 564.04738513 -47.1666528 563.91666643 -52 564 C-52 563.34 -52 562.68 -52 562 C-54.64590014 561.97315321 -57.29153096 561.95323643 -59.9375 561.9375 C-61.06961914 561.92493164 -61.06961914 561.92493164 -62.22460938 561.91210938 C-65.91191764 561.534744 -65.91191764 561.534744 -69 563 Z " fill="#3eab95" transform="translate(699,0)"/>
    <path d="M0 0 C1.22783203 -0.00386719 2.45566406 -0.00773438 3.72070312 -0.01171875 C12.22724546 -0.00255715 19.87052501 0.17786514 27.9375 3.125 C30.22723178 3.83956322 32.51892086 4.54788394 34.8125 5.25 C35.96492187 5.60320312 37.11734375 5.95640625 38.3046875 6.3203125 C39.60792969 6.71863281 39.60792969 6.71863281 40.9375 7.125 C40.9375 7.785 40.9375 8.445 40.9375 9.125 C42.9175 9.455 44.8975 9.785 46.9375 10.125 C46.9375 10.785 46.9375 11.445 46.9375 12.125 C47.5975 12.186875 48.2575 12.24875 48.9375 12.3125 C54.9397905 13.93812034 59.7387337 17.61521398 63.9375 22.125 C64.9275 22.785 65.9175 23.445 66.9375 24.125 C66.9375 24.785 66.9375 25.445 66.9375 26.125 C67.9275 26.455 68.9175 26.785 69.9375 27.125 C69.9375 27.785 69.9375 28.445 69.9375 29.125 C70.5975 29.125 71.2575 29.125 71.9375 29.125 C74.9375 32.58653846 74.9375 32.58653846 74.9375 35.125 C75.5975 35.125 76.2575 35.125 76.9375 35.125 C77.2675 36.445 77.5975 37.765 77.9375 39.125 C78.5975 39.125 79.2575 39.125 79.9375 39.125 C80.2675 40.445 80.5975 41.765 80.9375 43.125 C81.5975 43.125 82.2575 43.125 82.9375 43.125 C82.9375 44.115 82.9375 45.105 82.9375 46.125 C83.5975 46.125 84.2575 46.125 84.9375 46.125 C85.2675 48.105 85.5975 50.085 85.9375 52.125 C86.5975 52.125 87.2575 52.125 87.9375 52.125 C88.2675 54.105 88.5975 56.085 88.9375 58.125 C89.5975 58.125 90.2575 58.125 90.9375 58.125 C91.2675 60.765 91.5975 63.405 91.9375 66.125 C92.5975 66.125 93.2575 66.125 93.9375 66.125 C95.86587396 73.07442312 97.28778702 79.73685817 97.7265625 86.9453125 C97.81017461 89.16949845 97.81017461 89.16949845 98.9375 91.125 C99.03541023 93.82329074 99.0765625 96.48984461 99.0625 99.1875 C99.06636719 99.93322266 99.07023438 100.67894531 99.07421875 101.44726562 C99.06413501 106.99836499 99.06413501 106.99836499 97.9375 108.125 C97.48823333 111.64362639 97.11769835 115.16117175 96.77539062 118.69140625 C96.33627047 122.82556186 95.75460756 126.32351975 93.9375 130.125 C93.2775 130.125 92.6175 130.125 91.9375 130.125 C91.89625 131.1975 91.855 132.27 91.8125 133.375 C91.09213453 139.53689542 87.86408763 144.75511444 84.9375 150.125 C84.2775 150.125 83.6175 150.125 82.9375 150.125 C82.9375 151.115 82.9375 152.105 82.9375 153.125 C82.2775 153.125 81.6175 153.125 80.9375 153.125 C80.6075 154.115 80.2775 155.105 79.9375 156.125 C79.2775 156.125 78.6175 156.125 77.9375 156.125 C77.6075 157.775 77.2775 159.425 76.9375 161.125 C76.2775 161.125 75.6175 161.125 74.9375 161.125 C74.6075 162.115 74.2775 163.105 73.9375 164.125 C73.2775 164.125 72.6175 164.125 71.9375 164.125 C71.6075 165.115 71.2775 166.105 70.9375 167.125 C70.2775 167.125 69.6175 167.125 68.9375 167.125 C68.9375 167.785 68.9375 168.445 68.9375 169.125 C67.0390625 170.8515625 67.0390625 170.8515625 64.5625 172.75 C63.75039063 173.38164062 62.93828125 174.01328125 62.1015625 174.6640625 C59.9375 176.125 59.9375 176.125 57.9375 176.125 C60.34477494 179.73591241 62.0369336 180.28109588 65.9375 182.125 C68.95340197 183.76332848 71.94577508 185.44298577 74.9375 187.125 C74.9375 187.785 74.9375 188.445 74.9375 189.125 C75.700625 189.41375 76.46375 189.7025 77.25 190 C79.9375 191.125 79.9375 191.125 82.9375 193.125 C82.9375 193.785 82.9375 194.445 82.9375 195.125 C83.9275 195.455 84.9175 195.785 85.9375 196.125 C85.9375 196.785 85.9375 197.445 85.9375 198.125 C86.741875 198.393125 87.54625 198.66125 88.375 198.9375 C89.220625 199.329375 90.06625 199.72125 90.9375 200.125 C91.2675 201.115 91.5975 202.105 91.9375 203.125 C92.5975 203.125 93.2575 203.125 93.9375 203.125 C96.9375 206.58653846 96.9375 206.58653846 96.9375 209.125 C97.9275 209.455 98.9175 209.785 99.9375 210.125 C99.9375 210.785 99.9375 211.445 99.9375 212.125 C100.5975 212.125 101.2575 212.125 101.9375 212.125 C102.2675 213.445 102.5975 214.765 102.9375 216.125 C103.5975 216.125 104.2575 216.125 104.9375 216.125 C107.23398649 218.6864657 107.9375 219.60467572 107.9375 223.125 C108.5975 223.125 109.2575 223.125 109.9375 223.125 C110.2675 224.445 110.5975 225.765 110.9375 227.125 C111.5975 227.125 112.2575 227.125 112.9375 227.125 C113.9275 229.6 113.9275 229.6 114.9375 232.125 C115.2675 231.135 115.5975 230.145 115.9375 229.125 C116.5975 229.125 117.2575 229.125 117.9375 229.125 C118.2675 227.475 118.5975 225.825 118.9375 224.125 C119.5975 224.125 120.2575 224.125 120.9375 224.125 C121.2675 222.805 121.5975 221.485 121.9375 220.125 C122.5975 220.125 123.2575 220.125 123.9375 220.125 C124.22625 219.361875 124.515 218.59875 124.8125 217.8125 C125.9375 215.125 125.9375 215.125 127.9375 212.125 C128.5975 212.125 129.2575 212.125 129.9375 212.125 C129.9375 211.465 129.9375 210.805 129.9375 210.125 C130.5975 210.125 131.2575 210.125 131.9375 210.125 C132.2675 208.805 132.5975 207.485 132.9375 206.125 C133.5975 206.125 134.2575 206.125 134.9375 206.125 C135.2675 205.135 135.5975 204.145 135.9375 203.125 C136.5975 203.125 137.2575 203.125 137.9375 203.125 C138.2675 202.135 138.5975 201.145 138.9375 200.125 C139.5975 200.125 140.2575 200.125 140.9375 200.125 C140.9375 199.465 140.9375 198.805 140.9375 198.125 C142.60416667 197.125 144.27083333 196.125 145.9375 195.125 C146.783125 194.25875 147.62875 193.3925 148.5 192.5 C150.82112818 190.23838793 151.79861862 189.4737646 154.9375 189.125 C154.9375 188.465 154.9375 187.805 154.9375 187.125 C156.5875 186.795 158.2375 186.465 159.9375 186.125 C159.9375 185.465 159.9375 184.805 159.9375 184.125 C161.20441507 183.45091692 162.47620749 182.78599503 163.75 182.125 C164.45769531 181.75375 165.16539062 181.3825 165.89453125 181 C167.9375 180.125 167.9375 180.125 170.9375 180.125 C171.2675 178.805 171.5975 177.485 171.9375 176.125 C170.6175 175.795 169.2975 175.465 167.9375 175.125 C167.9375 174.465 167.9375 173.805 167.9375 173.125 C167.36 173.063125 166.7825 173.00125 166.1875 172.9375 C163.03920216 171.80061467 161.95658406 169.75592771 159.9375 167.125 C159.15375 166.526875 158.37 165.92875 157.5625 165.3125 C154.0628235 162.39610291 151.36481977 158.97868294 148.9375 155.125 C148.9375 154.465 148.9375 153.805 148.9375 153.125 C148.2775 153.125 147.6175 153.125 146.9375 153.125 C146.6075 151.475 146.2775 149.825 145.9375 148.125 C145.2775 148.125 144.6175 148.125 143.9375 148.125 C140.9375 142.5 140.9375 142.5 140.9375 139.125 C140.2775 139.125 139.6175 139.125 138.9375 139.125 C134.31952086 125.47281896 131.75804871 113.60801736 131.8125 99.1875 C131.80863281 98.16720703 131.80476562 97.14691406 131.80078125 96.09570312 C131.8089283 89.7124899 132.167229 83.46175104 132.9375 77.125 C133.5975 77.125 134.2575 77.125 134.9375 77.125 C135.2675 73.495 135.5975 69.865 135.9375 66.125 C136.5975 66.125 137.2575 66.125 137.9375 66.125 C138.2675 63.485 138.5975 60.845 138.9375 58.125 C139.5975 58.125 140.2575 58.125 140.9375 58.125 C140.9375 56.805 140.9375 55.485 140.9375 54.125 C141.5975 54.125 142.2575 54.125 142.9375 54.125 C143.040625 53.42375 143.14375 52.7225 143.25 52 C144.03109003 48.73362353 145.35808743 46.0778148 146.9375 43.125 C147.5975 43.125 148.2575 43.125 148.9375 43.125 C149.22625 42.361875 149.515 41.59875 149.8125 40.8125 C150.9375 38.125 150.9375 38.125 152.9375 35.125 C153.5975 35.125 154.2575 35.125 154.9375 35.125 C154.9375 34.135 154.9375 33.145 154.9375 32.125 C155.5975 32.125 156.2575 32.125 156.9375 32.125 C157.2675 31.135 157.5975 30.145 157.9375 29.125 C158.5975 29.125 159.2575 29.125 159.9375 29.125 C160.2675 28.135 160.5975 27.145 160.9375 26.125 C161.5975 26.125 162.2575 26.125 162.9375 26.125 C163.2675 25.135 163.5975 24.145 163.9375 23.125 C164.5975 23.125 165.2575 23.125 165.9375 23.125 C165.9375 22.465 165.9375 21.805 165.9375 21.125 C167.5875 20.795 169.2375 20.465 170.9375 20.125 C171.2675 19.135 171.5975 18.145 171.9375 17.125 C178.69822505 12.20088895 187.31256739 6.125 195.9375 6.125 C195.9375 5.465 195.9375 4.805 195.9375 4.125 C196.71996094 3.99222656 197.50242187 3.85945312 198.30859375 3.72265625 C199.82646484 3.45775391 199.82646484 3.45775391 201.375 3.1875 C202.38433594 3.01347656 203.39367187 2.83945313 204.43359375 2.66015625 C206.8662438 2.37748903 206.8662438 2.37748903 207.9375 1.125 C215.22192082 -0.14108048 222.49987032 -0.02322875 229.875 0 C231.71094727 -0.00580078 231.71094727 -0.00580078 233.58398438 -0.01171875 C240.12082251 -0.00468611 246.45902863 0.24443108 252.9375 1.125 C252.9375 1.785 252.9375 2.445 252.9375 3.125 C254.01 3.104375 255.0825 3.08375 256.1875 3.0625 C259.08540424 3.1107984 261.22362141 3.25655885 263.9375 4.125 C263.9375 4.785 263.9375 5.445 263.9375 6.125 C267.8975 6.62 267.8975 6.62 271.9375 7.125 C271.9375 7.785 271.9375 8.445 271.9375 9.125 C273.9175 9.455 275.8975 9.785 277.9375 10.125 C277.9375 10.785 277.9375 11.445 277.9375 12.125 C279.5875 12.455 281.2375 12.785 282.9375 13.125 C282.9375 13.785 282.9375 14.445 282.9375 15.125 C283.9275 15.125 284.9175 15.125 285.9375 15.125 C285.9375 15.785 285.9375 16.445 285.9375 17.125 C286.80375 17.558125 286.80375 17.558125 287.6875 18 C289.77083333 19.04166667 291.85416667 20.08333333 293.9375 21.125 C293.9375 21.785 293.9375 22.445 293.9375 23.125 C294.9275 23.455 295.9175 23.785 296.9375 24.125 C296.9375 24.785 296.9375 25.445 296.9375 26.125 C297.9275 26.455 298.9175 26.785 299.9375 27.125 C299.9375 27.785 299.9375 28.445 299.9375 29.125 C300.576875 29.393125 301.21625 29.66125 301.875 29.9375 C303.9375 31.125 303.9375 31.125 304.9375 34.125 C305.5975 34.125 306.2575 34.125 306.9375 34.125 C307.2675 35.445 307.5975 36.765 307.9375 38.125 C308.5975 38.125 309.2575 38.125 309.9375 38.125 C310.2675 39.775 310.5975 41.425 310.9375 43.125 C311.9275 43.455 312.9175 43.785 313.9375 44.125 C313.9375 45.115 313.9375 46.105 313.9375 47.125 C314.5975 47.125 315.2575 47.125 315.9375 47.125 C317.97185531 50.85465139 318.9375 52.79405042 318.9375 57.125 C319.5975 57.125 320.2575 57.125 320.9375 57.125 C321.2675 59.435 321.5975 61.745 321.9375 64.125 C322.5975 64.125 323.2575 64.125 323.9375 64.125 C324.2675 67.755 324.5975 71.385 324.9375 75.125 C325.5975 75.125 326.2575 75.125 326.9375 75.125 C326.99808594 75.76308594 327.05867188 76.40117187 327.12109375 77.05859375 C327.24677734 78.29802734 327.24677734 78.29802734 327.375 79.5625 C327.45621094 80.38621094 327.53742188 81.20992188 327.62109375 82.05859375 C327.72680815 84.11162025 327.72680815 84.11162025 328.9375 85.125 C329.03743532 87.1855531 329.06830906 89.2495259 329.0703125 91.3125 C329.07160156 92.56804687 329.07289063 93.82359375 329.07421875 95.1171875 C329.07212402 95.77428711 329.0700293 96.43138672 329.06787109 97.10839844 C329.06252234 99.11661335 329.06781691 101.12460459 329.07421875 103.1328125 C329.07228516 105.01613281 329.07228516 105.01613281 329.0703125 106.9375 C329.06918457 108.09894531 329.06805664 109.26039063 329.06689453 110.45703125 C328.9375 113.125 328.9375 113.125 327.9375 114.125 C327.70674918 115.47247084 327.52596937 116.82877565 327.375 118.1875 C327.230625 119.486875 327.08625 120.78625 326.9375 122.125 C326.2775 122.125 325.6175 122.125 324.9375 122.125 C324.95103516 122.96417969 324.95103516 122.96417969 324.96484375 123.8203125 C324.68881569 131.2850713 321.99955482 136.68526994 318.53125 143.12109375 C316.86970716 146.05290766 316.86970716 146.05290766 315.9375 149.125 C315.2775 149.125 314.6175 149.125 313.9375 149.125 C313.6075 150.445 313.2775 151.765 312.9375 153.125 C312.2775 153.125 311.6175 153.125 310.9375 153.125 C310.834375 153.888125 310.73125 154.65125 310.625 155.4375 C309.89038806 158.30916484 309.2658935 159.35542094 306.9375 161.125 C306.2775 161.125 305.6175 161.125 304.9375 161.125 C304.710625 161.681875 304.48375 162.23875 304.25 162.8125 C302.56199964 165.78659588 300.47073483 167.84508865 297.9375 170.125 C297.2775 170.125 296.6175 170.125 295.9375 170.125 C295.9375 170.785 295.9375 171.445 295.9375 172.125 C291.58455882 176.125 291.58455882 176.125 287.9375 176.125 C288.2675 177.445 288.5975 178.765 288.9375 180.125 C291.2475 180.455 293.5575 180.785 295.9375 181.125 C295.9375 181.785 295.9375 182.445 295.9375 183.125 C297.2575 183.455 298.5775 183.785 299.9375 184.125 C299.9375 184.785 299.9375 185.445 299.9375 186.125 C301.5875 186.455 303.2375 186.785 304.9375 187.125 C304.9375 187.785 304.9375 188.445 304.9375 189.125 C306.0821875 189.2796875 306.0821875 189.2796875 307.25 189.4375 C310.12166484 190.17211194 311.16792094 190.7966065 312.9375 193.125 C312.9375 193.785 312.9375 194.445 312.9375 195.125 C313.9275 195.125 314.9175 195.125 315.9375 195.125 C315.9375 195.785 315.9375 196.445 315.9375 197.125 C316.9275 197.455 317.9175 197.785 318.9375 198.125 C318.9375 198.785 318.9375 199.445 318.9375 200.125 C319.9275 200.455 320.9175 200.785 321.9375 201.125 C321.9375 201.785 321.9375 202.445 321.9375 203.125 C322.9275 203.455 323.9175 203.785 324.9375 204.125 C324.9375 204.785 324.9375 205.445 324.9375 206.125 C325.576875 206.3725 326.21625 206.62 326.875 206.875 C328.9375 208.125 328.9375 208.125 329.5 210.1875 C329.644375 210.826875 329.78875 211.46625 329.9375 212.125 C330.9275 212.455 331.9175 212.785 332.9375 213.125 C332.9375 213.785 332.9375 214.445 332.9375 215.125 C333.5975 215.125 334.2575 215.125 334.9375 215.125 C335.2675 216.775 335.5975 218.425 335.9375 220.125 C336.9275 220.455 337.9175 220.785 338.9375 221.125 C340.125 223.6875 340.125 223.6875 340.9375 226.125 C341.5975 226.125 342.2575 226.125 342.9375 226.125 C343.2675 228.105 343.5975 230.085 343.9375 232.125 C344.5975 232.125 345.2575 232.125 345.9375 232.125 C346.2675 234.105 346.5975 236.085 346.9375 238.125 C347.5975 238.125 348.2575 238.125 348.9375 238.125 C349.2675 240.105 349.5975 242.085 349.9375 244.125 C350.5975 244.125 351.2575 244.125 351.9375 244.125 C351.9375 245.775 351.9375 247.425 351.9375 249.125 C352.5975 249.125 353.2575 249.125 353.9375 249.125 C353.6075 250.775 353.2775 252.425 352.9375 254.125 C351.65552734 254.10759766 351.65552734 254.10759766 350.34765625 254.08984375 C349.24292969 254.08082031 348.13820313 254.07179688 347 254.0625 C345.34677734 254.04509766 345.34677734 254.04509766 343.66015625 254.02734375 C341.02302366 253.81237429 341.02302366 253.81237429 339.9375 255.125 C338.47287549 255.31589992 337.00052317 255.44833844 335.52734375 255.5546875 C334.61919922 255.62816406 333.71105469 255.70164062 332.77539062 255.77734375 C330.86956819 255.92364931 328.96331315 256.06444356 327.05664062 256.19921875 C321.1285746 256.69079415 316.41552029 257.80622971 310.9375 260.125 C309.48290342 260.61539331 308.02527578 261.09707134 306.5625 261.5625 C302.31512362 262.94879646 298.21409478 264.6125384 294.1015625 266.35546875 C291.9375 267.125 291.9375 267.125 288.9375 267.125 C288.9375 267.785 288.9375 268.445 288.9375 269.125 C286.9575 269.455 284.9775 269.785 282.9375 270.125 C282.9375 270.785 282.9375 271.445 282.9375 272.125 C277.64338235 276.125 277.64338235 276.125 273.9375 276.125 C273.9375 276.785 273.9375 277.445 273.9375 278.125 C272.2578125 279.6328125 272.2578125 279.6328125 270.0625 281.25 C269.34320312 281.78882813 268.62390625 282.32765625 267.8828125 282.8828125 C265.9375 284.125 265.9375 284.125 263.9375 284.125 C263.6075 285.115 263.2775 286.105 262.9375 287.125 C262.2775 287.125 261.6175 287.125 260.9375 287.125 C260.6075 288.115 260.2775 289.105 259.9375 290.125 C259.2775 290.125 258.6175 290.125 257.9375 290.125 C257.6075 291.115 257.2775 292.105 256.9375 293.125 C256.2775 293.125 255.6175 293.125 254.9375 293.125 C254.9375 293.785 254.9375 294.445 254.9375 295.125 C253.5625 296.75 253.5625 296.75 251.9375 298.125 C251.2775 298.125 250.6175 298.125 249.9375 298.125 C249.6075 299.445 249.2775 300.765 248.9375 302.125 C248.2775 302.125 247.6175 302.125 246.9375 302.125 C246.6075 303.445 246.2775 304.765 245.9375 306.125 C245.2775 306.125 244.6175 306.125 243.9375 306.125 C243.6075 307.445 243.2775 308.765 242.9375 310.125 C242.2775 310.125 241.6175 310.125 240.9375 310.125 C240.9375 311.115 240.9375 312.105 240.9375 313.125 C240.2775 313.125 239.6175 313.125 238.9375 313.125 C238.6075 314.775 238.2775 316.425 237.9375 318.125 C237.2775 318.125 236.6175 318.125 235.9375 318.125 C235.6075 320.105 235.2775 322.085 234.9375 324.125 C234.2775 324.125 233.6175 324.125 232.9375 324.125 C232.6075 325.775 232.2775 327.425 231.9375 329.125 C230.9475 329.125 229.9575 329.125 228.9375 329.125 C228.9375 328.465 228.9375 327.805 228.9375 327.125 C228.2775 327.125 227.6175 327.125 226.9375 327.125 C225.93017601 325.19129769 224.93186712 323.25289694 223.9375 321.3125 C223.380625 320.23355469 222.82375 319.15460938 222.25 318.04296875 C220.9375 315.125 220.9375 315.125 220.9375 312.125 C220.2775 312.125 219.6175 312.125 218.9375 312.125 C218.6075 310.475 218.2775 308.825 217.9375 307.125 C216.9475 306.795 215.9575 306.465 214.9375 306.125 C213.75 303.5625 213.75 303.5625 212.9375 301.125 C212.2775 301.125 211.6175 301.125 210.9375 301.125 C206.9375 295.71323529 206.9375 295.71323529 206.9375 293.125 C205.9475 292.795 204.9575 292.465 203.9375 292.125 C203.9375 291.465 203.9375 290.805 203.9375 290.125 C203.36 290.063125 202.7825 290.00125 202.1875 289.9375 C199.04530869 288.8028198 198.02353575 286.73254468 195.9375 284.125 C192.47013729 281.21241533 188.84767257 278.655934 184.9375 276.375 C184.2775 275.9625 183.6175 275.55 182.9375 275.125 C182.9375 274.465 182.9375 273.805 182.9375 273.125 C182.23625 273.021875 181.535 272.91875 180.8125 272.8125 C177.54612353 272.03140997 174.8903148 270.70441257 171.9375 269.125 C171.9375 268.465 171.9375 267.805 171.9375 267.125 C171.133125 267.0425 170.32875 266.96 169.5 266.875 C166.54235005 266.25233685 164.70476229 265.60573778 162.0625 264.3125 C155.37513188 261.17024269 148.10377285 259.77807889 140.9375 258.125 C140.9375 257.465 140.9375 256.805 140.9375 256.125 C123.7775 256.125 106.6175 256.125 88.9375 256.125 C88.9375 256.785 88.9375 257.445 88.9375 258.125 C87.27654297 258.50785156 87.27654297 258.50785156 85.58203125 258.8984375 C79.54573891 260.40651318 73.76021997 262.60909685 67.91992188 264.734375 C67.06333984 265.04117187 66.20675781 265.34796875 65.32421875 265.6640625 C64.55295654 265.94459473 63.78169434 266.22512695 62.98706055 266.51416016 C60.9375 267.125 60.9375 267.125 57.9375 267.125 C57.9375 267.785 57.9375 268.445 57.9375 269.125 C56.2875 269.455 54.6375 269.785 52.9375 270.125 C52.9375 270.785 52.9375 271.445 52.9375 272.125 C50.9575 272.455 48.9775 272.785 46.9375 273.125 C46.9375 273.785 46.9375 274.445 46.9375 275.125 C41.52573529 279.125 41.52573529 279.125 38.9375 279.125 C38.9375 279.785 38.9375 280.445 38.9375 281.125 C35.47596154 284.125 35.47596154 284.125 32.9375 284.125 C32.9375 284.785 32.9375 285.445 32.9375 286.125 C31.27534732 287.46395632 29.60786393 288.79630142 27.9375 290.125 C26.59922696 291.78770287 25.26560215 293.45416181 23.9375 295.125 C23.215625 295.66125 22.49375 296.1975 21.75 296.75 C19.63751167 298.08382513 19.63751167 298.08382513 18.9375 301.125 C18.2775 301.125 17.6175 301.125 16.9375 301.125 C16.6075 302.115 16.2775 303.105 15.9375 304.125 C15.2775 304.125 14.6175 304.125 13.9375 304.125 C13.6075 305.775 13.2775 307.425 12.9375 309.125 C12.2775 309.125 11.6175 309.125 10.9375 309.125 C10.81375 309.723125 10.69 310.32125 10.5625 310.9375 C9.9375 313.125 9.9375 313.125 7.9375 316.125 C7.2775 316.125 6.6175 316.125 5.9375 316.125 C5.875625 316.888125 5.81375 317.65125 5.75 318.4375 C4.82298725 322.6447117 3.18302555 326.07760635 1.34765625 329.95703125 C-1.14153003 335.54908132 -3.07711326 341.33780885 -5.0625 347.125 C-6.3825 347.125 -7.7025 347.125 -9.0625 347.125 C-9.0625 345.145 -9.0625 343.165 -9.0625 341.125 C-9.7225 341.125 -10.3825 341.125 -11.0625 341.125 C-11.23265625 340.59132813 -11.4028125 340.05765625 -11.578125 339.5078125 C-14.91102517 328.89575609 -14.91102517 328.89575609 -20.0625 319.125 C-20.0625 318.135 -20.0625 317.145 -20.0625 316.125 C-20.7225 316.125 -21.3825 316.125 -22.0625 316.125 C-26.0625 309.375 -26.0625 309.375 -26.0625 307.125 C-26.7225 307.125 -27.3825 307.125 -28.0625 307.125 C-28.5575 305.64 -28.5575 305.64 -29.0625 304.125 C-29.7225 303.485625 -30.3825 302.84625 -31.0625 302.1875 C-33.18661418 299.99700726 -33.37580134 298.96989443 -34.0625 296.125 C-35.0525 295.795 -36.0425 295.465 -37.0625 295.125 C-37.0625 294.465 -37.0625 293.805 -37.0625 293.125 C-38.0525 292.795 -39.0425 292.465 -40.0625 292.125 C-40.0625 291.465 -40.0625 290.805 -40.0625 290.125 C-40.94615234 289.71894531 -40.94615234 289.71894531 -41.84765625 289.3046875 C-44.03482475 288.13974061 -45.65583747 286.89398785 -47.5 285.25 C-49.62831059 283.36938073 -51.74055814 281.60563632 -54 279.875 C-54.680625 279.2975 -55.36125 278.72 -56.0625 278.125 C-56.0625 277.465 -56.0625 276.805 -56.0625 276.125 C-57.7125 275.795 -59.3625 275.465 -61.0625 275.125 C-61.0625 274.465 -61.0625 273.805 -61.0625 273.125 C-61.578125 273.021875 -62.09375 272.91875 -62.625 272.8125 C-65.92276435 271.88236134 -68.92883332 270.51104488 -72.0625 269.125 C-72.0625 268.465 -72.0625 267.805 -72.0625 267.125 C-74.0425 266.795 -76.0225 266.465 -78.0625 266.125 C-78.0625 265.465 -78.0625 264.805 -78.0625 264.125 C-79.01125 264.0425 -79.96 263.96 -80.9375 263.875 C-85.15318538 263.29352615 -88.78366488 261.69020381 -92.68359375 260.046875 C-95.4479389 258.97563452 -98.11739316 258.43501125 -101.0625 258.125 C-101.0625 257.465 -101.0625 256.805 -101.0625 256.125 C-108.3225 255.795 -115.5825 255.465 -123.0625 255.125 C-123.0625 247.125 -123.0625 247.125 -122.0625 244.125 C-121.4025 244.125 -120.7425 244.125 -120.0625 244.125 C-119.93875 243.2175 -119.815 242.31 -119.6875 241.375 C-119.14140323 238.53529677 -118.48986197 236.59909409 -117.0625 234.125 C-116.4025 234.125 -115.7425 234.125 -115.0625 234.125 C-114.7325 232.475 -114.4025 230.825 -114.0625 229.125 C-113.4025 229.125 -112.7425 229.125 -112.0625 229.125 C-111.95808594 228.39925781 -111.85367188 227.67351562 -111.74609375 226.92578125 C-110.99907973 223.86515809 -109.88701352 221.91028522 -108.125 219.3125 C-107.60035156 218.52230469 -107.07570312 217.73210937 -106.53515625 216.91796875 C-106.04917969 216.32628906 -105.56320313 215.73460937 -105.0625 215.125 C-104.4025 215.125 -103.7425 215.125 -103.0625 215.125 C-103.0625 214.465 -103.0625 213.805 -103.0625 213.125 C-102.4025 213.125 -101.7425 213.125 -101.0625 213.125 C-100.7325 211.805 -100.4025 210.485 -100.0625 209.125 C-99.4025 209.125 -98.7425 209.125 -98.0625 209.125 C-97.7325 208.135 -97.4025 207.145 -97.0625 206.125 C-96.4025 206.125 -95.7425 206.125 -95.0625 206.125 C-94.7325 205.135 -94.4025 204.145 -94.0625 203.125 C-93.4025 203.125 -92.7425 203.125 -92.0625 203.125 C-92.0625 202.465 -92.0625 201.805 -92.0625 201.125 C-90.4228279 199.75860658 -88.75139872 198.4300581 -87.0625 197.125 C-86.4025 196.465 -85.7425 195.805 -85.0625 195.125 C-82.84521524 192.90771524 -80.61081318 190.95455818 -78.0625 189.125 C-77.0725 189.125 -76.0825 189.125 -75.0625 189.125 C-75.0625 188.465 -75.0625 187.805 -75.0625 187.125 C-73.4125 186.795 -71.7625 186.465 -70.0625 186.125 C-69.7325 185.135 -69.4025 184.145 -69.0625 183.125 C-67.7425 183.125 -66.4225 183.125 -65.0625 183.125 C-65.0625 182.465 -65.0625 181.805 -65.0625 181.125 C-63.0825 180.795 -61.1025 180.465 -59.0625 180.125 C-59.0625 179.135 -59.0625 178.145 -59.0625 177.125 C-60.0525 176.465 -61.0425 175.805 -62.0625 175.125 C-62.0625 174.465 -62.0625 173.805 -62.0625 173.125 C-62.825625 172.83625 -63.58875 172.5475 -64.375 172.25 C-67.0625 171.125 -67.0625 171.125 -70.0625 169.125 C-70.0625 168.465 -70.0625 167.805 -70.0625 167.125 C-71.0525 166.795 -72.0425 166.465 -73.0625 166.125 C-73.0625 165.465 -73.0625 164.805 -73.0625 164.125 C-73.7225 164.125 -74.3825 164.125 -75.0625 164.125 C-75.3925 162.805 -75.7225 161.485 -76.0625 160.125 C-76.7225 160.125 -77.3825 160.125 -78.0625 160.125 C-80.35898649 157.5635343 -81.0625 156.64532428 -81.0625 153.125 C-82.0525 152.795 -83.0425 152.465 -84.0625 152.125 C-84.0625 151.135 -84.0625 150.145 -84.0625 149.125 C-84.7225 149.125 -85.3825 149.125 -86.0625 149.125 C-86.5575 146.65 -86.5575 146.65 -87.0625 144.125 C-87.7225 144.125 -88.3825 144.125 -89.0625 144.125 C-89.5575 140.66 -89.5575 140.66 -90.0625 137.125 C-90.7225 137.125 -91.3825 137.125 -92.0625 137.125 C-92.0625 135.805 -92.0625 134.485 -92.0625 133.125 C-92.7225 133.125 -93.3825 133.125 -94.0625 133.125 C-94.24425781 132.16400391 -94.24425781 132.16400391 -94.4296875 131.18359375 C-94.59726563 130.31863281 -94.76484375 129.45367187 -94.9375 128.5625 C-95.09992188 127.71558594 -95.26234375 126.86867188 -95.4296875 125.99609375 C-96.03257345 123.04653506 -96.03257345 123.04653506 -97.08764648 119.93774414 C-98.10502797 115.9586691 -98.33563698 112.32127267 -98.29296875 108.25 C-98.29251053 107.52184082 -98.29205231 106.79368164 -98.2915802 106.04345703 C-98.28857821 104.51398067 -98.28075412 102.98450681 -98.26831055 101.45507812 C-98.25005028 99.13139852 -98.24780134 96.80811895 -98.24804688 94.484375 C-98.24313031 92.98957993 -98.23730139 91.49478753 -98.23046875 90 C-98.22935593 89.31437988 -98.2282431 88.62875977 -98.22709656 87.92236328 C-98.16245648 81.25979257 -97.24609344 75.40283114 -95.0625 69.125 C-94.70143903 67.46411955 -94.35787827 65.79881019 -94.0625 64.125 C-93.4025 64.125 -92.7425 64.125 -92.0625 64.125 C-92.0625 62.805 -92.0625 61.485 -92.0625 60.125 C-91.4025 60.125 -90.7425 60.125 -90.0625 60.125 C-89.7325 57.815 -89.4025 55.505 -89.0625 53.125 C-88.4025 53.125 -87.7425 53.125 -87.0625 53.125 C-86.7325 51.145 -86.4025 49.165 -86.0625 47.125 C-85.4025 47.125 -84.7425 47.125 -84.0625 47.125 C-83.9078125 46.2896875 -83.9078125 46.2896875 -83.75 45.4375 C-82.92071592 42.6480899 -81.71950944 40.5110936 -80.0625 38.125 C-79.4025 38.125 -78.7425 38.125 -78.0625 38.125 C-78.0625 37.135 -78.0625 36.145 -78.0625 35.125 C-77.4025 35.125 -76.7425 35.125 -76.0625 35.125 C-75.7325 34.135 -75.4025 33.145 -75.0625 32.125 C-74.4025 32.125 -73.7425 32.125 -73.0625 32.125 C-72.5675 30.64 -72.5675 30.64 -72.0625 29.125 C-71.4025 29.125 -70.7425 29.125 -70.0625 29.125 C-69.5675 27.64 -69.5675 27.64 -69.0625 26.125 C-68.4025 26.125 -67.7425 26.125 -67.0625 26.125 C-67.0625 25.465 -67.0625 24.805 -67.0625 24.125 C-65.35225524 22.51638269 -63.56811171 20.98561657 -61.75 19.5 C-60.76386719 18.68273437 -59.77773437 17.86546875 -58.76171875 17.0234375 C-56.0625 15.125 -56.0625 15.125 -53.0625 15.125 C-53.0625 14.465 -53.0625 13.805 -53.0625 13.125 C-50.5875 12.63 -50.5875 12.63 -48.0625 12.125 C-48.0625 11.465 -48.0625 10.805 -48.0625 10.125 C-45.0925 9.63 -45.0925 9.63 -42.0625 9.125 C-42.0625 8.465 -42.0625 7.805 -42.0625 7.125 C-39.4225 6.795 -36.7825 6.465 -34.0625 6.125 C-34.0625 5.465 -34.0625 4.805 -34.0625 4.125 C-30.4325 3.795 -26.8025 3.465 -23.0625 3.125 C-23.0625 2.465 -23.0625 1.805 -23.0625 1.125 C-15.35511777 0.07739465 -7.77162182 -0.02455489 0 0 Z M-1.0625 30.125 C-1.7225 30.455 -2.3825 30.785 -3.0625 31.125 C-4.96597853 31.3358019 -6.87007441 31.54247048 -8.77685547 31.72094727 C-16.50016192 32.45268972 -23.00739234 33.7438177 -30.0625 37.125 C-31.0525 37.455 -32.0425 37.785 -33.0625 38.125 C-33.0625 38.785 -33.0625 39.445 -33.0625 40.125 C-33.805 40.41375 -34.5475 40.7025 -35.3125 41 C-37.62989797 41.94802644 -39.84167115 42.97345911 -42.0625 44.125 C-42.0625 44.785 -42.0625 45.445 -42.0625 46.125 C-42.64773437 46.38152344 -43.23296875 46.63804687 -43.8359375 46.90234375 C-46.25484608 48.23062162 -47.79448872 49.69024801 -49.6875 51.6875 C-52.86805556 55.02777778 -52.86805556 55.02777778 -55.0625 56.125 C-55.71805119 58.65233235 -55.71805119 58.65233235 -56.0625 61.125 C-56.7225 61.125 -57.3825 61.125 -58.0625 61.125 C-58.5575 63.6 -58.5575 63.6 -59.0625 66.125 C-59.7225 66.125 -60.3825 66.125 -61.0625 66.125 C-61.3925 68.435 -61.7225 70.745 -62.0625 73.125 C-62.7225 73.125 -63.3825 73.125 -64.0625 73.125 C-66.64966898 80.9481062 -67.45000039 87.9013806 -67.0625 96.125 C-67.7225 96.125 -68.3825 96.125 -69.0625 96.125 C-68.7325 97.115 -68.4025 98.105 -68.0625 99.125 C-67.98464486 100.81186131 -67.9248542 102.49957907 -67.875 104.1875 C-67.25117144 112.93185547 -64.03282145 120.94980336 -61.0625 129.125 C-60.4025 129.125 -59.7425 129.125 -59.0625 129.125 C-58.7325 130.775 -58.4025 132.425 -58.0625 134.125 C-57.4025 134.125 -56.7425 134.125 -56.0625 134.125 C-55.7325 135.445 -55.4025 136.765 -55.0625 138.125 C-54.4025 138.125 -53.7425 138.125 -53.0625 138.125 C-53.0625 139.115 -53.0625 140.105 -53.0625 141.125 C-52.4025 141.125 -51.7425 141.125 -51.0625 141.125 C-50.7325 142.115 -50.4025 143.105 -50.0625 144.125 C-49.4025 144.125 -48.7425 144.125 -48.0625 144.125 C-47.7325 145.115 -47.4025 146.105 -47.0625 147.125 C-46.4025 147.125 -45.7425 147.125 -45.0625 147.125 C-45.0625 147.785 -45.0625 148.445 -45.0625 149.125 C-43.7425 149.455 -42.4225 149.785 -41.0625 150.125 C-41.0625 150.785 -41.0625 151.445 -41.0625 152.125 C-29.7961199 158.89449286 -29.7961199 158.89449286 -17.0625 161.125 C-17.0625 161.785 -17.0625 162.445 -17.0625 163.125 C-11.5179492 163.9117268 -6.15897338 164.28058182 -0.5625 164.25 C0.14519531 164.25386719 0.85289062 164.25773438 1.58203125 164.26171875 C8.69267961 164.24871939 15.19139023 163.52361681 21.9375 161.125 C23.59838045 160.76393903 25.26368981 160.42037827 26.9375 160.125 C26.9375 159.465 26.9375 158.805 26.9375 158.125 C27.77087891 157.96837891 27.77087891 157.96837891 28.62109375 157.80859375 C31.40205436 156.98790554 33.5339718 155.70877532 36 154.1875 C36.85722656 153.66285156 37.71445312 153.13820313 38.59765625 152.59765625 C40.39461069 151.46668492 42.17085884 150.30276077 43.9375 149.125 C43.9375 148.465 43.9375 147.805 43.9375 147.125 C44.9275 146.795 45.9175 146.465 46.9375 146.125 C46.9375 145.465 46.9375 144.805 46.9375 144.125 C47.9275 143.795 48.9175 143.465 49.9375 143.125 C49.9375 142.465 49.9375 141.805 49.9375 141.125 C50.9275 140.795 51.9175 140.465 52.9375 140.125 C54.15619929 137.62052484 54.15619929 137.62052484 54.9375 135.125 C55.5975 135.125 56.2575 135.125 56.9375 135.125 C57.2675 133.475 57.5975 131.825 57.9375 130.125 C58.5975 130.125 59.2575 130.125 59.9375 130.125 C63.44118542 122.44368959 63.44118542 122.44368959 63.9375 114.125 C64.5975 114.125 65.2575 114.125 65.9375 114.125 C67.73807892 103.32152645 67.48305486 91.94388399 65.9375 81.125 C65.2775 81.125 64.6175 81.125 63.9375 81.125 C63.6075 78.155 63.2775 75.185 62.9375 72.125 C62.2775 72.125 61.6175 72.125 60.9375 72.125 C60.875625 71.3 60.81375 70.475 60.75 69.625 C59.85046184 65.75006638 58.37672049 63.28383074 56.1953125 60.01171875 C54.9375 58.125 54.9375 58.125 53.4375 55.375 C51.63018307 52.6640246 49.53362982 51.07209736 46.9375 49.125 C46.30134766 48.45404297 46.30134766 48.45404297 45.65234375 47.76953125 C43.29637506 45.51016265 40.69957244 43.7694719 38 41.9375 C36.95972656 41.22207031 35.91945313 40.50664062 34.84765625 39.76953125 C31.91420866 37.79701317 31.91420866 37.79701317 27.9375 38.125 C27.9375 37.465 27.9375 36.805 27.9375 36.125 C25.6275 35.795 23.3175 35.465 20.9375 35.125 C20.9375 34.465 20.9375 33.805 20.9375 33.125 C20.37764404 33.06965088 19.81778809 33.01430176 19.2409668 32.95727539 C16.70194195 32.7042418 14.163481 32.4459302 11.625 32.1875 C10.74392578 32.10048828 9.86285156 32.01347656 8.95507812 31.92382812 C7.68374023 31.79331055 7.68374023 31.79331055 6.38671875 31.66015625 C5.60643311 31.581604 4.82614746 31.50305176 4.0222168 31.42211914 C1.9375 31.125 1.9375 31.125 -1.0625 30.125 Z M227.9375 31.125 C226.56543479 31.34191392 225.18610728 31.51423163 223.8046875 31.66015625 C222.59619141 31.79067383 222.59619141 31.79067383 221.36328125 31.92382812 C220.52152344 32.01083984 219.67976563 32.09785156 218.8125 32.1875 C217.96300781 32.27837891 217.11351562 32.36925781 216.23828125 32.46289062 C214.1383855 32.6870368 212.03798707 32.90646448 209.9375 33.125 C209.9375 33.785 209.9375 34.445 209.9375 35.125 C207.2975 35.455 204.6575 35.785 201.9375 36.125 C201.9375 36.785 201.9375 37.445 201.9375 38.125 C200.87789063 38.26808594 200.87789063 38.26808594 199.796875 38.4140625 C196.43675768 39.24950151 194.09883438 40.6351723 191.1875 42.5 C190.22328125 43.10585938 189.2590625 43.71171875 188.265625 44.3359375 C185.67434223 45.98189814 185.67434223 45.98189814 184.9375 49.125 C183.61342331 49.80986725 182.27840759 50.47370203 180.9375 51.125 C178.66605926 52.97932087 178.66605926 52.97932087 176.9375 55.125 C176.9375 56.115 176.9375 57.105 176.9375 58.125 C175.9475 58.455 174.9575 58.785 173.9375 59.125 C173.9375 60.115 173.9375 61.105 173.9375 62.125 C173.2775 62.125 172.6175 62.125 171.9375 62.125 C171.4425 64.6 171.4425 64.6 170.9375 67.125 C170.2775 67.125 169.6175 67.125 168.9375 67.125 C168.66035156 68.05183594 168.38320313 68.97867188 168.09765625 69.93359375 C167.55431641 71.72990234 167.55431641 71.72990234 167 73.5625 C166.46052734 75.35494141 166.46052734 75.35494141 165.91015625 77.18359375 C164.9375 80.125 164.9375 80.125 163.9375 81.125 C162.91173316 86.62224342 162.78590416 91.98180695 162.8125 97.5625 C162.80863281 98.37009766 162.80476563 99.17769531 162.80078125 100.00976562 C162.80904098 105.13492963 163.2036782 110.05231123 163.9375 115.125 C164.5975 115.125 165.2575 115.125 165.9375 115.125 C165.97875 116.0325 166.02 116.94 166.0625 117.875 C166.8734713 123.7938801 170.17187469 128.92386382 172.9375 134.125 C173.60856345 135.45612586 174.27722048 136.78849217 174.9375 138.125 C175.5975 138.125 176.2575 138.125 176.9375 138.125 C177.2675 139.115 177.5975 140.105 177.9375 141.125 C178.5975 141.125 179.2575 141.125 179.9375 141.125 C180.14375 141.681875 180.35 142.23875 180.5625 142.8125 C181.90596753 145.07196811 182.98907702 146.1248656 185 147.75 C187.9375 150.125 187.9375 150.125 188.9375 152.125 C191.46483235 152.78055119 191.46483235 152.78055119 193.9375 153.125 C193.9375 153.785 193.9375 154.445 193.9375 155.125 C198.2012281 157.48410353 198.2012281 157.48410353 202.9375 158.125 C202.9375 158.785 202.9375 159.445 202.9375 160.125 C206.2375 160.455 209.5375 160.785 212.9375 161.125 C212.9375 161.785 212.9375 162.445 212.9375 163.125 C218.83436167 163.97804773 224.54573236 164.27851206 230.5 164.25 C231.31146484 164.25386719 232.12292969 164.25773438 232.95898438 164.26171875 C237.72333811 164.25402811 242.23921698 163.91960894 246.9375 163.125 C246.9375 162.465 246.9375 161.805 246.9375 161.125 C250.2375 160.795 253.5375 160.465 256.9375 160.125 C256.9375 159.465 256.9375 158.805 256.9375 158.125 C257.66839844 158.00769531 258.39929688 157.89039063 259.15234375 157.76953125 C265.38931292 156.32619336 270.61691384 152.76562958 274.9375 148.125 C275.5975 147.83625 276.2575 147.5475 276.9375 147.25 C279.95720936 145.55141349 281.22083027 143.06786239 282.9375 140.125 C282.9375 139.465 282.9375 138.805 282.9375 138.125 C283.9275 137.795 284.9175 137.465 285.9375 137.125 C287.16270264 134.11652582 287.16270264 134.11652582 287.9375 131.125 C288.5975 131.125 289.2575 131.125 289.9375 131.125 C290.2675 129.145 290.5975 127.165 290.9375 125.125 C291.5975 125.125 292.2575 125.125 292.9375 125.125 C293.2675 122.485 293.5975 119.845 293.9375 117.125 C294.5975 117.125 295.2575 117.125 295.9375 117.125 C296.95975109 110.39112379 297.08754645 103.80428647 297.0625 97 C297.06636719 95.94167969 297.07023438 94.88335937 297.07421875 93.79296875 C297.06795067 88.79730667 297.00709774 84.03156742 295.9375 79.125 C295.2775 79.125 294.6175 79.125 293.9375 79.125 C293.6075 76.155 293.2775 73.185 292.9375 70.125 C292.2775 70.125 291.6175 70.125 290.9375 70.125 C290.4425 67.155 290.4425 67.155 289.9375 64.125 C289.2775 64.125 288.6175 64.125 287.9375 64.125 C287.9375 63.135 287.9375 62.145 287.9375 61.125 C287.2775 61.125 286.6175 61.125 285.9375 61.125 C285.875625 60.3825 285.81375 59.64 285.75 58.875 C284.67466473 55.2354037 282.97512847 54.33418434 279.9375 52.125 C279.07125 51.238125 278.205 50.35125 277.3125 49.4375 C275.08401154 46.93203206 275.08401154 46.93203206 271.9375 46.125 C271.9375 45.465 271.9375 44.805 271.9375 44.125 C270.6175 43.795 269.2975 43.465 267.9375 43.125 C267.9375 42.465 267.9375 41.805 267.9375 41.125 C265.87574636 40.165062 263.81306531 39.20711576 261.75 38.25 C260.60144531 37.71632813 259.45289063 37.18265625 258.26953125 36.6328125 C249.24982459 32.55121019 241.7864263 31.98156903 231.9375 32.125 C231.9375 31.465 231.9375 30.805 231.9375 30.125 C229.8629644 29.9759288 229.8629644 29.9759288 227.9375 31.125 Z " fill="#3eab95" transform="translate(293.0625,251.875)"/>
</svg>
